%TF.GenerationSoftware,KiCad,Pcbnew,(5.1.12)-1*%
%TF.CreationDate,2021-12-29T15:11:16-05:00*%
%TF.ProjectId,4keymacropad,346b6579-6d61-4637-926f-7061642e6b69,rev?*%
%TF.SameCoordinates,Original*%
%TF.FileFunction,Soldermask,Bot*%
%TF.FilePolarity,Negative*%
%FSLAX46Y46*%
G04 Gerber Fmt 4.6, Leading zero omitted, Abs format (unit mm)*
G04 Created by KiCad (PCBNEW (5.1.12)-1) date 2021-12-29 15:11:16*
%MOMM*%
%LPD*%
G01*
G04 APERTURE LIST*
%ADD10C,3.200000*%
%ADD11O,1.750000X1.200000*%
%ADD12R,2.550000X2.500000*%
%ADD13C,3.000000*%
%ADD14C,2.286000*%
%ADD15C,3.987800*%
%ADD16C,1.701800*%
G04 APERTURE END LIST*
D10*
%TO.C,REF\u002A\u002A*%
X107315000Y-69850000D03*
%TD*%
%TO.C,REF\u002A\u002A*%
X161925000Y-111760000D03*
%TD*%
%TO.C,REF\u002A\u002A*%
X161925000Y-69850000D03*
%TD*%
%TO.C,REF\u002A\u002A*%
X107315000Y-111760000D03*
%TD*%
%TO.C,J1*%
G36*
G01*
X157489999Y-75600000D02*
X158740001Y-75600000D01*
G75*
G02*
X158990000Y-75849999I0J-249999D01*
G01*
X158990000Y-76550001D01*
G75*
G02*
X158740001Y-76800000I-249999J0D01*
G01*
X157489999Y-76800000D01*
G75*
G02*
X157240000Y-76550001I0J249999D01*
G01*
X157240000Y-75849999D01*
G75*
G02*
X157489999Y-75600000I249999J0D01*
G01*
G37*
D11*
X158115000Y-78200000D03*
X158115000Y-80200000D03*
X158115000Y-82200000D03*
X158115000Y-84200000D03*
%TD*%
D12*
%TO.C,SW1*%
X128330000Y-85725000D03*
D13*
X132080000Y-85725000D03*
X138430000Y-83185000D03*
D14*
X137160000Y-75565000D03*
D15*
X134620000Y-80645000D03*
D14*
X130810000Y-78105000D03*
D16*
X139700000Y-80645000D03*
X129540000Y-80645000D03*
D12*
X142180000Y-83185000D03*
%TD*%
%TO.C,SW2*%
X121860000Y-103505000D03*
D16*
X109220000Y-100965000D03*
X119380000Y-100965000D03*
D14*
X110490000Y-98425000D03*
D15*
X114300000Y-100965000D03*
D14*
X116840000Y-95885000D03*
D13*
X118110000Y-103505000D03*
X111760000Y-106045000D03*
D12*
X108010000Y-106045000D03*
%TD*%
%TO.C,SW3*%
X142180000Y-103505000D03*
D16*
X129540000Y-100965000D03*
X139700000Y-100965000D03*
D14*
X130810000Y-98425000D03*
D15*
X134620000Y-100965000D03*
D14*
X137160000Y-95885000D03*
D13*
X138430000Y-103505000D03*
X132080000Y-106045000D03*
D12*
X128330000Y-106045000D03*
%TD*%
%TO.C,SW4*%
X148650000Y-106045000D03*
D13*
X152400000Y-106045000D03*
X158750000Y-103505000D03*
D14*
X157480000Y-95885000D03*
D15*
X154940000Y-100965000D03*
D14*
X151130000Y-98425000D03*
D16*
X160020000Y-100965000D03*
X149860000Y-100965000D03*
D12*
X162500000Y-103505000D03*
%TD*%
M02*
