%TF.GenerationSoftware,KiCad,Pcbnew,(5.1.12)-1*%
%TF.CreationDate,2021-12-29T15:11:16-05:00*%
%TF.ProjectId,4keymacropad,346b6579-6d61-4637-926f-7061642e6b69,rev?*%
%TF.SameCoordinates,Original*%
%TF.FileFunction,Legend,Bot*%
%TF.FilePolarity,Positive*%
%FSLAX46Y46*%
G04 Gerber Fmt 4.6, Leading zero omitted, Abs format (unit mm)*
G04 Created by KiCad (PCBNEW (5.1.12)-1) date 2021-12-29 15:11:16*
%MOMM*%
%LPD*%
G01*
G04 APERTURE LIST*
%ADD10C,0.120000*%
%ADD11C,0.150000*%
G04 APERTURE END LIST*
D10*
%TO.C,J1*%
X158255000Y-75340000D02*
X158255000Y-75060000D01*
X158255000Y-75060000D02*
X156655000Y-75060000D01*
X156655000Y-75060000D02*
X156655000Y-74140000D01*
X156655000Y-74140000D02*
X164475000Y-74140000D01*
X164475000Y-74140000D02*
X164475000Y-86260000D01*
X164475000Y-86260000D02*
X156655000Y-86260000D01*
X156655000Y-86260000D02*
X156655000Y-85340000D01*
X156655000Y-85340000D02*
X158255000Y-85340000D01*
X158255000Y-85340000D02*
X158255000Y-85060000D01*
X164475000Y-76700000D02*
X160115000Y-76700000D01*
X160115000Y-76700000D02*
X160115000Y-83700000D01*
X160115000Y-83700000D02*
X164475000Y-83700000D01*
X158255000Y-74140000D02*
X158255000Y-75060000D01*
X158255000Y-86260000D02*
X158255000Y-85340000D01*
X160615000Y-74900000D02*
X162215000Y-74900000D01*
X162215000Y-74900000D02*
X162215000Y-75900000D01*
X162215000Y-75900000D02*
X160615000Y-75900000D01*
X160615000Y-75900000D02*
X160615000Y-74900000D01*
X160615000Y-85500000D02*
X162215000Y-85500000D01*
X162215000Y-85500000D02*
X162215000Y-84500000D01*
X162215000Y-84500000D02*
X160615000Y-84500000D01*
X160615000Y-84500000D02*
X160615000Y-85500000D01*
X162215000Y-75900000D02*
X164475000Y-75900000D01*
X162215000Y-75400000D02*
X164475000Y-75400000D01*
X158255000Y-75340000D02*
X157040000Y-75340000D01*
D11*
%TO.C,SW1*%
X129540000Y-87630000D02*
X138430000Y-87630000D01*
X129540000Y-87249000D02*
X129540000Y-87630000D01*
X129540000Y-83185000D02*
X129540000Y-84201000D01*
X134620000Y-83185000D02*
X129540000Y-83185000D01*
X138811000Y-81280000D02*
X137160000Y-81280000D01*
X140970000Y-81280000D02*
X140589000Y-81280000D01*
X140970000Y-81661000D02*
X140970000Y-81280000D01*
X140970000Y-85090000D02*
X140970000Y-84709000D01*
X140970000Y-85090000D02*
G75*
G02*
X138430000Y-87630000I-2540000J0D01*
G01*
X137084162Y-81261040D02*
G75*
G02*
X134620000Y-83185000I-2464162J616040D01*
G01*
%TO.C,SW2*%
X116764162Y-101581040D02*
G75*
G02*
X114300000Y-103505000I-2464162J616040D01*
G01*
X120650000Y-105410000D02*
G75*
G02*
X118110000Y-107950000I-2540000J0D01*
G01*
X120650000Y-105410000D02*
X120650000Y-105029000D01*
X120650000Y-101981000D02*
X120650000Y-101600000D01*
X120650000Y-101600000D02*
X120269000Y-101600000D01*
X118491000Y-101600000D02*
X116840000Y-101600000D01*
X114300000Y-103505000D02*
X109220000Y-103505000D01*
X109220000Y-103505000D02*
X109220000Y-104521000D01*
X109220000Y-107569000D02*
X109220000Y-107950000D01*
X109220000Y-107950000D02*
X118110000Y-107950000D01*
%TO.C,SW3*%
X137084162Y-101581040D02*
G75*
G02*
X134620000Y-103505000I-2464162J616040D01*
G01*
X140970000Y-105410000D02*
G75*
G02*
X138430000Y-107950000I-2540000J0D01*
G01*
X140970000Y-105410000D02*
X140970000Y-105029000D01*
X140970000Y-101981000D02*
X140970000Y-101600000D01*
X140970000Y-101600000D02*
X140589000Y-101600000D01*
X138811000Y-101600000D02*
X137160000Y-101600000D01*
X134620000Y-103505000D02*
X129540000Y-103505000D01*
X129540000Y-103505000D02*
X129540000Y-104521000D01*
X129540000Y-107569000D02*
X129540000Y-107950000D01*
X129540000Y-107950000D02*
X138430000Y-107950000D01*
%TO.C,SW4*%
X149860000Y-107950000D02*
X158750000Y-107950000D01*
X149860000Y-107569000D02*
X149860000Y-107950000D01*
X149860000Y-103505000D02*
X149860000Y-104521000D01*
X154940000Y-103505000D02*
X149860000Y-103505000D01*
X159131000Y-101600000D02*
X157480000Y-101600000D01*
X161290000Y-101600000D02*
X160909000Y-101600000D01*
X161290000Y-101981000D02*
X161290000Y-101600000D01*
X161290000Y-105410000D02*
X161290000Y-105029000D01*
X161290000Y-105410000D02*
G75*
G02*
X158750000Y-107950000I-2540000J0D01*
G01*
X157404162Y-101581040D02*
G75*
G02*
X154940000Y-103505000I-2464162J616040D01*
G01*
%TO.C,J1*%
X155017380Y-79866666D02*
X155731666Y-79866666D01*
X155874523Y-79819047D01*
X155969761Y-79723809D01*
X156017380Y-79580952D01*
X156017380Y-79485714D01*
X156017380Y-80866666D02*
X156017380Y-80295238D01*
X156017380Y-80580952D02*
X155017380Y-80580952D01*
X155160238Y-80485714D01*
X155255476Y-80390476D01*
X155303095Y-80295238D01*
%TO.C,SW1*%
X139763333Y-89304761D02*
X139620476Y-89352380D01*
X139382380Y-89352380D01*
X139287142Y-89304761D01*
X139239523Y-89257142D01*
X139191904Y-89161904D01*
X139191904Y-89066666D01*
X139239523Y-88971428D01*
X139287142Y-88923809D01*
X139382380Y-88876190D01*
X139572857Y-88828571D01*
X139668095Y-88780952D01*
X139715714Y-88733333D01*
X139763333Y-88638095D01*
X139763333Y-88542857D01*
X139715714Y-88447619D01*
X139668095Y-88400000D01*
X139572857Y-88352380D01*
X139334761Y-88352380D01*
X139191904Y-88400000D01*
X138858571Y-88352380D02*
X138620476Y-89352380D01*
X138430000Y-88638095D01*
X138239523Y-89352380D01*
X138001428Y-88352380D01*
X137096666Y-89352380D02*
X137668095Y-89352380D01*
X137382380Y-89352380D02*
X137382380Y-88352380D01*
X137477619Y-88495238D01*
X137572857Y-88590476D01*
X137668095Y-88638095D01*
%TO.C,SW2*%
X119443333Y-109624761D02*
X119300476Y-109672380D01*
X119062380Y-109672380D01*
X118967142Y-109624761D01*
X118919523Y-109577142D01*
X118871904Y-109481904D01*
X118871904Y-109386666D01*
X118919523Y-109291428D01*
X118967142Y-109243809D01*
X119062380Y-109196190D01*
X119252857Y-109148571D01*
X119348095Y-109100952D01*
X119395714Y-109053333D01*
X119443333Y-108958095D01*
X119443333Y-108862857D01*
X119395714Y-108767619D01*
X119348095Y-108720000D01*
X119252857Y-108672380D01*
X119014761Y-108672380D01*
X118871904Y-108720000D01*
X118538571Y-108672380D02*
X118300476Y-109672380D01*
X118110000Y-108958095D01*
X117919523Y-109672380D01*
X117681428Y-108672380D01*
X117348095Y-108767619D02*
X117300476Y-108720000D01*
X117205238Y-108672380D01*
X116967142Y-108672380D01*
X116871904Y-108720000D01*
X116824285Y-108767619D01*
X116776666Y-108862857D01*
X116776666Y-108958095D01*
X116824285Y-109100952D01*
X117395714Y-109672380D01*
X116776666Y-109672380D01*
%TO.C,SW3*%
X139763333Y-109624761D02*
X139620476Y-109672380D01*
X139382380Y-109672380D01*
X139287142Y-109624761D01*
X139239523Y-109577142D01*
X139191904Y-109481904D01*
X139191904Y-109386666D01*
X139239523Y-109291428D01*
X139287142Y-109243809D01*
X139382380Y-109196190D01*
X139572857Y-109148571D01*
X139668095Y-109100952D01*
X139715714Y-109053333D01*
X139763333Y-108958095D01*
X139763333Y-108862857D01*
X139715714Y-108767619D01*
X139668095Y-108720000D01*
X139572857Y-108672380D01*
X139334761Y-108672380D01*
X139191904Y-108720000D01*
X138858571Y-108672380D02*
X138620476Y-109672380D01*
X138430000Y-108958095D01*
X138239523Y-109672380D01*
X138001428Y-108672380D01*
X137715714Y-108672380D02*
X137096666Y-108672380D01*
X137430000Y-109053333D01*
X137287142Y-109053333D01*
X137191904Y-109100952D01*
X137144285Y-109148571D01*
X137096666Y-109243809D01*
X137096666Y-109481904D01*
X137144285Y-109577142D01*
X137191904Y-109624761D01*
X137287142Y-109672380D01*
X137572857Y-109672380D01*
X137668095Y-109624761D01*
X137715714Y-109577142D01*
%TO.C,SW4*%
X160083333Y-109624761D02*
X159940476Y-109672380D01*
X159702380Y-109672380D01*
X159607142Y-109624761D01*
X159559523Y-109577142D01*
X159511904Y-109481904D01*
X159511904Y-109386666D01*
X159559523Y-109291428D01*
X159607142Y-109243809D01*
X159702380Y-109196190D01*
X159892857Y-109148571D01*
X159988095Y-109100952D01*
X160035714Y-109053333D01*
X160083333Y-108958095D01*
X160083333Y-108862857D01*
X160035714Y-108767619D01*
X159988095Y-108720000D01*
X159892857Y-108672380D01*
X159654761Y-108672380D01*
X159511904Y-108720000D01*
X159178571Y-108672380D02*
X158940476Y-109672380D01*
X158750000Y-108958095D01*
X158559523Y-109672380D01*
X158321428Y-108672380D01*
X157511904Y-109005714D02*
X157511904Y-109672380D01*
X157750000Y-108624761D02*
X157988095Y-109339047D01*
X157369047Y-109339047D01*
%TD*%
M02*
