M48
; DRILL file {KiCad (5.1.12)-1} date 12/29/21 15:11:19
; FORMAT={-:-/ absolute / inch / decimal}
; #@! TF.CreationDate,2021-12-29T15:11:19-05:00
; #@! TF.GenerationSoftware,Kicad,Pcbnew,(5.1.12)-1
; #@! TF.FileFunction,NonPlated,1,2,NPTH
FMAT,2
INCH
T1C0.0670
T2C0.1181
T3C0.1260
T4C0.1570
%
G90
G05
T1
X4.3Y-3.975
X4.7Y-3.975
X5.1Y-3.175
X5.1Y-3.975
X5.5Y-3.175
X5.5Y-3.975
X5.9Y-3.975
X6.3Y-3.975
T2
X4.4Y-4.175
X4.65Y-4.075
X5.2Y-3.375
X5.2Y-4.175
X5.45Y-3.275
X5.45Y-4.075
X6.0Y-4.175
X6.25Y-4.075
T3
X4.225Y-2.75
X4.225Y-4.4
X6.375Y-2.75
X6.375Y-4.4
T4
X4.5Y-3.975
X5.3Y-3.175
X5.3Y-3.975
X6.1Y-3.975
T0
M30
