%TF.GenerationSoftware,KiCad,Pcbnew,(5.1.12)-1*%
%TF.CreationDate,2021-12-29T15:11:16-05:00*%
%TF.ProjectId,4keymacropad,346b6579-6d61-4637-926f-7061642e6b69,rev?*%
%TF.SameCoordinates,Original*%
%TF.FileFunction,Legend,Top*%
%TF.FilePolarity,Positive*%
%FSLAX46Y46*%
G04 Gerber Fmt 4.6, Leading zero omitted, Abs format (unit mm)*
G04 Created by KiCad (PCBNEW (5.1.12)-1) date 2021-12-29 15:11:16*
%MOMM*%
%LPD*%
G01*
G04 APERTURE LIST*
%ADD10C,0.150000*%
G04 APERTURE END LIST*
D10*
X105539166Y-76780380D02*
X105539166Y-75780380D01*
X105539166Y-76732761D02*
X105443928Y-76780380D01*
X105253452Y-76780380D01*
X105158214Y-76732761D01*
X105110595Y-76685142D01*
X105062976Y-76589904D01*
X105062976Y-76304190D01*
X105110595Y-76208952D01*
X105158214Y-76161333D01*
X105253452Y-76113714D01*
X105443928Y-76113714D01*
X105539166Y-76161333D01*
X106396309Y-76732761D02*
X106301071Y-76780380D01*
X106110595Y-76780380D01*
X106015357Y-76732761D01*
X105967738Y-76637523D01*
X105967738Y-76256571D01*
X106015357Y-76161333D01*
X106110595Y-76113714D01*
X106301071Y-76113714D01*
X106396309Y-76161333D01*
X106443928Y-76256571D01*
X106443928Y-76351809D01*
X105967738Y-76447047D01*
X106824880Y-76732761D02*
X106920119Y-76780380D01*
X107110595Y-76780380D01*
X107205833Y-76732761D01*
X107253452Y-76637523D01*
X107253452Y-76589904D01*
X107205833Y-76494666D01*
X107110595Y-76447047D01*
X106967738Y-76447047D01*
X106872500Y-76399428D01*
X106824880Y-76304190D01*
X106824880Y-76256571D01*
X106872500Y-76161333D01*
X106967738Y-76113714D01*
X107110595Y-76113714D01*
X107205833Y-76161333D01*
X107682023Y-76780380D02*
X107682023Y-76113714D01*
X107682023Y-75780380D02*
X107634404Y-75828000D01*
X107682023Y-75875619D01*
X107729642Y-75828000D01*
X107682023Y-75780380D01*
X107682023Y-75875619D01*
X108586785Y-76113714D02*
X108586785Y-76923238D01*
X108539166Y-77018476D01*
X108491547Y-77066095D01*
X108396309Y-77113714D01*
X108253452Y-77113714D01*
X108158214Y-77066095D01*
X108586785Y-76732761D02*
X108491547Y-76780380D01*
X108301071Y-76780380D01*
X108205833Y-76732761D01*
X108158214Y-76685142D01*
X108110595Y-76589904D01*
X108110595Y-76304190D01*
X108158214Y-76208952D01*
X108205833Y-76161333D01*
X108301071Y-76113714D01*
X108491547Y-76113714D01*
X108586785Y-76161333D01*
X109062976Y-76113714D02*
X109062976Y-76780380D01*
X109062976Y-76208952D02*
X109110595Y-76161333D01*
X109205833Y-76113714D01*
X109348690Y-76113714D01*
X109443928Y-76161333D01*
X109491547Y-76256571D01*
X109491547Y-76780380D01*
X110348690Y-76732761D02*
X110253452Y-76780380D01*
X110062976Y-76780380D01*
X109967738Y-76732761D01*
X109920119Y-76637523D01*
X109920119Y-76256571D01*
X109967738Y-76161333D01*
X110062976Y-76113714D01*
X110253452Y-76113714D01*
X110348690Y-76161333D01*
X110396309Y-76256571D01*
X110396309Y-76351809D01*
X109920119Y-76447047D01*
X111253452Y-76780380D02*
X111253452Y-75780380D01*
X111253452Y-76732761D02*
X111158214Y-76780380D01*
X110967738Y-76780380D01*
X110872500Y-76732761D01*
X110824880Y-76685142D01*
X110777261Y-76589904D01*
X110777261Y-76304190D01*
X110824880Y-76208952D01*
X110872500Y-76161333D01*
X110967738Y-76113714D01*
X111158214Y-76113714D01*
X111253452Y-76161333D01*
X112491547Y-76780380D02*
X112491547Y-75780380D01*
X112491547Y-76161333D02*
X112586785Y-76113714D01*
X112777261Y-76113714D01*
X112872500Y-76161333D01*
X112920119Y-76208952D01*
X112967738Y-76304190D01*
X112967738Y-76589904D01*
X112920119Y-76685142D01*
X112872500Y-76732761D01*
X112777261Y-76780380D01*
X112586785Y-76780380D01*
X112491547Y-76732761D01*
X113301071Y-76113714D02*
X113539166Y-76780380D01*
X113777261Y-76113714D02*
X113539166Y-76780380D01*
X113443928Y-77018476D01*
X113396309Y-77066095D01*
X113301071Y-77113714D01*
X114920119Y-76780380D02*
X114920119Y-75780380D01*
X115301071Y-75780380D01*
X115396309Y-75828000D01*
X115443928Y-75875619D01*
X115491547Y-75970857D01*
X115491547Y-76113714D01*
X115443928Y-76208952D01*
X115396309Y-76256571D01*
X115301071Y-76304190D01*
X114920119Y-76304190D01*
X116301071Y-76732761D02*
X116205833Y-76780380D01*
X116015357Y-76780380D01*
X115920119Y-76732761D01*
X115872500Y-76637523D01*
X115872500Y-76256571D01*
X115920119Y-76161333D01*
X116015357Y-76113714D01*
X116205833Y-76113714D01*
X116301071Y-76161333D01*
X116348690Y-76256571D01*
X116348690Y-76351809D01*
X115872500Y-76447047D01*
X116634404Y-76113714D02*
X117015357Y-76113714D01*
X116777261Y-75780380D02*
X116777261Y-76637523D01*
X116824880Y-76732761D01*
X116920119Y-76780380D01*
X117015357Y-76780380D01*
X117729642Y-76732761D02*
X117634404Y-76780380D01*
X117443928Y-76780380D01*
X117348690Y-76732761D01*
X117301071Y-76637523D01*
X117301071Y-76256571D01*
X117348690Y-76161333D01*
X117443928Y-76113714D01*
X117634404Y-76113714D01*
X117729642Y-76161333D01*
X117777261Y-76256571D01*
X117777261Y-76351809D01*
X117301071Y-76447047D01*
X118205833Y-76780380D02*
X118205833Y-76113714D01*
X118205833Y-76304190D02*
X118253452Y-76208952D01*
X118301071Y-76161333D01*
X118396309Y-76113714D01*
X118491547Y-76113714D01*
X119443928Y-75780380D02*
X120015357Y-75780380D01*
X119729642Y-76780380D02*
X119729642Y-75780380D01*
X120491547Y-76780380D02*
X120396309Y-76732761D01*
X120348690Y-76685142D01*
X120301071Y-76589904D01*
X120301071Y-76304190D01*
X120348690Y-76208952D01*
X120396309Y-76161333D01*
X120491547Y-76113714D01*
X120634404Y-76113714D01*
X120729642Y-76161333D01*
X120777261Y-76208952D01*
X120824880Y-76304190D01*
X120824880Y-76589904D01*
X120777261Y-76685142D01*
X120729642Y-76732761D01*
X120634404Y-76780380D01*
X120491547Y-76780380D01*
X105110595Y-78430380D02*
X105110595Y-77763714D01*
X105110595Y-77858952D02*
X105158214Y-77811333D01*
X105253452Y-77763714D01*
X105396309Y-77763714D01*
X105491547Y-77811333D01*
X105539166Y-77906571D01*
X105539166Y-78430380D01*
X105539166Y-77906571D02*
X105586785Y-77811333D01*
X105682023Y-77763714D01*
X105824880Y-77763714D01*
X105920119Y-77811333D01*
X105967738Y-77906571D01*
X105967738Y-78430380D01*
X106443928Y-78430380D02*
X106443928Y-77763714D01*
X106443928Y-77430380D02*
X106396309Y-77478000D01*
X106443928Y-77525619D01*
X106491547Y-77478000D01*
X106443928Y-77430380D01*
X106443928Y-77525619D01*
X106824880Y-78430380D02*
X107348690Y-77763714D01*
X106824880Y-77763714D02*
X107348690Y-78430380D01*
X107729642Y-77763714D02*
X107729642Y-78763714D01*
X107729642Y-77811333D02*
X107824880Y-77763714D01*
X108015357Y-77763714D01*
X108110595Y-77811333D01*
X108158214Y-77858952D01*
X108205833Y-77954190D01*
X108205833Y-78239904D01*
X108158214Y-78335142D01*
X108110595Y-78382761D01*
X108015357Y-78430380D01*
X107824880Y-78430380D01*
X107729642Y-78382761D01*
X109062976Y-78430380D02*
X109062976Y-77906571D01*
X109015357Y-77811333D01*
X108920119Y-77763714D01*
X108729642Y-77763714D01*
X108634404Y-77811333D01*
X109062976Y-78382761D02*
X108967738Y-78430380D01*
X108729642Y-78430380D01*
X108634404Y-78382761D01*
X108586785Y-78287523D01*
X108586785Y-78192285D01*
X108634404Y-78097047D01*
X108729642Y-78049428D01*
X108967738Y-78049428D01*
X109062976Y-78001809D01*
X109967738Y-78430380D02*
X109967738Y-77430380D01*
X109967738Y-78382761D02*
X109872500Y-78430380D01*
X109682023Y-78430380D01*
X109586785Y-78382761D01*
X109539166Y-78335142D01*
X109491547Y-78239904D01*
X109491547Y-77954190D01*
X109539166Y-77858952D01*
X109586785Y-77811333D01*
X109682023Y-77763714D01*
X109872500Y-77763714D01*
X109967738Y-77811333D01*
X111634404Y-78430380D02*
X111634404Y-77430380D01*
X111634404Y-78382761D02*
X111539166Y-78430380D01*
X111348690Y-78430380D01*
X111253452Y-78382761D01*
X111205833Y-78335142D01*
X111158214Y-78239904D01*
X111158214Y-77954190D01*
X111205833Y-77858952D01*
X111253452Y-77811333D01*
X111348690Y-77763714D01*
X111539166Y-77763714D01*
X111634404Y-77811333D01*
X112110595Y-77763714D02*
X112110595Y-78763714D01*
X112110595Y-77811333D02*
X112205833Y-77763714D01*
X112396309Y-77763714D01*
X112491547Y-77811333D01*
X112539166Y-77858952D01*
X112586785Y-77954190D01*
X112586785Y-78239904D01*
X112539166Y-78335142D01*
X112491547Y-78382761D01*
X112396309Y-78430380D01*
X112205833Y-78430380D01*
X112110595Y-78382761D01*
X113443928Y-78430380D02*
X113443928Y-77906571D01*
X113396309Y-77811333D01*
X113301071Y-77763714D01*
X113110595Y-77763714D01*
X113015357Y-77811333D01*
X113443928Y-78382761D02*
X113348690Y-78430380D01*
X113110595Y-78430380D01*
X113015357Y-78382761D01*
X112967738Y-78287523D01*
X112967738Y-78192285D01*
X113015357Y-78097047D01*
X113110595Y-78049428D01*
X113348690Y-78049428D01*
X113443928Y-78001809D01*
X114348690Y-78430380D02*
X114348690Y-77430380D01*
X114348690Y-78382761D02*
X114253452Y-78430380D01*
X114062976Y-78430380D01*
X113967738Y-78382761D01*
X113920119Y-78335142D01*
X113872500Y-78239904D01*
X113872500Y-77954190D01*
X113920119Y-77858952D01*
X113967738Y-77811333D01*
X114062976Y-77763714D01*
X114253452Y-77763714D01*
X114348690Y-77811333D01*
X115586785Y-78430380D02*
X115586785Y-77430380D01*
X115586785Y-77811333D02*
X115682023Y-77763714D01*
X115872500Y-77763714D01*
X115967738Y-77811333D01*
X116015357Y-77858952D01*
X116062976Y-77954190D01*
X116062976Y-78239904D01*
X116015357Y-78335142D01*
X115967738Y-78382761D01*
X115872500Y-78430380D01*
X115682023Y-78430380D01*
X115586785Y-78382761D01*
X116634404Y-78430380D02*
X116539166Y-78382761D01*
X116491547Y-78335142D01*
X116443928Y-78239904D01*
X116443928Y-77954190D01*
X116491547Y-77858952D01*
X116539166Y-77811333D01*
X116634404Y-77763714D01*
X116777261Y-77763714D01*
X116872500Y-77811333D01*
X116920119Y-77858952D01*
X116967738Y-77954190D01*
X116967738Y-78239904D01*
X116920119Y-78335142D01*
X116872500Y-78382761D01*
X116777261Y-78430380D01*
X116634404Y-78430380D01*
X117824880Y-78430380D02*
X117824880Y-77906571D01*
X117777261Y-77811333D01*
X117682023Y-77763714D01*
X117491547Y-77763714D01*
X117396309Y-77811333D01*
X117824880Y-78382761D02*
X117729642Y-78430380D01*
X117491547Y-78430380D01*
X117396309Y-78382761D01*
X117348690Y-78287523D01*
X117348690Y-78192285D01*
X117396309Y-78097047D01*
X117491547Y-78049428D01*
X117729642Y-78049428D01*
X117824880Y-78001809D01*
X118301071Y-78430380D02*
X118301071Y-77763714D01*
X118301071Y-77954190D02*
X118348690Y-77858952D01*
X118396309Y-77811333D01*
X118491547Y-77763714D01*
X118586785Y-77763714D01*
X119348690Y-78430380D02*
X119348690Y-77430380D01*
X119348690Y-78382761D02*
X119253452Y-78430380D01*
X119062976Y-78430380D01*
X118967738Y-78382761D01*
X118920119Y-78335142D01*
X118872500Y-78239904D01*
X118872500Y-77954190D01*
X118920119Y-77858952D01*
X118967738Y-77811333D01*
X119062976Y-77763714D01*
X119253452Y-77763714D01*
X119348690Y-77811333D01*
X105110595Y-80080380D02*
X105110595Y-79080380D01*
X105443928Y-79794666D01*
X105777261Y-79080380D01*
X105777261Y-80080380D01*
X106158214Y-79080380D02*
X106824880Y-80080380D01*
X106824880Y-79080380D02*
X106158214Y-80080380D01*
X107729642Y-80080380D02*
X107158214Y-80080380D01*
X107443928Y-80080380D02*
X107443928Y-79080380D01*
X107348690Y-79223238D01*
X107253452Y-79318476D01*
X107158214Y-79366095D01*
X148683214Y-72650000D02*
X148611785Y-72614285D01*
X148504642Y-72614285D01*
X148397500Y-72650000D01*
X148326071Y-72721428D01*
X148290357Y-72792857D01*
X148254642Y-72935714D01*
X148254642Y-73042857D01*
X148290357Y-73185714D01*
X148326071Y-73257142D01*
X148397500Y-73328571D01*
X148504642Y-73364285D01*
X148576071Y-73364285D01*
X148683214Y-73328571D01*
X148718928Y-73292857D01*
X148718928Y-73042857D01*
X148576071Y-73042857D01*
X149040357Y-73364285D02*
X149040357Y-72614285D01*
X149468928Y-73364285D01*
X149468928Y-72614285D01*
X149826071Y-73364285D02*
X149826071Y-72614285D01*
X150004642Y-72614285D01*
X150111785Y-72650000D01*
X150183214Y-72721428D01*
X150218928Y-72792857D01*
X150254642Y-72935714D01*
X150254642Y-73042857D01*
X150218928Y-73185714D01*
X150183214Y-73257142D01*
X150111785Y-73328571D01*
X150004642Y-73364285D01*
X149826071Y-73364285D01*
X159020000Y-89239285D02*
X158770000Y-88882142D01*
X158591428Y-89239285D02*
X158591428Y-88489285D01*
X158877142Y-88489285D01*
X158948571Y-88525000D01*
X158984285Y-88560714D01*
X159020000Y-88632142D01*
X159020000Y-88739285D01*
X158984285Y-88810714D01*
X158948571Y-88846428D01*
X158877142Y-88882142D01*
X158591428Y-88882142D01*
X159341428Y-89239285D02*
X159341428Y-88489285D01*
X160091428Y-88525000D02*
X160020000Y-88489285D01*
X159912857Y-88489285D01*
X159805714Y-88525000D01*
X159734285Y-88596428D01*
X159698571Y-88667857D01*
X159662857Y-88810714D01*
X159662857Y-88917857D01*
X159698571Y-89060714D01*
X159734285Y-89132142D01*
X159805714Y-89203571D01*
X159912857Y-89239285D01*
X159984285Y-89239285D01*
X160091428Y-89203571D01*
X160127142Y-89167857D01*
X160127142Y-88917857D01*
X159984285Y-88917857D01*
X160448571Y-89239285D02*
X160448571Y-88489285D01*
X160448571Y-88846428D02*
X160877142Y-88846428D01*
X160877142Y-89239285D02*
X160877142Y-88489285D01*
X161127142Y-88489285D02*
X161555714Y-88489285D01*
X161341428Y-89239285D02*
X161341428Y-88489285D01*
X151207500Y-81619285D02*
X151207500Y-80869285D01*
X151386071Y-80869285D01*
X151493214Y-80905000D01*
X151564642Y-80976428D01*
X151600357Y-81047857D01*
X151636071Y-81190714D01*
X151636071Y-81297857D01*
X151600357Y-81440714D01*
X151564642Y-81512142D01*
X151493214Y-81583571D01*
X151386071Y-81619285D01*
X151207500Y-81619285D01*
X152100357Y-80869285D02*
X152243214Y-80869285D01*
X152314642Y-80905000D01*
X152386071Y-80976428D01*
X152421785Y-81119285D01*
X152421785Y-81369285D01*
X152386071Y-81512142D01*
X152314642Y-81583571D01*
X152243214Y-81619285D01*
X152100357Y-81619285D01*
X152028928Y-81583571D01*
X151957500Y-81512142D01*
X151921785Y-81369285D01*
X151921785Y-81119285D01*
X151957500Y-80976428D01*
X152028928Y-80905000D01*
X152100357Y-80869285D01*
X152671785Y-80869285D02*
X152850357Y-81619285D01*
X152993214Y-81083571D01*
X153136071Y-81619285D01*
X153314642Y-80869285D01*
X153600357Y-81619285D02*
X153600357Y-80869285D01*
X154028928Y-81619285D01*
X154028928Y-80869285D01*
X148433214Y-79714285D02*
X148076071Y-79714285D01*
X148076071Y-78964285D01*
X148683214Y-79321428D02*
X148933214Y-79321428D01*
X149040357Y-79714285D02*
X148683214Y-79714285D01*
X148683214Y-78964285D01*
X149040357Y-78964285D01*
X149611785Y-79321428D02*
X149361785Y-79321428D01*
X149361785Y-79714285D02*
X149361785Y-78964285D01*
X149718928Y-78964285D01*
X149897500Y-78964285D02*
X150326071Y-78964285D01*
X150111785Y-79714285D02*
X150111785Y-78964285D01*
X148405357Y-77059285D02*
X148405357Y-77666428D01*
X148441071Y-77737857D01*
X148476785Y-77773571D01*
X148548214Y-77809285D01*
X148691071Y-77809285D01*
X148762500Y-77773571D01*
X148798214Y-77737857D01*
X148833928Y-77666428D01*
X148833928Y-77059285D01*
X149191071Y-77809285D02*
X149191071Y-77059285D01*
X149476785Y-77059285D01*
X149548214Y-77095000D01*
X149583928Y-77130714D01*
X149619642Y-77202142D01*
X149619642Y-77309285D01*
X149583928Y-77380714D01*
X149548214Y-77416428D01*
X149476785Y-77452142D01*
X149191071Y-77452142D01*
%TO.C,SW1*%
X141620000Y-73645000D02*
X141620000Y-74645000D01*
X140620000Y-87645000D02*
X141620000Y-87645000D01*
X141620000Y-73645000D02*
X140620000Y-73645000D01*
X141620000Y-86645000D02*
X141620000Y-87645000D01*
X127620000Y-87645000D02*
X127620000Y-86645000D01*
X128620000Y-73645000D02*
X127620000Y-73645000D01*
X127620000Y-87645000D02*
X128620000Y-87645000D01*
X127620000Y-74645000D02*
X127620000Y-73645000D01*
%TO.C,SW2*%
X107300000Y-94965000D02*
X107300000Y-93965000D01*
X107300000Y-107965000D02*
X108300000Y-107965000D01*
X108300000Y-93965000D02*
X107300000Y-93965000D01*
X107300000Y-107965000D02*
X107300000Y-106965000D01*
X121300000Y-106965000D02*
X121300000Y-107965000D01*
X121300000Y-93965000D02*
X120300000Y-93965000D01*
X120300000Y-107965000D02*
X121300000Y-107965000D01*
X121300000Y-93965000D02*
X121300000Y-94965000D01*
%TO.C,SW3*%
X127620000Y-94965000D02*
X127620000Y-93965000D01*
X127620000Y-107965000D02*
X128620000Y-107965000D01*
X128620000Y-93965000D02*
X127620000Y-93965000D01*
X127620000Y-107965000D02*
X127620000Y-106965000D01*
X141620000Y-106965000D02*
X141620000Y-107965000D01*
X141620000Y-93965000D02*
X140620000Y-93965000D01*
X140620000Y-107965000D02*
X141620000Y-107965000D01*
X141620000Y-93965000D02*
X141620000Y-94965000D01*
%TO.C,SW4*%
X161940000Y-93965000D02*
X161940000Y-94965000D01*
X160940000Y-107965000D02*
X161940000Y-107965000D01*
X161940000Y-93965000D02*
X160940000Y-93965000D01*
X161940000Y-106965000D02*
X161940000Y-107965000D01*
X147940000Y-107965000D02*
X147940000Y-106965000D01*
X148940000Y-93965000D02*
X147940000Y-93965000D01*
X147940000Y-107965000D02*
X148940000Y-107965000D01*
X147940000Y-94965000D02*
X147940000Y-93965000D01*
%TO.C,SW1*%
X133286666Y-72794761D02*
X133429523Y-72842380D01*
X133667619Y-72842380D01*
X133762857Y-72794761D01*
X133810476Y-72747142D01*
X133858095Y-72651904D01*
X133858095Y-72556666D01*
X133810476Y-72461428D01*
X133762857Y-72413809D01*
X133667619Y-72366190D01*
X133477142Y-72318571D01*
X133381904Y-72270952D01*
X133334285Y-72223333D01*
X133286666Y-72128095D01*
X133286666Y-72032857D01*
X133334285Y-71937619D01*
X133381904Y-71890000D01*
X133477142Y-71842380D01*
X133715238Y-71842380D01*
X133858095Y-71890000D01*
X134191428Y-71842380D02*
X134429523Y-72842380D01*
X134620000Y-72128095D01*
X134810476Y-72842380D01*
X135048571Y-71842380D01*
X135953333Y-72842380D02*
X135381904Y-72842380D01*
X135667619Y-72842380D02*
X135667619Y-71842380D01*
X135572380Y-71985238D01*
X135477142Y-72080476D01*
X135381904Y-72128095D01*
%TO.C,SW2*%
X112966666Y-93114761D02*
X113109523Y-93162380D01*
X113347619Y-93162380D01*
X113442857Y-93114761D01*
X113490476Y-93067142D01*
X113538095Y-92971904D01*
X113538095Y-92876666D01*
X113490476Y-92781428D01*
X113442857Y-92733809D01*
X113347619Y-92686190D01*
X113157142Y-92638571D01*
X113061904Y-92590952D01*
X113014285Y-92543333D01*
X112966666Y-92448095D01*
X112966666Y-92352857D01*
X113014285Y-92257619D01*
X113061904Y-92210000D01*
X113157142Y-92162380D01*
X113395238Y-92162380D01*
X113538095Y-92210000D01*
X113871428Y-92162380D02*
X114109523Y-93162380D01*
X114300000Y-92448095D01*
X114490476Y-93162380D01*
X114728571Y-92162380D01*
X115061904Y-92257619D02*
X115109523Y-92210000D01*
X115204761Y-92162380D01*
X115442857Y-92162380D01*
X115538095Y-92210000D01*
X115585714Y-92257619D01*
X115633333Y-92352857D01*
X115633333Y-92448095D01*
X115585714Y-92590952D01*
X115014285Y-93162380D01*
X115633333Y-93162380D01*
%TO.C,SW3*%
X133286666Y-93114761D02*
X133429523Y-93162380D01*
X133667619Y-93162380D01*
X133762857Y-93114761D01*
X133810476Y-93067142D01*
X133858095Y-92971904D01*
X133858095Y-92876666D01*
X133810476Y-92781428D01*
X133762857Y-92733809D01*
X133667619Y-92686190D01*
X133477142Y-92638571D01*
X133381904Y-92590952D01*
X133334285Y-92543333D01*
X133286666Y-92448095D01*
X133286666Y-92352857D01*
X133334285Y-92257619D01*
X133381904Y-92210000D01*
X133477142Y-92162380D01*
X133715238Y-92162380D01*
X133858095Y-92210000D01*
X134191428Y-92162380D02*
X134429523Y-93162380D01*
X134620000Y-92448095D01*
X134810476Y-93162380D01*
X135048571Y-92162380D01*
X135334285Y-92162380D02*
X135953333Y-92162380D01*
X135620000Y-92543333D01*
X135762857Y-92543333D01*
X135858095Y-92590952D01*
X135905714Y-92638571D01*
X135953333Y-92733809D01*
X135953333Y-92971904D01*
X135905714Y-93067142D01*
X135858095Y-93114761D01*
X135762857Y-93162380D01*
X135477142Y-93162380D01*
X135381904Y-93114761D01*
X135334285Y-93067142D01*
%TO.C,SW4*%
X153606666Y-93114761D02*
X153749523Y-93162380D01*
X153987619Y-93162380D01*
X154082857Y-93114761D01*
X154130476Y-93067142D01*
X154178095Y-92971904D01*
X154178095Y-92876666D01*
X154130476Y-92781428D01*
X154082857Y-92733809D01*
X153987619Y-92686190D01*
X153797142Y-92638571D01*
X153701904Y-92590952D01*
X153654285Y-92543333D01*
X153606666Y-92448095D01*
X153606666Y-92352857D01*
X153654285Y-92257619D01*
X153701904Y-92210000D01*
X153797142Y-92162380D01*
X154035238Y-92162380D01*
X154178095Y-92210000D01*
X154511428Y-92162380D02*
X154749523Y-93162380D01*
X154940000Y-92448095D01*
X155130476Y-93162380D01*
X155368571Y-92162380D01*
X156178095Y-92495714D02*
X156178095Y-93162380D01*
X155940000Y-92114761D02*
X155701904Y-92829047D01*
X156320952Y-92829047D01*
%TD*%
M02*
