%TF.GenerationSoftware,KiCad,Pcbnew,(5.1.12)-1*%
%TF.CreationDate,2021-12-29T15:11:16-05:00*%
%TF.ProjectId,4keymacropad,346b6579-6d61-4637-926f-7061642e6b69,rev?*%
%TF.SameCoordinates,Original*%
%TF.FileFunction,Copper,L1,Top*%
%TF.FilePolarity,Positive*%
%FSLAX46Y46*%
G04 Gerber Fmt 4.6, Leading zero omitted, Abs format (unit mm)*
G04 Created by KiCad (PCBNEW (5.1.12)-1) date 2021-12-29 15:11:16*
%MOMM*%
%LPD*%
G01*
G04 APERTURE LIST*
%TA.AperFunction,ComponentPad*%
%ADD10O,1.750000X1.200000*%
%TD*%
%TA.AperFunction,ComponentPad*%
%ADD11C,2.286000*%
%TD*%
%TA.AperFunction,Conductor*%
%ADD12C,0.250000*%
%TD*%
%TA.AperFunction,Conductor*%
%ADD13C,0.254000*%
%TD*%
%TA.AperFunction,Conductor*%
%ADD14C,0.100000*%
%TD*%
G04 APERTURE END LIST*
%TO.P,J1,1*%
%TO.N,GND*%
%TA.AperFunction,ComponentPad*%
G36*
G01*
X157489999Y-75600000D02*
X158740001Y-75600000D01*
G75*
G02*
X158990000Y-75849999I0J-249999D01*
G01*
X158990000Y-76550001D01*
G75*
G02*
X158740001Y-76800000I-249999J0D01*
G01*
X157489999Y-76800000D01*
G75*
G02*
X157240000Y-76550001I0J249999D01*
G01*
X157240000Y-75849999D01*
G75*
G02*
X157489999Y-75600000I249999J0D01*
G01*
G37*
%TD.AperFunction*%
D10*
%TO.P,J1,2*%
%TO.N,Net-(J1-Pad2)*%
X158115000Y-78200000D03*
%TO.P,J1,3*%
%TO.N,Net-(J1-Pad3)*%
X158115000Y-80200000D03*
%TO.P,J1,4*%
%TO.N,Net-(J1-Pad4)*%
X158115000Y-82200000D03*
%TO.P,J1,5*%
%TO.N,Net-(J1-Pad5)*%
X158115000Y-84200000D03*
%TD*%
D11*
%TO.P,SW1,1*%
%TO.N,Net-(J1-Pad2)*%
X137160000Y-75565000D03*
%TO.P,SW1,2*%
%TO.N,GND*%
X130810000Y-78105000D03*
%TD*%
%TO.P,SW2,2*%
%TO.N,GND*%
X110490000Y-98425000D03*
%TO.P,SW2,1*%
%TO.N,Net-(J1-Pad3)*%
X116840000Y-95885000D03*
%TD*%
%TO.P,SW3,2*%
%TO.N,GND*%
X130810000Y-98425000D03*
%TO.P,SW3,1*%
%TO.N,Net-(J1-Pad4)*%
X137160000Y-95885000D03*
%TD*%
%TO.P,SW4,1*%
%TO.N,Net-(J1-Pad5)*%
X157480000Y-95885000D03*
%TO.P,SW4,2*%
%TO.N,GND*%
X151130000Y-98425000D03*
%TD*%
D12*
%TO.N,GND*%
X135405002Y-73660000D02*
X130885001Y-78180001D01*
X110490000Y-97019368D02*
X110490000Y-98425000D01*
X129329367Y-78180001D02*
X110490000Y-97019368D01*
X130885001Y-78180001D02*
X129329367Y-78180001D01*
X110490000Y-98425000D02*
X130810000Y-98425000D01*
X151040002Y-98425000D02*
X151085001Y-98380001D01*
X130810000Y-98425000D02*
X151040002Y-98425000D01*
X158211410Y-76200000D02*
X158115000Y-76200000D01*
X158565010Y-75846400D02*
X158211410Y-76200000D01*
X155575000Y-73660000D02*
X135405002Y-73660000D01*
X158115000Y-76200000D02*
X155575000Y-73660000D01*
%TO.N,Net-(J1-Pad2)*%
X136430000Y-74835000D02*
X137235001Y-75640001D01*
X137255000Y-75660000D02*
X137235001Y-75640001D01*
X139795000Y-78200000D02*
X137235001Y-75640001D01*
X158115000Y-78200000D02*
X139795000Y-78200000D01*
%TO.N,Net-(J1-Pad3)*%
X143510000Y-83820000D02*
X143510000Y-83820000D01*
X147130000Y-80200000D02*
X143510000Y-83820000D01*
X158115000Y-80200000D02*
X147130000Y-80200000D01*
X128905000Y-83820000D02*
X116840000Y-95885000D01*
X143510000Y-83820000D02*
X128905000Y-83820000D01*
%TO.N,Net-(J1-Pad5)*%
X157480000Y-95795002D02*
X157435001Y-95840001D01*
%TO.N,Net-(J1-Pad4)*%
X157480000Y-82550000D02*
X157480000Y-82295000D01*
X150845000Y-82200000D02*
X137160000Y-95885000D01*
X158115000Y-82200000D02*
X150845000Y-82200000D01*
%TO.N,Net-(J1-Pad5)*%
X158115000Y-95160002D02*
X157435001Y-95840001D01*
X158115000Y-84200000D02*
X158115000Y-95160002D01*
%TD*%
D13*
%TO.N,GND*%
X163841875Y-64697234D02*
X164097622Y-64774448D01*
X164333504Y-64899869D01*
X164540530Y-65068716D01*
X164710813Y-65274554D01*
X164837879Y-65509556D01*
X164916876Y-65764756D01*
X164948001Y-66060891D01*
X164948000Y-115537721D01*
X164923603Y-115786540D01*
X164860717Y-115994830D01*
X164758572Y-116186938D01*
X164621052Y-116355554D01*
X164453409Y-116494240D01*
X164262017Y-116597725D01*
X164054166Y-116662066D01*
X163807419Y-116688000D01*
X105188279Y-116688000D01*
X104939460Y-116663603D01*
X104731170Y-116600717D01*
X104539062Y-116498572D01*
X104370446Y-116361052D01*
X104231760Y-116193409D01*
X104128275Y-116002017D01*
X104063934Y-115794166D01*
X104038000Y-115547419D01*
X104038000Y-111539872D01*
X105080000Y-111539872D01*
X105080000Y-111980128D01*
X105165890Y-112411925D01*
X105334369Y-112818669D01*
X105578962Y-113184729D01*
X105890271Y-113496038D01*
X106256331Y-113740631D01*
X106663075Y-113909110D01*
X107094872Y-113995000D01*
X107535128Y-113995000D01*
X107966925Y-113909110D01*
X108373669Y-113740631D01*
X108739729Y-113496038D01*
X109051038Y-113184729D01*
X109295631Y-112818669D01*
X109464110Y-112411925D01*
X109550000Y-111980128D01*
X109550000Y-111539872D01*
X159690000Y-111539872D01*
X159690000Y-111980128D01*
X159775890Y-112411925D01*
X159944369Y-112818669D01*
X160188962Y-113184729D01*
X160500271Y-113496038D01*
X160866331Y-113740631D01*
X161273075Y-113909110D01*
X161704872Y-113995000D01*
X162145128Y-113995000D01*
X162576925Y-113909110D01*
X162983669Y-113740631D01*
X163349729Y-113496038D01*
X163661038Y-113184729D01*
X163905631Y-112818669D01*
X164074110Y-112411925D01*
X164160000Y-111980128D01*
X164160000Y-111539872D01*
X164074110Y-111108075D01*
X163905631Y-110701331D01*
X163661038Y-110335271D01*
X163349729Y-110023962D01*
X162983669Y-109779369D01*
X162576925Y-109610890D01*
X162145128Y-109525000D01*
X161704872Y-109525000D01*
X161273075Y-109610890D01*
X160866331Y-109779369D01*
X160500271Y-110023962D01*
X160188962Y-110335271D01*
X159944369Y-110701331D01*
X159775890Y-111108075D01*
X159690000Y-111539872D01*
X109550000Y-111539872D01*
X109464110Y-111108075D01*
X109295631Y-110701331D01*
X109051038Y-110335271D01*
X108739729Y-110023962D01*
X108373669Y-109779369D01*
X107966925Y-109610890D01*
X107535128Y-109525000D01*
X107094872Y-109525000D01*
X106663075Y-109610890D01*
X106256331Y-109779369D01*
X105890271Y-110023962D01*
X105578962Y-110335271D01*
X105334369Y-110701331D01*
X105165890Y-111108075D01*
X105080000Y-111539872D01*
X104038000Y-111539872D01*
X104038000Y-105834721D01*
X109625000Y-105834721D01*
X109625000Y-106255279D01*
X109707047Y-106667756D01*
X109867988Y-107056302D01*
X110101637Y-107405983D01*
X110399017Y-107703363D01*
X110748698Y-107937012D01*
X111137244Y-108097953D01*
X111549721Y-108180000D01*
X111970279Y-108180000D01*
X112382756Y-108097953D01*
X112771302Y-107937012D01*
X113120983Y-107703363D01*
X113418363Y-107405983D01*
X113652012Y-107056302D01*
X113812953Y-106667756D01*
X113895000Y-106255279D01*
X113895000Y-105834721D01*
X129945000Y-105834721D01*
X129945000Y-106255279D01*
X130027047Y-106667756D01*
X130187988Y-107056302D01*
X130421637Y-107405983D01*
X130719017Y-107703363D01*
X131068698Y-107937012D01*
X131457244Y-108097953D01*
X131869721Y-108180000D01*
X132290279Y-108180000D01*
X132702756Y-108097953D01*
X133091302Y-107937012D01*
X133440983Y-107703363D01*
X133738363Y-107405983D01*
X133972012Y-107056302D01*
X134132953Y-106667756D01*
X134215000Y-106255279D01*
X134215000Y-105834721D01*
X150265000Y-105834721D01*
X150265000Y-106255279D01*
X150347047Y-106667756D01*
X150507988Y-107056302D01*
X150741637Y-107405983D01*
X151039017Y-107703363D01*
X151388698Y-107937012D01*
X151777244Y-108097953D01*
X152189721Y-108180000D01*
X152610279Y-108180000D01*
X153022756Y-108097953D01*
X153411302Y-107937012D01*
X153760983Y-107703363D01*
X154058363Y-107405983D01*
X154292012Y-107056302D01*
X154452953Y-106667756D01*
X154535000Y-106255279D01*
X154535000Y-105834721D01*
X154452953Y-105422244D01*
X154292012Y-105033698D01*
X154058363Y-104684017D01*
X153760983Y-104386637D01*
X153411302Y-104152988D01*
X153022756Y-103992047D01*
X152610279Y-103910000D01*
X152189721Y-103910000D01*
X151777244Y-103992047D01*
X151388698Y-104152988D01*
X151039017Y-104386637D01*
X150741637Y-104684017D01*
X150507988Y-105033698D01*
X150347047Y-105422244D01*
X150265000Y-105834721D01*
X134215000Y-105834721D01*
X134132953Y-105422244D01*
X133972012Y-105033698D01*
X133738363Y-104684017D01*
X133440983Y-104386637D01*
X133091302Y-104152988D01*
X132702756Y-103992047D01*
X132290279Y-103910000D01*
X131869721Y-103910000D01*
X131457244Y-103992047D01*
X131068698Y-104152988D01*
X130719017Y-104386637D01*
X130421637Y-104684017D01*
X130187988Y-105033698D01*
X130027047Y-105422244D01*
X129945000Y-105834721D01*
X113895000Y-105834721D01*
X113812953Y-105422244D01*
X113652012Y-105033698D01*
X113418363Y-104684017D01*
X113120983Y-104386637D01*
X112771302Y-104152988D01*
X112382756Y-103992047D01*
X111970279Y-103910000D01*
X111549721Y-103910000D01*
X111137244Y-103992047D01*
X110748698Y-104152988D01*
X110399017Y-104386637D01*
X110101637Y-104684017D01*
X109867988Y-105033698D01*
X109707047Y-105422244D01*
X109625000Y-105834721D01*
X104038000Y-105834721D01*
X104038000Y-100818652D01*
X107734100Y-100818652D01*
X107734100Y-101111348D01*
X107791202Y-101398421D01*
X107903212Y-101668838D01*
X108065826Y-101912206D01*
X108272794Y-102119174D01*
X108516162Y-102281788D01*
X108786579Y-102393798D01*
X109073652Y-102450900D01*
X109366348Y-102450900D01*
X109653421Y-102393798D01*
X109923838Y-102281788D01*
X110167206Y-102119174D01*
X110374174Y-101912206D01*
X110536788Y-101668838D01*
X110648798Y-101398421D01*
X110705900Y-101111348D01*
X110705900Y-100818652D01*
X110683508Y-100706076D01*
X111671100Y-100706076D01*
X111671100Y-101223924D01*
X111772127Y-101731822D01*
X111970299Y-102210251D01*
X112258000Y-102640826D01*
X112624174Y-103007000D01*
X113054749Y-103294701D01*
X113533178Y-103492873D01*
X114041076Y-103593900D01*
X114558924Y-103593900D01*
X115066822Y-103492873D01*
X115545251Y-103294701D01*
X115975826Y-103007000D01*
X116046237Y-102936589D01*
X115975000Y-103294721D01*
X115975000Y-103715279D01*
X116057047Y-104127756D01*
X116217988Y-104516302D01*
X116451637Y-104865983D01*
X116749017Y-105163363D01*
X117098698Y-105397012D01*
X117487244Y-105557953D01*
X117899721Y-105640000D01*
X118320279Y-105640000D01*
X118732756Y-105557953D01*
X119121302Y-105397012D01*
X119470983Y-105163363D01*
X119768363Y-104865983D01*
X120002012Y-104516302D01*
X120162953Y-104127756D01*
X120245000Y-103715279D01*
X120245000Y-103294721D01*
X120162953Y-102882244D01*
X120002012Y-102493698D01*
X119908850Y-102354270D01*
X120083838Y-102281788D01*
X120327206Y-102119174D01*
X120534174Y-101912206D01*
X120696788Y-101668838D01*
X120808798Y-101398421D01*
X120865900Y-101111348D01*
X120865900Y-100818652D01*
X128054100Y-100818652D01*
X128054100Y-101111348D01*
X128111202Y-101398421D01*
X128223212Y-101668838D01*
X128385826Y-101912206D01*
X128592794Y-102119174D01*
X128836162Y-102281788D01*
X129106579Y-102393798D01*
X129393652Y-102450900D01*
X129686348Y-102450900D01*
X129973421Y-102393798D01*
X130243838Y-102281788D01*
X130487206Y-102119174D01*
X130694174Y-101912206D01*
X130856788Y-101668838D01*
X130968798Y-101398421D01*
X131025900Y-101111348D01*
X131025900Y-100818652D01*
X131003508Y-100706076D01*
X131991100Y-100706076D01*
X131991100Y-101223924D01*
X132092127Y-101731822D01*
X132290299Y-102210251D01*
X132578000Y-102640826D01*
X132944174Y-103007000D01*
X133374749Y-103294701D01*
X133853178Y-103492873D01*
X134361076Y-103593900D01*
X134878924Y-103593900D01*
X135386822Y-103492873D01*
X135865251Y-103294701D01*
X136295826Y-103007000D01*
X136366237Y-102936589D01*
X136295000Y-103294721D01*
X136295000Y-103715279D01*
X136377047Y-104127756D01*
X136537988Y-104516302D01*
X136771637Y-104865983D01*
X137069017Y-105163363D01*
X137418698Y-105397012D01*
X137807244Y-105557953D01*
X138219721Y-105640000D01*
X138640279Y-105640000D01*
X139052756Y-105557953D01*
X139441302Y-105397012D01*
X139790983Y-105163363D01*
X140088363Y-104865983D01*
X140322012Y-104516302D01*
X140482953Y-104127756D01*
X140565000Y-103715279D01*
X140565000Y-103294721D01*
X140482953Y-102882244D01*
X140322012Y-102493698D01*
X140228850Y-102354270D01*
X140403838Y-102281788D01*
X140647206Y-102119174D01*
X140854174Y-101912206D01*
X141016788Y-101668838D01*
X141128798Y-101398421D01*
X141185900Y-101111348D01*
X141185900Y-100818652D01*
X148374100Y-100818652D01*
X148374100Y-101111348D01*
X148431202Y-101398421D01*
X148543212Y-101668838D01*
X148705826Y-101912206D01*
X148912794Y-102119174D01*
X149156162Y-102281788D01*
X149426579Y-102393798D01*
X149713652Y-102450900D01*
X150006348Y-102450900D01*
X150293421Y-102393798D01*
X150563838Y-102281788D01*
X150807206Y-102119174D01*
X151014174Y-101912206D01*
X151176788Y-101668838D01*
X151288798Y-101398421D01*
X151345900Y-101111348D01*
X151345900Y-100818652D01*
X151323508Y-100706076D01*
X152311100Y-100706076D01*
X152311100Y-101223924D01*
X152412127Y-101731822D01*
X152610299Y-102210251D01*
X152898000Y-102640826D01*
X153264174Y-103007000D01*
X153694749Y-103294701D01*
X154173178Y-103492873D01*
X154681076Y-103593900D01*
X155198924Y-103593900D01*
X155706822Y-103492873D01*
X156185251Y-103294701D01*
X156615826Y-103007000D01*
X156686237Y-102936589D01*
X156615000Y-103294721D01*
X156615000Y-103715279D01*
X156697047Y-104127756D01*
X156857988Y-104516302D01*
X157091637Y-104865983D01*
X157389017Y-105163363D01*
X157738698Y-105397012D01*
X158127244Y-105557953D01*
X158539721Y-105640000D01*
X158960279Y-105640000D01*
X159372756Y-105557953D01*
X159761302Y-105397012D01*
X160110983Y-105163363D01*
X160408363Y-104865983D01*
X160642012Y-104516302D01*
X160802953Y-104127756D01*
X160885000Y-103715279D01*
X160885000Y-103294721D01*
X160802953Y-102882244D01*
X160642012Y-102493698D01*
X160548850Y-102354270D01*
X160723838Y-102281788D01*
X160967206Y-102119174D01*
X161174174Y-101912206D01*
X161336788Y-101668838D01*
X161448798Y-101398421D01*
X161505900Y-101111348D01*
X161505900Y-100818652D01*
X161448798Y-100531579D01*
X161336788Y-100261162D01*
X161174174Y-100017794D01*
X160967206Y-99810826D01*
X160723838Y-99648212D01*
X160453421Y-99536202D01*
X160166348Y-99479100D01*
X159873652Y-99479100D01*
X159586579Y-99536202D01*
X159316162Y-99648212D01*
X159072794Y-99810826D01*
X158865826Y-100017794D01*
X158703212Y-100261162D01*
X158591202Y-100531579D01*
X158534100Y-100818652D01*
X158534100Y-101111348D01*
X158585549Y-101370000D01*
X158539721Y-101370000D01*
X158127244Y-101452047D01*
X157738698Y-101612988D01*
X157432292Y-101817721D01*
X157467873Y-101731822D01*
X157568900Y-101223924D01*
X157568900Y-100706076D01*
X157467873Y-100198178D01*
X157269701Y-99719749D01*
X156982000Y-99289174D01*
X156615826Y-98923000D01*
X156185251Y-98635299D01*
X155706822Y-98437127D01*
X155198924Y-98336100D01*
X154681076Y-98336100D01*
X154173178Y-98437127D01*
X153694749Y-98635299D01*
X153264174Y-98923000D01*
X152898000Y-99289174D01*
X152610299Y-99719749D01*
X152412127Y-100198178D01*
X152311100Y-100706076D01*
X151323508Y-100706076D01*
X151288798Y-100531579D01*
X151176788Y-100261162D01*
X151141030Y-100207646D01*
X151186938Y-100210694D01*
X151534216Y-100165275D01*
X151865960Y-100052977D01*
X152074736Y-99941384D01*
X152187755Y-99662360D01*
X151130000Y-98604605D01*
X151115858Y-98618748D01*
X150936253Y-98439143D01*
X150950395Y-98425000D01*
X151309605Y-98425000D01*
X152367360Y-99482755D01*
X152646384Y-99369736D01*
X152801556Y-99055751D01*
X152892491Y-98717527D01*
X152915694Y-98368062D01*
X152870275Y-98020784D01*
X152757977Y-97689040D01*
X152646384Y-97480264D01*
X152367360Y-97367245D01*
X151309605Y-98425000D01*
X150950395Y-98425000D01*
X149892640Y-97367245D01*
X149613616Y-97480264D01*
X149458444Y-97794249D01*
X149367509Y-98132473D01*
X149344306Y-98481938D01*
X149389725Y-98829216D01*
X149502023Y-99160960D01*
X149613616Y-99369736D01*
X149883616Y-99479100D01*
X149713652Y-99479100D01*
X149426579Y-99536202D01*
X149156162Y-99648212D01*
X148912794Y-99810826D01*
X148705826Y-100017794D01*
X148543212Y-100261162D01*
X148431202Y-100531579D01*
X148374100Y-100818652D01*
X141185900Y-100818652D01*
X141128798Y-100531579D01*
X141016788Y-100261162D01*
X140854174Y-100017794D01*
X140647206Y-99810826D01*
X140403838Y-99648212D01*
X140133421Y-99536202D01*
X139846348Y-99479100D01*
X139553652Y-99479100D01*
X139266579Y-99536202D01*
X138996162Y-99648212D01*
X138752794Y-99810826D01*
X138545826Y-100017794D01*
X138383212Y-100261162D01*
X138271202Y-100531579D01*
X138214100Y-100818652D01*
X138214100Y-101111348D01*
X138265549Y-101370000D01*
X138219721Y-101370000D01*
X137807244Y-101452047D01*
X137418698Y-101612988D01*
X137112292Y-101817721D01*
X137147873Y-101731822D01*
X137248900Y-101223924D01*
X137248900Y-100706076D01*
X137147873Y-100198178D01*
X136949701Y-99719749D01*
X136662000Y-99289174D01*
X136295826Y-98923000D01*
X135865251Y-98635299D01*
X135386822Y-98437127D01*
X134878924Y-98336100D01*
X134361076Y-98336100D01*
X133853178Y-98437127D01*
X133374749Y-98635299D01*
X132944174Y-98923000D01*
X132578000Y-99289174D01*
X132290299Y-99719749D01*
X132092127Y-100198178D01*
X131991100Y-100706076D01*
X131003508Y-100706076D01*
X130968798Y-100531579D01*
X130856788Y-100261162D01*
X130821030Y-100207646D01*
X130866938Y-100210694D01*
X131214216Y-100165275D01*
X131545960Y-100052977D01*
X131754736Y-99941384D01*
X131867755Y-99662360D01*
X130810000Y-98604605D01*
X130795858Y-98618748D01*
X130616253Y-98439143D01*
X130630395Y-98425000D01*
X130989605Y-98425000D01*
X132047360Y-99482755D01*
X132326384Y-99369736D01*
X132481556Y-99055751D01*
X132572491Y-98717527D01*
X132595694Y-98368062D01*
X132550275Y-98020784D01*
X132437977Y-97689040D01*
X132326384Y-97480264D01*
X132047360Y-97367245D01*
X130989605Y-98425000D01*
X130630395Y-98425000D01*
X129572640Y-97367245D01*
X129293616Y-97480264D01*
X129138444Y-97794249D01*
X129047509Y-98132473D01*
X129024306Y-98481938D01*
X129069725Y-98829216D01*
X129182023Y-99160960D01*
X129293616Y-99369736D01*
X129563616Y-99479100D01*
X129393652Y-99479100D01*
X129106579Y-99536202D01*
X128836162Y-99648212D01*
X128592794Y-99810826D01*
X128385826Y-100017794D01*
X128223212Y-100261162D01*
X128111202Y-100531579D01*
X128054100Y-100818652D01*
X120865900Y-100818652D01*
X120808798Y-100531579D01*
X120696788Y-100261162D01*
X120534174Y-100017794D01*
X120327206Y-99810826D01*
X120083838Y-99648212D01*
X119813421Y-99536202D01*
X119526348Y-99479100D01*
X119233652Y-99479100D01*
X118946579Y-99536202D01*
X118676162Y-99648212D01*
X118432794Y-99810826D01*
X118225826Y-100017794D01*
X118063212Y-100261162D01*
X117951202Y-100531579D01*
X117894100Y-100818652D01*
X117894100Y-101111348D01*
X117945549Y-101370000D01*
X117899721Y-101370000D01*
X117487244Y-101452047D01*
X117098698Y-101612988D01*
X116792292Y-101817721D01*
X116827873Y-101731822D01*
X116928900Y-101223924D01*
X116928900Y-100706076D01*
X116827873Y-100198178D01*
X116629701Y-99719749D01*
X116342000Y-99289174D01*
X115975826Y-98923000D01*
X115545251Y-98635299D01*
X115066822Y-98437127D01*
X114558924Y-98336100D01*
X114041076Y-98336100D01*
X113533178Y-98437127D01*
X113054749Y-98635299D01*
X112624174Y-98923000D01*
X112258000Y-99289174D01*
X111970299Y-99719749D01*
X111772127Y-100198178D01*
X111671100Y-100706076D01*
X110683508Y-100706076D01*
X110648798Y-100531579D01*
X110536788Y-100261162D01*
X110501030Y-100207646D01*
X110546938Y-100210694D01*
X110894216Y-100165275D01*
X111225960Y-100052977D01*
X111434736Y-99941384D01*
X111547755Y-99662360D01*
X110490000Y-98604605D01*
X110475858Y-98618748D01*
X110296253Y-98439143D01*
X110310395Y-98425000D01*
X110669605Y-98425000D01*
X111727360Y-99482755D01*
X112006384Y-99369736D01*
X112161556Y-99055751D01*
X112252491Y-98717527D01*
X112275694Y-98368062D01*
X112230275Y-98020784D01*
X112117977Y-97689040D01*
X112006384Y-97480264D01*
X111727360Y-97367245D01*
X110669605Y-98425000D01*
X110310395Y-98425000D01*
X109252640Y-97367245D01*
X108973616Y-97480264D01*
X108818444Y-97794249D01*
X108727509Y-98132473D01*
X108704306Y-98481938D01*
X108749725Y-98829216D01*
X108862023Y-99160960D01*
X108973616Y-99369736D01*
X109243616Y-99479100D01*
X109073652Y-99479100D01*
X108786579Y-99536202D01*
X108516162Y-99648212D01*
X108272794Y-99810826D01*
X108065826Y-100017794D01*
X107903212Y-100261162D01*
X107791202Y-100531579D01*
X107734100Y-100818652D01*
X104038000Y-100818652D01*
X104038000Y-97187640D01*
X109432245Y-97187640D01*
X110490000Y-98245395D01*
X111547755Y-97187640D01*
X111434736Y-96908616D01*
X111120751Y-96753444D01*
X110782527Y-96662509D01*
X110433062Y-96639306D01*
X110085784Y-96684725D01*
X109754040Y-96797023D01*
X109545264Y-96908616D01*
X109432245Y-97187640D01*
X104038000Y-97187640D01*
X104038000Y-95709882D01*
X115062000Y-95709882D01*
X115062000Y-96060118D01*
X115130328Y-96403623D01*
X115264357Y-96727199D01*
X115458937Y-97018409D01*
X115706591Y-97266063D01*
X115997801Y-97460643D01*
X116321377Y-97594672D01*
X116664882Y-97663000D01*
X117015118Y-97663000D01*
X117358623Y-97594672D01*
X117682199Y-97460643D01*
X117973409Y-97266063D01*
X118051832Y-97187640D01*
X129752245Y-97187640D01*
X130810000Y-98245395D01*
X131867755Y-97187640D01*
X131754736Y-96908616D01*
X131440751Y-96753444D01*
X131102527Y-96662509D01*
X130753062Y-96639306D01*
X130405784Y-96684725D01*
X130074040Y-96797023D01*
X129865264Y-96908616D01*
X129752245Y-97187640D01*
X118051832Y-97187640D01*
X118221063Y-97018409D01*
X118415643Y-96727199D01*
X118549672Y-96403623D01*
X118618000Y-96060118D01*
X118618000Y-95709882D01*
X118549672Y-95366377D01*
X118515624Y-95284177D01*
X129219802Y-84580000D01*
X130277322Y-84580000D01*
X130187988Y-84713698D01*
X130027047Y-85102244D01*
X129945000Y-85514721D01*
X129945000Y-85935279D01*
X130027047Y-86347756D01*
X130187988Y-86736302D01*
X130421637Y-87085983D01*
X130719017Y-87383363D01*
X131068698Y-87617012D01*
X131457244Y-87777953D01*
X131869721Y-87860000D01*
X132290279Y-87860000D01*
X132702756Y-87777953D01*
X133091302Y-87617012D01*
X133440983Y-87383363D01*
X133738363Y-87085983D01*
X133972012Y-86736302D01*
X134132953Y-86347756D01*
X134215000Y-85935279D01*
X134215000Y-85514721D01*
X134132953Y-85102244D01*
X133972012Y-84713698D01*
X133882678Y-84580000D01*
X136805654Y-84580000D01*
X137069017Y-84843363D01*
X137418698Y-85077012D01*
X137807244Y-85237953D01*
X138219721Y-85320000D01*
X138640279Y-85320000D01*
X139052756Y-85237953D01*
X139441302Y-85077012D01*
X139790983Y-84843363D01*
X140054346Y-84580000D01*
X143472678Y-84580000D01*
X143510000Y-84583676D01*
X143547322Y-84580000D01*
X143547333Y-84580000D01*
X143658986Y-84569003D01*
X143802247Y-84525546D01*
X143934276Y-84454974D01*
X144050001Y-84360001D01*
X144073804Y-84330997D01*
X147444802Y-80960000D01*
X156866067Y-80960000D01*
X156962498Y-81077502D01*
X157111762Y-81200000D01*
X156962498Y-81322498D01*
X156866067Y-81440000D01*
X150882333Y-81440000D01*
X150845000Y-81436323D01*
X150807667Y-81440000D01*
X150696014Y-81450997D01*
X150552753Y-81494454D01*
X150420724Y-81565026D01*
X150304999Y-81659999D01*
X150281201Y-81688997D01*
X137760823Y-94209376D01*
X137678623Y-94175328D01*
X137335118Y-94107000D01*
X136984882Y-94107000D01*
X136641377Y-94175328D01*
X136317801Y-94309357D01*
X136026591Y-94503937D01*
X135778937Y-94751591D01*
X135584357Y-95042801D01*
X135450328Y-95366377D01*
X135382000Y-95709882D01*
X135382000Y-96060118D01*
X135450328Y-96403623D01*
X135584357Y-96727199D01*
X135778937Y-97018409D01*
X136026591Y-97266063D01*
X136317801Y-97460643D01*
X136641377Y-97594672D01*
X136984882Y-97663000D01*
X137335118Y-97663000D01*
X137678623Y-97594672D01*
X138002199Y-97460643D01*
X138293409Y-97266063D01*
X138371832Y-97187640D01*
X150072245Y-97187640D01*
X151130000Y-98245395D01*
X152187755Y-97187640D01*
X152074736Y-96908616D01*
X151760751Y-96753444D01*
X151422527Y-96662509D01*
X151073062Y-96639306D01*
X150725784Y-96684725D01*
X150394040Y-96797023D01*
X150185264Y-96908616D01*
X150072245Y-97187640D01*
X138371832Y-97187640D01*
X138541063Y-97018409D01*
X138735643Y-96727199D01*
X138869672Y-96403623D01*
X138938000Y-96060118D01*
X138938000Y-95709882D01*
X138869672Y-95366377D01*
X138835624Y-95284177D01*
X151159802Y-82960000D01*
X156837396Y-82960000D01*
X156845026Y-82974275D01*
X156939999Y-83090001D01*
X157055724Y-83184974D01*
X157100747Y-83209040D01*
X156962498Y-83322498D01*
X156808167Y-83510551D01*
X156693489Y-83725099D01*
X156622870Y-83957898D01*
X156599025Y-84200000D01*
X156622870Y-84442102D01*
X156693489Y-84674901D01*
X156808167Y-84889449D01*
X156962498Y-85077502D01*
X157150551Y-85231833D01*
X157355000Y-85341113D01*
X157355001Y-94107000D01*
X157304882Y-94107000D01*
X156961377Y-94175328D01*
X156637801Y-94309357D01*
X156346591Y-94503937D01*
X156098937Y-94751591D01*
X155904357Y-95042801D01*
X155770328Y-95366377D01*
X155702000Y-95709882D01*
X155702000Y-96060118D01*
X155770328Y-96403623D01*
X155904357Y-96727199D01*
X156098937Y-97018409D01*
X156346591Y-97266063D01*
X156637801Y-97460643D01*
X156961377Y-97594672D01*
X157304882Y-97663000D01*
X157655118Y-97663000D01*
X157998623Y-97594672D01*
X158322199Y-97460643D01*
X158613409Y-97266063D01*
X158861063Y-97018409D01*
X159055643Y-96727199D01*
X159189672Y-96403623D01*
X159258000Y-96060118D01*
X159258000Y-95709882D01*
X159189672Y-95366377D01*
X159055643Y-95042801D01*
X158875000Y-94772449D01*
X158875000Y-85341113D01*
X159079449Y-85231833D01*
X159267502Y-85077502D01*
X159421833Y-84889449D01*
X159536511Y-84674901D01*
X159607130Y-84442102D01*
X159630975Y-84200000D01*
X159607130Y-83957898D01*
X159536511Y-83725099D01*
X159421833Y-83510551D01*
X159267502Y-83322498D01*
X159118238Y-83200000D01*
X159267502Y-83077502D01*
X159421833Y-82889449D01*
X159536511Y-82674901D01*
X159607130Y-82442102D01*
X159630975Y-82200000D01*
X159607130Y-81957898D01*
X159536511Y-81725099D01*
X159421833Y-81510551D01*
X159267502Y-81322498D01*
X159118238Y-81200000D01*
X159267502Y-81077502D01*
X159421833Y-80889449D01*
X159536511Y-80674901D01*
X159607130Y-80442102D01*
X159630975Y-80200000D01*
X159607130Y-79957898D01*
X159536511Y-79725099D01*
X159421833Y-79510551D01*
X159267502Y-79322498D01*
X159118238Y-79200000D01*
X159267502Y-79077502D01*
X159421833Y-78889449D01*
X159536511Y-78674901D01*
X159607130Y-78442102D01*
X159630975Y-78200000D01*
X159607130Y-77957898D01*
X159536511Y-77725099D01*
X159421833Y-77510551D01*
X159295564Y-77356691D01*
X159344494Y-77330537D01*
X159441185Y-77251185D01*
X159520537Y-77154494D01*
X159579502Y-77044180D01*
X159615812Y-76924482D01*
X159628072Y-76800000D01*
X159625000Y-76485750D01*
X159466250Y-76327000D01*
X158242000Y-76327000D01*
X158242000Y-76347000D01*
X157988000Y-76347000D01*
X157988000Y-76327000D01*
X156763750Y-76327000D01*
X156605000Y-76485750D01*
X156601928Y-76800000D01*
X156614188Y-76924482D01*
X156650498Y-77044180D01*
X156709463Y-77154494D01*
X156788815Y-77251185D01*
X156885506Y-77330537D01*
X156934436Y-77356691D01*
X156866067Y-77440000D01*
X140109802Y-77440000D01*
X138835624Y-76165823D01*
X138869672Y-76083623D01*
X138938000Y-75740118D01*
X138938000Y-75600000D01*
X156601928Y-75600000D01*
X156605000Y-75914250D01*
X156763750Y-76073000D01*
X157988000Y-76073000D01*
X157988000Y-75123750D01*
X158242000Y-75123750D01*
X158242000Y-76073000D01*
X159466250Y-76073000D01*
X159625000Y-75914250D01*
X159628072Y-75600000D01*
X159615812Y-75475518D01*
X159579502Y-75355820D01*
X159520537Y-75245506D01*
X159441185Y-75148815D01*
X159344494Y-75069463D01*
X159234180Y-75010498D01*
X159114482Y-74974188D01*
X158990000Y-74961928D01*
X158400750Y-74965000D01*
X158242000Y-75123750D01*
X157988000Y-75123750D01*
X157829250Y-74965000D01*
X157240000Y-74961928D01*
X157115518Y-74974188D01*
X156995820Y-75010498D01*
X156885506Y-75069463D01*
X156788815Y-75148815D01*
X156709463Y-75245506D01*
X156650498Y-75355820D01*
X156614188Y-75475518D01*
X156601928Y-75600000D01*
X138938000Y-75600000D01*
X138938000Y-75389882D01*
X138869672Y-75046377D01*
X138735643Y-74722801D01*
X138541063Y-74431591D01*
X138293409Y-74183937D01*
X138002199Y-73989357D01*
X137678623Y-73855328D01*
X137335118Y-73787000D01*
X136984882Y-73787000D01*
X136641377Y-73855328D01*
X136317801Y-73989357D01*
X136026591Y-74183937D01*
X136015989Y-74194539D01*
X136005724Y-74200026D01*
X135889999Y-74294999D01*
X135795026Y-74410724D01*
X135789539Y-74420989D01*
X135778937Y-74431591D01*
X135584357Y-74722801D01*
X135450328Y-75046377D01*
X135382000Y-75389882D01*
X135382000Y-75740118D01*
X135450328Y-76083623D01*
X135584357Y-76407199D01*
X135778937Y-76698409D01*
X136026591Y-76946063D01*
X136317801Y-77140643D01*
X136641377Y-77274672D01*
X136984882Y-77343000D01*
X137335118Y-77343000D01*
X137678623Y-77274672D01*
X137760823Y-77240624D01*
X139231201Y-78711003D01*
X139254999Y-78740001D01*
X139370724Y-78834974D01*
X139502753Y-78905546D01*
X139646014Y-78949003D01*
X139757667Y-78960000D01*
X139757676Y-78960000D01*
X139794999Y-78963676D01*
X139832322Y-78960000D01*
X156866067Y-78960000D01*
X156962498Y-79077502D01*
X157111762Y-79200000D01*
X156962498Y-79322498D01*
X156866067Y-79440000D01*
X147167322Y-79440000D01*
X147129999Y-79436324D01*
X147092676Y-79440000D01*
X147092667Y-79440000D01*
X146981014Y-79450997D01*
X146849713Y-79490826D01*
X146837753Y-79494454D01*
X146705723Y-79565026D01*
X146622083Y-79633668D01*
X146589999Y-79659999D01*
X146566201Y-79688997D01*
X143195199Y-83060000D01*
X140565000Y-83060000D01*
X140565000Y-82974721D01*
X140482953Y-82562244D01*
X140322012Y-82173698D01*
X140228850Y-82034270D01*
X140403838Y-81961788D01*
X140647206Y-81799174D01*
X140854174Y-81592206D01*
X141016788Y-81348838D01*
X141128798Y-81078421D01*
X141185900Y-80791348D01*
X141185900Y-80498652D01*
X141128798Y-80211579D01*
X141016788Y-79941162D01*
X140854174Y-79697794D01*
X140647206Y-79490826D01*
X140403838Y-79328212D01*
X140133421Y-79216202D01*
X139846348Y-79159100D01*
X139553652Y-79159100D01*
X139266579Y-79216202D01*
X138996162Y-79328212D01*
X138752794Y-79490826D01*
X138545826Y-79697794D01*
X138383212Y-79941162D01*
X138271202Y-80211579D01*
X138214100Y-80498652D01*
X138214100Y-80791348D01*
X138265549Y-81050000D01*
X138219721Y-81050000D01*
X137807244Y-81132047D01*
X137418698Y-81292988D01*
X137112292Y-81497721D01*
X137147873Y-81411822D01*
X137248900Y-80903924D01*
X137248900Y-80386076D01*
X137147873Y-79878178D01*
X136949701Y-79399749D01*
X136662000Y-78969174D01*
X136295826Y-78603000D01*
X135865251Y-78315299D01*
X135386822Y-78117127D01*
X134878924Y-78016100D01*
X134361076Y-78016100D01*
X133853178Y-78117127D01*
X133374749Y-78315299D01*
X132944174Y-78603000D01*
X132578000Y-78969174D01*
X132290299Y-79399749D01*
X132092127Y-79878178D01*
X131991100Y-80386076D01*
X131991100Y-80903924D01*
X132092127Y-81411822D01*
X132290299Y-81890251D01*
X132578000Y-82320826D01*
X132944174Y-82687000D01*
X133374749Y-82974701D01*
X133580679Y-83060000D01*
X128942325Y-83060000D01*
X128905000Y-83056324D01*
X128867675Y-83060000D01*
X128867667Y-83060000D01*
X128756014Y-83070997D01*
X128612753Y-83114454D01*
X128480724Y-83185026D01*
X128364999Y-83279999D01*
X128341201Y-83308997D01*
X117440823Y-94209376D01*
X117358623Y-94175328D01*
X117015118Y-94107000D01*
X116664882Y-94107000D01*
X116321377Y-94175328D01*
X115997801Y-94309357D01*
X115706591Y-94503937D01*
X115458937Y-94751591D01*
X115264357Y-95042801D01*
X115130328Y-95366377D01*
X115062000Y-95709882D01*
X104038000Y-95709882D01*
X104038000Y-80498652D01*
X128054100Y-80498652D01*
X128054100Y-80791348D01*
X128111202Y-81078421D01*
X128223212Y-81348838D01*
X128385826Y-81592206D01*
X128592794Y-81799174D01*
X128836162Y-81961788D01*
X129106579Y-82073798D01*
X129393652Y-82130900D01*
X129686348Y-82130900D01*
X129973421Y-82073798D01*
X130243838Y-81961788D01*
X130487206Y-81799174D01*
X130694174Y-81592206D01*
X130856788Y-81348838D01*
X130968798Y-81078421D01*
X131025900Y-80791348D01*
X131025900Y-80498652D01*
X130968798Y-80211579D01*
X130856788Y-79941162D01*
X130821030Y-79887646D01*
X130866938Y-79890694D01*
X131214216Y-79845275D01*
X131545960Y-79732977D01*
X131754736Y-79621384D01*
X131867755Y-79342360D01*
X130810000Y-78284605D01*
X130795858Y-78298748D01*
X130616253Y-78119143D01*
X130630395Y-78105000D01*
X130989605Y-78105000D01*
X132047360Y-79162755D01*
X132326384Y-79049736D01*
X132481556Y-78735751D01*
X132572491Y-78397527D01*
X132595694Y-78048062D01*
X132550275Y-77700784D01*
X132437977Y-77369040D01*
X132326384Y-77160264D01*
X132047360Y-77047245D01*
X130989605Y-78105000D01*
X130630395Y-78105000D01*
X129572640Y-77047245D01*
X129293616Y-77160264D01*
X129138444Y-77474249D01*
X129047509Y-77812473D01*
X129024306Y-78161938D01*
X129069725Y-78509216D01*
X129182023Y-78840960D01*
X129293616Y-79049736D01*
X129563616Y-79159100D01*
X129393652Y-79159100D01*
X129106579Y-79216202D01*
X128836162Y-79328212D01*
X128592794Y-79490826D01*
X128385826Y-79697794D01*
X128223212Y-79941162D01*
X128111202Y-80211579D01*
X128054100Y-80498652D01*
X104038000Y-80498652D01*
X104038000Y-76867640D01*
X129752245Y-76867640D01*
X130810000Y-77925395D01*
X131867755Y-76867640D01*
X131754736Y-76588616D01*
X131440751Y-76433444D01*
X131102527Y-76342509D01*
X130753062Y-76319306D01*
X130405784Y-76364725D01*
X130074040Y-76477023D01*
X129865264Y-76588616D01*
X129752245Y-76867640D01*
X104038000Y-76867640D01*
X104038000Y-69629872D01*
X105080000Y-69629872D01*
X105080000Y-70070128D01*
X105165890Y-70501925D01*
X105334369Y-70908669D01*
X105578962Y-71274729D01*
X105890271Y-71586038D01*
X106256331Y-71830631D01*
X106663075Y-71999110D01*
X107094872Y-72085000D01*
X107535128Y-72085000D01*
X107966925Y-71999110D01*
X108373669Y-71830631D01*
X108739729Y-71586038D01*
X109051038Y-71274729D01*
X109295631Y-70908669D01*
X109464110Y-70501925D01*
X109550000Y-70070128D01*
X109550000Y-69629872D01*
X159690000Y-69629872D01*
X159690000Y-70070128D01*
X159775890Y-70501925D01*
X159944369Y-70908669D01*
X160188962Y-71274729D01*
X160500271Y-71586038D01*
X160866331Y-71830631D01*
X161273075Y-71999110D01*
X161704872Y-72085000D01*
X162145128Y-72085000D01*
X162576925Y-71999110D01*
X162983669Y-71830631D01*
X163349729Y-71586038D01*
X163661038Y-71274729D01*
X163905631Y-70908669D01*
X164074110Y-70501925D01*
X164160000Y-70070128D01*
X164160000Y-69629872D01*
X164074110Y-69198075D01*
X163905631Y-68791331D01*
X163661038Y-68425271D01*
X163349729Y-68113962D01*
X162983669Y-67869369D01*
X162576925Y-67700890D01*
X162145128Y-67615000D01*
X161704872Y-67615000D01*
X161273075Y-67700890D01*
X160866331Y-67869369D01*
X160500271Y-68113962D01*
X160188962Y-68425271D01*
X159944369Y-68791331D01*
X159775890Y-69198075D01*
X159690000Y-69629872D01*
X109550000Y-69629872D01*
X109464110Y-69198075D01*
X109295631Y-68791331D01*
X109051038Y-68425271D01*
X108739729Y-68113962D01*
X108373669Y-67869369D01*
X107966925Y-67700890D01*
X107535128Y-67615000D01*
X107094872Y-67615000D01*
X106663075Y-67700890D01*
X106256331Y-67869369D01*
X105890271Y-68113962D01*
X105578962Y-68425271D01*
X105334369Y-68791331D01*
X105165890Y-69198075D01*
X105080000Y-69629872D01*
X104038000Y-69629872D01*
X104038000Y-66072279D01*
X104067234Y-65774125D01*
X104144448Y-65518378D01*
X104269869Y-65282496D01*
X104438716Y-65075470D01*
X104644554Y-64905187D01*
X104879556Y-64778121D01*
X105134756Y-64699124D01*
X105430882Y-64668000D01*
X163543721Y-64668000D01*
X163841875Y-64697234D01*
%TA.AperFunction,Conductor*%
D14*
G36*
X163841875Y-64697234D02*
G01*
X164097622Y-64774448D01*
X164333504Y-64899869D01*
X164540530Y-65068716D01*
X164710813Y-65274554D01*
X164837879Y-65509556D01*
X164916876Y-65764756D01*
X164948001Y-66060891D01*
X164948000Y-115537721D01*
X164923603Y-115786540D01*
X164860717Y-115994830D01*
X164758572Y-116186938D01*
X164621052Y-116355554D01*
X164453409Y-116494240D01*
X164262017Y-116597725D01*
X164054166Y-116662066D01*
X163807419Y-116688000D01*
X105188279Y-116688000D01*
X104939460Y-116663603D01*
X104731170Y-116600717D01*
X104539062Y-116498572D01*
X104370446Y-116361052D01*
X104231760Y-116193409D01*
X104128275Y-116002017D01*
X104063934Y-115794166D01*
X104038000Y-115547419D01*
X104038000Y-111539872D01*
X105080000Y-111539872D01*
X105080000Y-111980128D01*
X105165890Y-112411925D01*
X105334369Y-112818669D01*
X105578962Y-113184729D01*
X105890271Y-113496038D01*
X106256331Y-113740631D01*
X106663075Y-113909110D01*
X107094872Y-113995000D01*
X107535128Y-113995000D01*
X107966925Y-113909110D01*
X108373669Y-113740631D01*
X108739729Y-113496038D01*
X109051038Y-113184729D01*
X109295631Y-112818669D01*
X109464110Y-112411925D01*
X109550000Y-111980128D01*
X109550000Y-111539872D01*
X159690000Y-111539872D01*
X159690000Y-111980128D01*
X159775890Y-112411925D01*
X159944369Y-112818669D01*
X160188962Y-113184729D01*
X160500271Y-113496038D01*
X160866331Y-113740631D01*
X161273075Y-113909110D01*
X161704872Y-113995000D01*
X162145128Y-113995000D01*
X162576925Y-113909110D01*
X162983669Y-113740631D01*
X163349729Y-113496038D01*
X163661038Y-113184729D01*
X163905631Y-112818669D01*
X164074110Y-112411925D01*
X164160000Y-111980128D01*
X164160000Y-111539872D01*
X164074110Y-111108075D01*
X163905631Y-110701331D01*
X163661038Y-110335271D01*
X163349729Y-110023962D01*
X162983669Y-109779369D01*
X162576925Y-109610890D01*
X162145128Y-109525000D01*
X161704872Y-109525000D01*
X161273075Y-109610890D01*
X160866331Y-109779369D01*
X160500271Y-110023962D01*
X160188962Y-110335271D01*
X159944369Y-110701331D01*
X159775890Y-111108075D01*
X159690000Y-111539872D01*
X109550000Y-111539872D01*
X109464110Y-111108075D01*
X109295631Y-110701331D01*
X109051038Y-110335271D01*
X108739729Y-110023962D01*
X108373669Y-109779369D01*
X107966925Y-109610890D01*
X107535128Y-109525000D01*
X107094872Y-109525000D01*
X106663075Y-109610890D01*
X106256331Y-109779369D01*
X105890271Y-110023962D01*
X105578962Y-110335271D01*
X105334369Y-110701331D01*
X105165890Y-111108075D01*
X105080000Y-111539872D01*
X104038000Y-111539872D01*
X104038000Y-105834721D01*
X109625000Y-105834721D01*
X109625000Y-106255279D01*
X109707047Y-106667756D01*
X109867988Y-107056302D01*
X110101637Y-107405983D01*
X110399017Y-107703363D01*
X110748698Y-107937012D01*
X111137244Y-108097953D01*
X111549721Y-108180000D01*
X111970279Y-108180000D01*
X112382756Y-108097953D01*
X112771302Y-107937012D01*
X113120983Y-107703363D01*
X113418363Y-107405983D01*
X113652012Y-107056302D01*
X113812953Y-106667756D01*
X113895000Y-106255279D01*
X113895000Y-105834721D01*
X129945000Y-105834721D01*
X129945000Y-106255279D01*
X130027047Y-106667756D01*
X130187988Y-107056302D01*
X130421637Y-107405983D01*
X130719017Y-107703363D01*
X131068698Y-107937012D01*
X131457244Y-108097953D01*
X131869721Y-108180000D01*
X132290279Y-108180000D01*
X132702756Y-108097953D01*
X133091302Y-107937012D01*
X133440983Y-107703363D01*
X133738363Y-107405983D01*
X133972012Y-107056302D01*
X134132953Y-106667756D01*
X134215000Y-106255279D01*
X134215000Y-105834721D01*
X150265000Y-105834721D01*
X150265000Y-106255279D01*
X150347047Y-106667756D01*
X150507988Y-107056302D01*
X150741637Y-107405983D01*
X151039017Y-107703363D01*
X151388698Y-107937012D01*
X151777244Y-108097953D01*
X152189721Y-108180000D01*
X152610279Y-108180000D01*
X153022756Y-108097953D01*
X153411302Y-107937012D01*
X153760983Y-107703363D01*
X154058363Y-107405983D01*
X154292012Y-107056302D01*
X154452953Y-106667756D01*
X154535000Y-106255279D01*
X154535000Y-105834721D01*
X154452953Y-105422244D01*
X154292012Y-105033698D01*
X154058363Y-104684017D01*
X153760983Y-104386637D01*
X153411302Y-104152988D01*
X153022756Y-103992047D01*
X152610279Y-103910000D01*
X152189721Y-103910000D01*
X151777244Y-103992047D01*
X151388698Y-104152988D01*
X151039017Y-104386637D01*
X150741637Y-104684017D01*
X150507988Y-105033698D01*
X150347047Y-105422244D01*
X150265000Y-105834721D01*
X134215000Y-105834721D01*
X134132953Y-105422244D01*
X133972012Y-105033698D01*
X133738363Y-104684017D01*
X133440983Y-104386637D01*
X133091302Y-104152988D01*
X132702756Y-103992047D01*
X132290279Y-103910000D01*
X131869721Y-103910000D01*
X131457244Y-103992047D01*
X131068698Y-104152988D01*
X130719017Y-104386637D01*
X130421637Y-104684017D01*
X130187988Y-105033698D01*
X130027047Y-105422244D01*
X129945000Y-105834721D01*
X113895000Y-105834721D01*
X113812953Y-105422244D01*
X113652012Y-105033698D01*
X113418363Y-104684017D01*
X113120983Y-104386637D01*
X112771302Y-104152988D01*
X112382756Y-103992047D01*
X111970279Y-103910000D01*
X111549721Y-103910000D01*
X111137244Y-103992047D01*
X110748698Y-104152988D01*
X110399017Y-104386637D01*
X110101637Y-104684017D01*
X109867988Y-105033698D01*
X109707047Y-105422244D01*
X109625000Y-105834721D01*
X104038000Y-105834721D01*
X104038000Y-100818652D01*
X107734100Y-100818652D01*
X107734100Y-101111348D01*
X107791202Y-101398421D01*
X107903212Y-101668838D01*
X108065826Y-101912206D01*
X108272794Y-102119174D01*
X108516162Y-102281788D01*
X108786579Y-102393798D01*
X109073652Y-102450900D01*
X109366348Y-102450900D01*
X109653421Y-102393798D01*
X109923838Y-102281788D01*
X110167206Y-102119174D01*
X110374174Y-101912206D01*
X110536788Y-101668838D01*
X110648798Y-101398421D01*
X110705900Y-101111348D01*
X110705900Y-100818652D01*
X110683508Y-100706076D01*
X111671100Y-100706076D01*
X111671100Y-101223924D01*
X111772127Y-101731822D01*
X111970299Y-102210251D01*
X112258000Y-102640826D01*
X112624174Y-103007000D01*
X113054749Y-103294701D01*
X113533178Y-103492873D01*
X114041076Y-103593900D01*
X114558924Y-103593900D01*
X115066822Y-103492873D01*
X115545251Y-103294701D01*
X115975826Y-103007000D01*
X116046237Y-102936589D01*
X115975000Y-103294721D01*
X115975000Y-103715279D01*
X116057047Y-104127756D01*
X116217988Y-104516302D01*
X116451637Y-104865983D01*
X116749017Y-105163363D01*
X117098698Y-105397012D01*
X117487244Y-105557953D01*
X117899721Y-105640000D01*
X118320279Y-105640000D01*
X118732756Y-105557953D01*
X119121302Y-105397012D01*
X119470983Y-105163363D01*
X119768363Y-104865983D01*
X120002012Y-104516302D01*
X120162953Y-104127756D01*
X120245000Y-103715279D01*
X120245000Y-103294721D01*
X120162953Y-102882244D01*
X120002012Y-102493698D01*
X119908850Y-102354270D01*
X120083838Y-102281788D01*
X120327206Y-102119174D01*
X120534174Y-101912206D01*
X120696788Y-101668838D01*
X120808798Y-101398421D01*
X120865900Y-101111348D01*
X120865900Y-100818652D01*
X128054100Y-100818652D01*
X128054100Y-101111348D01*
X128111202Y-101398421D01*
X128223212Y-101668838D01*
X128385826Y-101912206D01*
X128592794Y-102119174D01*
X128836162Y-102281788D01*
X129106579Y-102393798D01*
X129393652Y-102450900D01*
X129686348Y-102450900D01*
X129973421Y-102393798D01*
X130243838Y-102281788D01*
X130487206Y-102119174D01*
X130694174Y-101912206D01*
X130856788Y-101668838D01*
X130968798Y-101398421D01*
X131025900Y-101111348D01*
X131025900Y-100818652D01*
X131003508Y-100706076D01*
X131991100Y-100706076D01*
X131991100Y-101223924D01*
X132092127Y-101731822D01*
X132290299Y-102210251D01*
X132578000Y-102640826D01*
X132944174Y-103007000D01*
X133374749Y-103294701D01*
X133853178Y-103492873D01*
X134361076Y-103593900D01*
X134878924Y-103593900D01*
X135386822Y-103492873D01*
X135865251Y-103294701D01*
X136295826Y-103007000D01*
X136366237Y-102936589D01*
X136295000Y-103294721D01*
X136295000Y-103715279D01*
X136377047Y-104127756D01*
X136537988Y-104516302D01*
X136771637Y-104865983D01*
X137069017Y-105163363D01*
X137418698Y-105397012D01*
X137807244Y-105557953D01*
X138219721Y-105640000D01*
X138640279Y-105640000D01*
X139052756Y-105557953D01*
X139441302Y-105397012D01*
X139790983Y-105163363D01*
X140088363Y-104865983D01*
X140322012Y-104516302D01*
X140482953Y-104127756D01*
X140565000Y-103715279D01*
X140565000Y-103294721D01*
X140482953Y-102882244D01*
X140322012Y-102493698D01*
X140228850Y-102354270D01*
X140403838Y-102281788D01*
X140647206Y-102119174D01*
X140854174Y-101912206D01*
X141016788Y-101668838D01*
X141128798Y-101398421D01*
X141185900Y-101111348D01*
X141185900Y-100818652D01*
X148374100Y-100818652D01*
X148374100Y-101111348D01*
X148431202Y-101398421D01*
X148543212Y-101668838D01*
X148705826Y-101912206D01*
X148912794Y-102119174D01*
X149156162Y-102281788D01*
X149426579Y-102393798D01*
X149713652Y-102450900D01*
X150006348Y-102450900D01*
X150293421Y-102393798D01*
X150563838Y-102281788D01*
X150807206Y-102119174D01*
X151014174Y-101912206D01*
X151176788Y-101668838D01*
X151288798Y-101398421D01*
X151345900Y-101111348D01*
X151345900Y-100818652D01*
X151323508Y-100706076D01*
X152311100Y-100706076D01*
X152311100Y-101223924D01*
X152412127Y-101731822D01*
X152610299Y-102210251D01*
X152898000Y-102640826D01*
X153264174Y-103007000D01*
X153694749Y-103294701D01*
X154173178Y-103492873D01*
X154681076Y-103593900D01*
X155198924Y-103593900D01*
X155706822Y-103492873D01*
X156185251Y-103294701D01*
X156615826Y-103007000D01*
X156686237Y-102936589D01*
X156615000Y-103294721D01*
X156615000Y-103715279D01*
X156697047Y-104127756D01*
X156857988Y-104516302D01*
X157091637Y-104865983D01*
X157389017Y-105163363D01*
X157738698Y-105397012D01*
X158127244Y-105557953D01*
X158539721Y-105640000D01*
X158960279Y-105640000D01*
X159372756Y-105557953D01*
X159761302Y-105397012D01*
X160110983Y-105163363D01*
X160408363Y-104865983D01*
X160642012Y-104516302D01*
X160802953Y-104127756D01*
X160885000Y-103715279D01*
X160885000Y-103294721D01*
X160802953Y-102882244D01*
X160642012Y-102493698D01*
X160548850Y-102354270D01*
X160723838Y-102281788D01*
X160967206Y-102119174D01*
X161174174Y-101912206D01*
X161336788Y-101668838D01*
X161448798Y-101398421D01*
X161505900Y-101111348D01*
X161505900Y-100818652D01*
X161448798Y-100531579D01*
X161336788Y-100261162D01*
X161174174Y-100017794D01*
X160967206Y-99810826D01*
X160723838Y-99648212D01*
X160453421Y-99536202D01*
X160166348Y-99479100D01*
X159873652Y-99479100D01*
X159586579Y-99536202D01*
X159316162Y-99648212D01*
X159072794Y-99810826D01*
X158865826Y-100017794D01*
X158703212Y-100261162D01*
X158591202Y-100531579D01*
X158534100Y-100818652D01*
X158534100Y-101111348D01*
X158585549Y-101370000D01*
X158539721Y-101370000D01*
X158127244Y-101452047D01*
X157738698Y-101612988D01*
X157432292Y-101817721D01*
X157467873Y-101731822D01*
X157568900Y-101223924D01*
X157568900Y-100706076D01*
X157467873Y-100198178D01*
X157269701Y-99719749D01*
X156982000Y-99289174D01*
X156615826Y-98923000D01*
X156185251Y-98635299D01*
X155706822Y-98437127D01*
X155198924Y-98336100D01*
X154681076Y-98336100D01*
X154173178Y-98437127D01*
X153694749Y-98635299D01*
X153264174Y-98923000D01*
X152898000Y-99289174D01*
X152610299Y-99719749D01*
X152412127Y-100198178D01*
X152311100Y-100706076D01*
X151323508Y-100706076D01*
X151288798Y-100531579D01*
X151176788Y-100261162D01*
X151141030Y-100207646D01*
X151186938Y-100210694D01*
X151534216Y-100165275D01*
X151865960Y-100052977D01*
X152074736Y-99941384D01*
X152187755Y-99662360D01*
X151130000Y-98604605D01*
X151115858Y-98618748D01*
X150936253Y-98439143D01*
X150950395Y-98425000D01*
X151309605Y-98425000D01*
X152367360Y-99482755D01*
X152646384Y-99369736D01*
X152801556Y-99055751D01*
X152892491Y-98717527D01*
X152915694Y-98368062D01*
X152870275Y-98020784D01*
X152757977Y-97689040D01*
X152646384Y-97480264D01*
X152367360Y-97367245D01*
X151309605Y-98425000D01*
X150950395Y-98425000D01*
X149892640Y-97367245D01*
X149613616Y-97480264D01*
X149458444Y-97794249D01*
X149367509Y-98132473D01*
X149344306Y-98481938D01*
X149389725Y-98829216D01*
X149502023Y-99160960D01*
X149613616Y-99369736D01*
X149883616Y-99479100D01*
X149713652Y-99479100D01*
X149426579Y-99536202D01*
X149156162Y-99648212D01*
X148912794Y-99810826D01*
X148705826Y-100017794D01*
X148543212Y-100261162D01*
X148431202Y-100531579D01*
X148374100Y-100818652D01*
X141185900Y-100818652D01*
X141128798Y-100531579D01*
X141016788Y-100261162D01*
X140854174Y-100017794D01*
X140647206Y-99810826D01*
X140403838Y-99648212D01*
X140133421Y-99536202D01*
X139846348Y-99479100D01*
X139553652Y-99479100D01*
X139266579Y-99536202D01*
X138996162Y-99648212D01*
X138752794Y-99810826D01*
X138545826Y-100017794D01*
X138383212Y-100261162D01*
X138271202Y-100531579D01*
X138214100Y-100818652D01*
X138214100Y-101111348D01*
X138265549Y-101370000D01*
X138219721Y-101370000D01*
X137807244Y-101452047D01*
X137418698Y-101612988D01*
X137112292Y-101817721D01*
X137147873Y-101731822D01*
X137248900Y-101223924D01*
X137248900Y-100706076D01*
X137147873Y-100198178D01*
X136949701Y-99719749D01*
X136662000Y-99289174D01*
X136295826Y-98923000D01*
X135865251Y-98635299D01*
X135386822Y-98437127D01*
X134878924Y-98336100D01*
X134361076Y-98336100D01*
X133853178Y-98437127D01*
X133374749Y-98635299D01*
X132944174Y-98923000D01*
X132578000Y-99289174D01*
X132290299Y-99719749D01*
X132092127Y-100198178D01*
X131991100Y-100706076D01*
X131003508Y-100706076D01*
X130968798Y-100531579D01*
X130856788Y-100261162D01*
X130821030Y-100207646D01*
X130866938Y-100210694D01*
X131214216Y-100165275D01*
X131545960Y-100052977D01*
X131754736Y-99941384D01*
X131867755Y-99662360D01*
X130810000Y-98604605D01*
X130795858Y-98618748D01*
X130616253Y-98439143D01*
X130630395Y-98425000D01*
X130989605Y-98425000D01*
X132047360Y-99482755D01*
X132326384Y-99369736D01*
X132481556Y-99055751D01*
X132572491Y-98717527D01*
X132595694Y-98368062D01*
X132550275Y-98020784D01*
X132437977Y-97689040D01*
X132326384Y-97480264D01*
X132047360Y-97367245D01*
X130989605Y-98425000D01*
X130630395Y-98425000D01*
X129572640Y-97367245D01*
X129293616Y-97480264D01*
X129138444Y-97794249D01*
X129047509Y-98132473D01*
X129024306Y-98481938D01*
X129069725Y-98829216D01*
X129182023Y-99160960D01*
X129293616Y-99369736D01*
X129563616Y-99479100D01*
X129393652Y-99479100D01*
X129106579Y-99536202D01*
X128836162Y-99648212D01*
X128592794Y-99810826D01*
X128385826Y-100017794D01*
X128223212Y-100261162D01*
X128111202Y-100531579D01*
X128054100Y-100818652D01*
X120865900Y-100818652D01*
X120808798Y-100531579D01*
X120696788Y-100261162D01*
X120534174Y-100017794D01*
X120327206Y-99810826D01*
X120083838Y-99648212D01*
X119813421Y-99536202D01*
X119526348Y-99479100D01*
X119233652Y-99479100D01*
X118946579Y-99536202D01*
X118676162Y-99648212D01*
X118432794Y-99810826D01*
X118225826Y-100017794D01*
X118063212Y-100261162D01*
X117951202Y-100531579D01*
X117894100Y-100818652D01*
X117894100Y-101111348D01*
X117945549Y-101370000D01*
X117899721Y-101370000D01*
X117487244Y-101452047D01*
X117098698Y-101612988D01*
X116792292Y-101817721D01*
X116827873Y-101731822D01*
X116928900Y-101223924D01*
X116928900Y-100706076D01*
X116827873Y-100198178D01*
X116629701Y-99719749D01*
X116342000Y-99289174D01*
X115975826Y-98923000D01*
X115545251Y-98635299D01*
X115066822Y-98437127D01*
X114558924Y-98336100D01*
X114041076Y-98336100D01*
X113533178Y-98437127D01*
X113054749Y-98635299D01*
X112624174Y-98923000D01*
X112258000Y-99289174D01*
X111970299Y-99719749D01*
X111772127Y-100198178D01*
X111671100Y-100706076D01*
X110683508Y-100706076D01*
X110648798Y-100531579D01*
X110536788Y-100261162D01*
X110501030Y-100207646D01*
X110546938Y-100210694D01*
X110894216Y-100165275D01*
X111225960Y-100052977D01*
X111434736Y-99941384D01*
X111547755Y-99662360D01*
X110490000Y-98604605D01*
X110475858Y-98618748D01*
X110296253Y-98439143D01*
X110310395Y-98425000D01*
X110669605Y-98425000D01*
X111727360Y-99482755D01*
X112006384Y-99369736D01*
X112161556Y-99055751D01*
X112252491Y-98717527D01*
X112275694Y-98368062D01*
X112230275Y-98020784D01*
X112117977Y-97689040D01*
X112006384Y-97480264D01*
X111727360Y-97367245D01*
X110669605Y-98425000D01*
X110310395Y-98425000D01*
X109252640Y-97367245D01*
X108973616Y-97480264D01*
X108818444Y-97794249D01*
X108727509Y-98132473D01*
X108704306Y-98481938D01*
X108749725Y-98829216D01*
X108862023Y-99160960D01*
X108973616Y-99369736D01*
X109243616Y-99479100D01*
X109073652Y-99479100D01*
X108786579Y-99536202D01*
X108516162Y-99648212D01*
X108272794Y-99810826D01*
X108065826Y-100017794D01*
X107903212Y-100261162D01*
X107791202Y-100531579D01*
X107734100Y-100818652D01*
X104038000Y-100818652D01*
X104038000Y-97187640D01*
X109432245Y-97187640D01*
X110490000Y-98245395D01*
X111547755Y-97187640D01*
X111434736Y-96908616D01*
X111120751Y-96753444D01*
X110782527Y-96662509D01*
X110433062Y-96639306D01*
X110085784Y-96684725D01*
X109754040Y-96797023D01*
X109545264Y-96908616D01*
X109432245Y-97187640D01*
X104038000Y-97187640D01*
X104038000Y-95709882D01*
X115062000Y-95709882D01*
X115062000Y-96060118D01*
X115130328Y-96403623D01*
X115264357Y-96727199D01*
X115458937Y-97018409D01*
X115706591Y-97266063D01*
X115997801Y-97460643D01*
X116321377Y-97594672D01*
X116664882Y-97663000D01*
X117015118Y-97663000D01*
X117358623Y-97594672D01*
X117682199Y-97460643D01*
X117973409Y-97266063D01*
X118051832Y-97187640D01*
X129752245Y-97187640D01*
X130810000Y-98245395D01*
X131867755Y-97187640D01*
X131754736Y-96908616D01*
X131440751Y-96753444D01*
X131102527Y-96662509D01*
X130753062Y-96639306D01*
X130405784Y-96684725D01*
X130074040Y-96797023D01*
X129865264Y-96908616D01*
X129752245Y-97187640D01*
X118051832Y-97187640D01*
X118221063Y-97018409D01*
X118415643Y-96727199D01*
X118549672Y-96403623D01*
X118618000Y-96060118D01*
X118618000Y-95709882D01*
X118549672Y-95366377D01*
X118515624Y-95284177D01*
X129219802Y-84580000D01*
X130277322Y-84580000D01*
X130187988Y-84713698D01*
X130027047Y-85102244D01*
X129945000Y-85514721D01*
X129945000Y-85935279D01*
X130027047Y-86347756D01*
X130187988Y-86736302D01*
X130421637Y-87085983D01*
X130719017Y-87383363D01*
X131068698Y-87617012D01*
X131457244Y-87777953D01*
X131869721Y-87860000D01*
X132290279Y-87860000D01*
X132702756Y-87777953D01*
X133091302Y-87617012D01*
X133440983Y-87383363D01*
X133738363Y-87085983D01*
X133972012Y-86736302D01*
X134132953Y-86347756D01*
X134215000Y-85935279D01*
X134215000Y-85514721D01*
X134132953Y-85102244D01*
X133972012Y-84713698D01*
X133882678Y-84580000D01*
X136805654Y-84580000D01*
X137069017Y-84843363D01*
X137418698Y-85077012D01*
X137807244Y-85237953D01*
X138219721Y-85320000D01*
X138640279Y-85320000D01*
X139052756Y-85237953D01*
X139441302Y-85077012D01*
X139790983Y-84843363D01*
X140054346Y-84580000D01*
X143472678Y-84580000D01*
X143510000Y-84583676D01*
X143547322Y-84580000D01*
X143547333Y-84580000D01*
X143658986Y-84569003D01*
X143802247Y-84525546D01*
X143934276Y-84454974D01*
X144050001Y-84360001D01*
X144073804Y-84330997D01*
X147444802Y-80960000D01*
X156866067Y-80960000D01*
X156962498Y-81077502D01*
X157111762Y-81200000D01*
X156962498Y-81322498D01*
X156866067Y-81440000D01*
X150882333Y-81440000D01*
X150845000Y-81436323D01*
X150807667Y-81440000D01*
X150696014Y-81450997D01*
X150552753Y-81494454D01*
X150420724Y-81565026D01*
X150304999Y-81659999D01*
X150281201Y-81688997D01*
X137760823Y-94209376D01*
X137678623Y-94175328D01*
X137335118Y-94107000D01*
X136984882Y-94107000D01*
X136641377Y-94175328D01*
X136317801Y-94309357D01*
X136026591Y-94503937D01*
X135778937Y-94751591D01*
X135584357Y-95042801D01*
X135450328Y-95366377D01*
X135382000Y-95709882D01*
X135382000Y-96060118D01*
X135450328Y-96403623D01*
X135584357Y-96727199D01*
X135778937Y-97018409D01*
X136026591Y-97266063D01*
X136317801Y-97460643D01*
X136641377Y-97594672D01*
X136984882Y-97663000D01*
X137335118Y-97663000D01*
X137678623Y-97594672D01*
X138002199Y-97460643D01*
X138293409Y-97266063D01*
X138371832Y-97187640D01*
X150072245Y-97187640D01*
X151130000Y-98245395D01*
X152187755Y-97187640D01*
X152074736Y-96908616D01*
X151760751Y-96753444D01*
X151422527Y-96662509D01*
X151073062Y-96639306D01*
X150725784Y-96684725D01*
X150394040Y-96797023D01*
X150185264Y-96908616D01*
X150072245Y-97187640D01*
X138371832Y-97187640D01*
X138541063Y-97018409D01*
X138735643Y-96727199D01*
X138869672Y-96403623D01*
X138938000Y-96060118D01*
X138938000Y-95709882D01*
X138869672Y-95366377D01*
X138835624Y-95284177D01*
X151159802Y-82960000D01*
X156837396Y-82960000D01*
X156845026Y-82974275D01*
X156939999Y-83090001D01*
X157055724Y-83184974D01*
X157100747Y-83209040D01*
X156962498Y-83322498D01*
X156808167Y-83510551D01*
X156693489Y-83725099D01*
X156622870Y-83957898D01*
X156599025Y-84200000D01*
X156622870Y-84442102D01*
X156693489Y-84674901D01*
X156808167Y-84889449D01*
X156962498Y-85077502D01*
X157150551Y-85231833D01*
X157355000Y-85341113D01*
X157355001Y-94107000D01*
X157304882Y-94107000D01*
X156961377Y-94175328D01*
X156637801Y-94309357D01*
X156346591Y-94503937D01*
X156098937Y-94751591D01*
X155904357Y-95042801D01*
X155770328Y-95366377D01*
X155702000Y-95709882D01*
X155702000Y-96060118D01*
X155770328Y-96403623D01*
X155904357Y-96727199D01*
X156098937Y-97018409D01*
X156346591Y-97266063D01*
X156637801Y-97460643D01*
X156961377Y-97594672D01*
X157304882Y-97663000D01*
X157655118Y-97663000D01*
X157998623Y-97594672D01*
X158322199Y-97460643D01*
X158613409Y-97266063D01*
X158861063Y-97018409D01*
X159055643Y-96727199D01*
X159189672Y-96403623D01*
X159258000Y-96060118D01*
X159258000Y-95709882D01*
X159189672Y-95366377D01*
X159055643Y-95042801D01*
X158875000Y-94772449D01*
X158875000Y-85341113D01*
X159079449Y-85231833D01*
X159267502Y-85077502D01*
X159421833Y-84889449D01*
X159536511Y-84674901D01*
X159607130Y-84442102D01*
X159630975Y-84200000D01*
X159607130Y-83957898D01*
X159536511Y-83725099D01*
X159421833Y-83510551D01*
X159267502Y-83322498D01*
X159118238Y-83200000D01*
X159267502Y-83077502D01*
X159421833Y-82889449D01*
X159536511Y-82674901D01*
X159607130Y-82442102D01*
X159630975Y-82200000D01*
X159607130Y-81957898D01*
X159536511Y-81725099D01*
X159421833Y-81510551D01*
X159267502Y-81322498D01*
X159118238Y-81200000D01*
X159267502Y-81077502D01*
X159421833Y-80889449D01*
X159536511Y-80674901D01*
X159607130Y-80442102D01*
X159630975Y-80200000D01*
X159607130Y-79957898D01*
X159536511Y-79725099D01*
X159421833Y-79510551D01*
X159267502Y-79322498D01*
X159118238Y-79200000D01*
X159267502Y-79077502D01*
X159421833Y-78889449D01*
X159536511Y-78674901D01*
X159607130Y-78442102D01*
X159630975Y-78200000D01*
X159607130Y-77957898D01*
X159536511Y-77725099D01*
X159421833Y-77510551D01*
X159295564Y-77356691D01*
X159344494Y-77330537D01*
X159441185Y-77251185D01*
X159520537Y-77154494D01*
X159579502Y-77044180D01*
X159615812Y-76924482D01*
X159628072Y-76800000D01*
X159625000Y-76485750D01*
X159466250Y-76327000D01*
X158242000Y-76327000D01*
X158242000Y-76347000D01*
X157988000Y-76347000D01*
X157988000Y-76327000D01*
X156763750Y-76327000D01*
X156605000Y-76485750D01*
X156601928Y-76800000D01*
X156614188Y-76924482D01*
X156650498Y-77044180D01*
X156709463Y-77154494D01*
X156788815Y-77251185D01*
X156885506Y-77330537D01*
X156934436Y-77356691D01*
X156866067Y-77440000D01*
X140109802Y-77440000D01*
X138835624Y-76165823D01*
X138869672Y-76083623D01*
X138938000Y-75740118D01*
X138938000Y-75600000D01*
X156601928Y-75600000D01*
X156605000Y-75914250D01*
X156763750Y-76073000D01*
X157988000Y-76073000D01*
X157988000Y-75123750D01*
X158242000Y-75123750D01*
X158242000Y-76073000D01*
X159466250Y-76073000D01*
X159625000Y-75914250D01*
X159628072Y-75600000D01*
X159615812Y-75475518D01*
X159579502Y-75355820D01*
X159520537Y-75245506D01*
X159441185Y-75148815D01*
X159344494Y-75069463D01*
X159234180Y-75010498D01*
X159114482Y-74974188D01*
X158990000Y-74961928D01*
X158400750Y-74965000D01*
X158242000Y-75123750D01*
X157988000Y-75123750D01*
X157829250Y-74965000D01*
X157240000Y-74961928D01*
X157115518Y-74974188D01*
X156995820Y-75010498D01*
X156885506Y-75069463D01*
X156788815Y-75148815D01*
X156709463Y-75245506D01*
X156650498Y-75355820D01*
X156614188Y-75475518D01*
X156601928Y-75600000D01*
X138938000Y-75600000D01*
X138938000Y-75389882D01*
X138869672Y-75046377D01*
X138735643Y-74722801D01*
X138541063Y-74431591D01*
X138293409Y-74183937D01*
X138002199Y-73989357D01*
X137678623Y-73855328D01*
X137335118Y-73787000D01*
X136984882Y-73787000D01*
X136641377Y-73855328D01*
X136317801Y-73989357D01*
X136026591Y-74183937D01*
X136015989Y-74194539D01*
X136005724Y-74200026D01*
X135889999Y-74294999D01*
X135795026Y-74410724D01*
X135789539Y-74420989D01*
X135778937Y-74431591D01*
X135584357Y-74722801D01*
X135450328Y-75046377D01*
X135382000Y-75389882D01*
X135382000Y-75740118D01*
X135450328Y-76083623D01*
X135584357Y-76407199D01*
X135778937Y-76698409D01*
X136026591Y-76946063D01*
X136317801Y-77140643D01*
X136641377Y-77274672D01*
X136984882Y-77343000D01*
X137335118Y-77343000D01*
X137678623Y-77274672D01*
X137760823Y-77240624D01*
X139231201Y-78711003D01*
X139254999Y-78740001D01*
X139370724Y-78834974D01*
X139502753Y-78905546D01*
X139646014Y-78949003D01*
X139757667Y-78960000D01*
X139757676Y-78960000D01*
X139794999Y-78963676D01*
X139832322Y-78960000D01*
X156866067Y-78960000D01*
X156962498Y-79077502D01*
X157111762Y-79200000D01*
X156962498Y-79322498D01*
X156866067Y-79440000D01*
X147167322Y-79440000D01*
X147129999Y-79436324D01*
X147092676Y-79440000D01*
X147092667Y-79440000D01*
X146981014Y-79450997D01*
X146849713Y-79490826D01*
X146837753Y-79494454D01*
X146705723Y-79565026D01*
X146622083Y-79633668D01*
X146589999Y-79659999D01*
X146566201Y-79688997D01*
X143195199Y-83060000D01*
X140565000Y-83060000D01*
X140565000Y-82974721D01*
X140482953Y-82562244D01*
X140322012Y-82173698D01*
X140228850Y-82034270D01*
X140403838Y-81961788D01*
X140647206Y-81799174D01*
X140854174Y-81592206D01*
X141016788Y-81348838D01*
X141128798Y-81078421D01*
X141185900Y-80791348D01*
X141185900Y-80498652D01*
X141128798Y-80211579D01*
X141016788Y-79941162D01*
X140854174Y-79697794D01*
X140647206Y-79490826D01*
X140403838Y-79328212D01*
X140133421Y-79216202D01*
X139846348Y-79159100D01*
X139553652Y-79159100D01*
X139266579Y-79216202D01*
X138996162Y-79328212D01*
X138752794Y-79490826D01*
X138545826Y-79697794D01*
X138383212Y-79941162D01*
X138271202Y-80211579D01*
X138214100Y-80498652D01*
X138214100Y-80791348D01*
X138265549Y-81050000D01*
X138219721Y-81050000D01*
X137807244Y-81132047D01*
X137418698Y-81292988D01*
X137112292Y-81497721D01*
X137147873Y-81411822D01*
X137248900Y-80903924D01*
X137248900Y-80386076D01*
X137147873Y-79878178D01*
X136949701Y-79399749D01*
X136662000Y-78969174D01*
X136295826Y-78603000D01*
X135865251Y-78315299D01*
X135386822Y-78117127D01*
X134878924Y-78016100D01*
X134361076Y-78016100D01*
X133853178Y-78117127D01*
X133374749Y-78315299D01*
X132944174Y-78603000D01*
X132578000Y-78969174D01*
X132290299Y-79399749D01*
X132092127Y-79878178D01*
X131991100Y-80386076D01*
X131991100Y-80903924D01*
X132092127Y-81411822D01*
X132290299Y-81890251D01*
X132578000Y-82320826D01*
X132944174Y-82687000D01*
X133374749Y-82974701D01*
X133580679Y-83060000D01*
X128942325Y-83060000D01*
X128905000Y-83056324D01*
X128867675Y-83060000D01*
X128867667Y-83060000D01*
X128756014Y-83070997D01*
X128612753Y-83114454D01*
X128480724Y-83185026D01*
X128364999Y-83279999D01*
X128341201Y-83308997D01*
X117440823Y-94209376D01*
X117358623Y-94175328D01*
X117015118Y-94107000D01*
X116664882Y-94107000D01*
X116321377Y-94175328D01*
X115997801Y-94309357D01*
X115706591Y-94503937D01*
X115458937Y-94751591D01*
X115264357Y-95042801D01*
X115130328Y-95366377D01*
X115062000Y-95709882D01*
X104038000Y-95709882D01*
X104038000Y-80498652D01*
X128054100Y-80498652D01*
X128054100Y-80791348D01*
X128111202Y-81078421D01*
X128223212Y-81348838D01*
X128385826Y-81592206D01*
X128592794Y-81799174D01*
X128836162Y-81961788D01*
X129106579Y-82073798D01*
X129393652Y-82130900D01*
X129686348Y-82130900D01*
X129973421Y-82073798D01*
X130243838Y-81961788D01*
X130487206Y-81799174D01*
X130694174Y-81592206D01*
X130856788Y-81348838D01*
X130968798Y-81078421D01*
X131025900Y-80791348D01*
X131025900Y-80498652D01*
X130968798Y-80211579D01*
X130856788Y-79941162D01*
X130821030Y-79887646D01*
X130866938Y-79890694D01*
X131214216Y-79845275D01*
X131545960Y-79732977D01*
X131754736Y-79621384D01*
X131867755Y-79342360D01*
X130810000Y-78284605D01*
X130795858Y-78298748D01*
X130616253Y-78119143D01*
X130630395Y-78105000D01*
X130989605Y-78105000D01*
X132047360Y-79162755D01*
X132326384Y-79049736D01*
X132481556Y-78735751D01*
X132572491Y-78397527D01*
X132595694Y-78048062D01*
X132550275Y-77700784D01*
X132437977Y-77369040D01*
X132326384Y-77160264D01*
X132047360Y-77047245D01*
X130989605Y-78105000D01*
X130630395Y-78105000D01*
X129572640Y-77047245D01*
X129293616Y-77160264D01*
X129138444Y-77474249D01*
X129047509Y-77812473D01*
X129024306Y-78161938D01*
X129069725Y-78509216D01*
X129182023Y-78840960D01*
X129293616Y-79049736D01*
X129563616Y-79159100D01*
X129393652Y-79159100D01*
X129106579Y-79216202D01*
X128836162Y-79328212D01*
X128592794Y-79490826D01*
X128385826Y-79697794D01*
X128223212Y-79941162D01*
X128111202Y-80211579D01*
X128054100Y-80498652D01*
X104038000Y-80498652D01*
X104038000Y-76867640D01*
X129752245Y-76867640D01*
X130810000Y-77925395D01*
X131867755Y-76867640D01*
X131754736Y-76588616D01*
X131440751Y-76433444D01*
X131102527Y-76342509D01*
X130753062Y-76319306D01*
X130405784Y-76364725D01*
X130074040Y-76477023D01*
X129865264Y-76588616D01*
X129752245Y-76867640D01*
X104038000Y-76867640D01*
X104038000Y-69629872D01*
X105080000Y-69629872D01*
X105080000Y-70070128D01*
X105165890Y-70501925D01*
X105334369Y-70908669D01*
X105578962Y-71274729D01*
X105890271Y-71586038D01*
X106256331Y-71830631D01*
X106663075Y-71999110D01*
X107094872Y-72085000D01*
X107535128Y-72085000D01*
X107966925Y-71999110D01*
X108373669Y-71830631D01*
X108739729Y-71586038D01*
X109051038Y-71274729D01*
X109295631Y-70908669D01*
X109464110Y-70501925D01*
X109550000Y-70070128D01*
X109550000Y-69629872D01*
X159690000Y-69629872D01*
X159690000Y-70070128D01*
X159775890Y-70501925D01*
X159944369Y-70908669D01*
X160188962Y-71274729D01*
X160500271Y-71586038D01*
X160866331Y-71830631D01*
X161273075Y-71999110D01*
X161704872Y-72085000D01*
X162145128Y-72085000D01*
X162576925Y-71999110D01*
X162983669Y-71830631D01*
X163349729Y-71586038D01*
X163661038Y-71274729D01*
X163905631Y-70908669D01*
X164074110Y-70501925D01*
X164160000Y-70070128D01*
X164160000Y-69629872D01*
X164074110Y-69198075D01*
X163905631Y-68791331D01*
X163661038Y-68425271D01*
X163349729Y-68113962D01*
X162983669Y-67869369D01*
X162576925Y-67700890D01*
X162145128Y-67615000D01*
X161704872Y-67615000D01*
X161273075Y-67700890D01*
X160866331Y-67869369D01*
X160500271Y-68113962D01*
X160188962Y-68425271D01*
X159944369Y-68791331D01*
X159775890Y-69198075D01*
X159690000Y-69629872D01*
X109550000Y-69629872D01*
X109464110Y-69198075D01*
X109295631Y-68791331D01*
X109051038Y-68425271D01*
X108739729Y-68113962D01*
X108373669Y-67869369D01*
X107966925Y-67700890D01*
X107535128Y-67615000D01*
X107094872Y-67615000D01*
X106663075Y-67700890D01*
X106256331Y-67869369D01*
X105890271Y-68113962D01*
X105578962Y-68425271D01*
X105334369Y-68791331D01*
X105165890Y-69198075D01*
X105080000Y-69629872D01*
X104038000Y-69629872D01*
X104038000Y-66072279D01*
X104067234Y-65774125D01*
X104144448Y-65518378D01*
X104269869Y-65282496D01*
X104438716Y-65075470D01*
X104644554Y-64905187D01*
X104879556Y-64778121D01*
X105134756Y-64699124D01*
X105430882Y-64668000D01*
X163543721Y-64668000D01*
X163841875Y-64697234D01*
G37*
%TD.AperFunction*%
%TD*%
M02*
