%TF.GenerationSoftware,KiCad,Pcbnew,(5.1.12)-1*%
%TF.CreationDate,2021-12-30T22:51:29-05:00*%
%TF.ProjectId,4keymacropad,346b6579-6d61-4637-926f-7061642e6b69,rev?*%
%TF.SameCoordinates,Original*%
%TF.FileFunction,Legend,Top*%
%TF.FilePolarity,Positive*%
%FSLAX46Y46*%
G04 Gerber Fmt 4.6, Leading zero omitted, Abs format (unit mm)*
G04 Created by KiCad (PCBNEW (5.1.12)-1) date 2021-12-30 22:51:29*
%MOMM*%
%LPD*%
G01*
G04 APERTURE LIST*
%ADD10C,0.150000*%
G04 APERTURE END LIST*
D10*
X109222166Y-75662780D02*
X109222166Y-74662780D01*
X109222166Y-75615161D02*
X109126928Y-75662780D01*
X108936452Y-75662780D01*
X108841214Y-75615161D01*
X108793595Y-75567542D01*
X108745976Y-75472304D01*
X108745976Y-75186590D01*
X108793595Y-75091352D01*
X108841214Y-75043733D01*
X108936452Y-74996114D01*
X109126928Y-74996114D01*
X109222166Y-75043733D01*
X110079309Y-75615161D02*
X109984071Y-75662780D01*
X109793595Y-75662780D01*
X109698357Y-75615161D01*
X109650738Y-75519923D01*
X109650738Y-75138971D01*
X109698357Y-75043733D01*
X109793595Y-74996114D01*
X109984071Y-74996114D01*
X110079309Y-75043733D01*
X110126928Y-75138971D01*
X110126928Y-75234209D01*
X109650738Y-75329447D01*
X110507880Y-75615161D02*
X110603119Y-75662780D01*
X110793595Y-75662780D01*
X110888833Y-75615161D01*
X110936452Y-75519923D01*
X110936452Y-75472304D01*
X110888833Y-75377066D01*
X110793595Y-75329447D01*
X110650738Y-75329447D01*
X110555500Y-75281828D01*
X110507880Y-75186590D01*
X110507880Y-75138971D01*
X110555500Y-75043733D01*
X110650738Y-74996114D01*
X110793595Y-74996114D01*
X110888833Y-75043733D01*
X111365023Y-75662780D02*
X111365023Y-74996114D01*
X111365023Y-74662780D02*
X111317404Y-74710400D01*
X111365023Y-74758019D01*
X111412642Y-74710400D01*
X111365023Y-74662780D01*
X111365023Y-74758019D01*
X112269785Y-74996114D02*
X112269785Y-75805638D01*
X112222166Y-75900876D01*
X112174547Y-75948495D01*
X112079309Y-75996114D01*
X111936452Y-75996114D01*
X111841214Y-75948495D01*
X112269785Y-75615161D02*
X112174547Y-75662780D01*
X111984071Y-75662780D01*
X111888833Y-75615161D01*
X111841214Y-75567542D01*
X111793595Y-75472304D01*
X111793595Y-75186590D01*
X111841214Y-75091352D01*
X111888833Y-75043733D01*
X111984071Y-74996114D01*
X112174547Y-74996114D01*
X112269785Y-75043733D01*
X112745976Y-74996114D02*
X112745976Y-75662780D01*
X112745976Y-75091352D02*
X112793595Y-75043733D01*
X112888833Y-74996114D01*
X113031690Y-74996114D01*
X113126928Y-75043733D01*
X113174547Y-75138971D01*
X113174547Y-75662780D01*
X114031690Y-75615161D02*
X113936452Y-75662780D01*
X113745976Y-75662780D01*
X113650738Y-75615161D01*
X113603119Y-75519923D01*
X113603119Y-75138971D01*
X113650738Y-75043733D01*
X113745976Y-74996114D01*
X113936452Y-74996114D01*
X114031690Y-75043733D01*
X114079309Y-75138971D01*
X114079309Y-75234209D01*
X113603119Y-75329447D01*
X114936452Y-75662780D02*
X114936452Y-74662780D01*
X114936452Y-75615161D02*
X114841214Y-75662780D01*
X114650738Y-75662780D01*
X114555500Y-75615161D01*
X114507880Y-75567542D01*
X114460261Y-75472304D01*
X114460261Y-75186590D01*
X114507880Y-75091352D01*
X114555500Y-75043733D01*
X114650738Y-74996114D01*
X114841214Y-74996114D01*
X114936452Y-75043733D01*
X116174547Y-75662780D02*
X116174547Y-74662780D01*
X116174547Y-75043733D02*
X116269785Y-74996114D01*
X116460261Y-74996114D01*
X116555500Y-75043733D01*
X116603119Y-75091352D01*
X116650738Y-75186590D01*
X116650738Y-75472304D01*
X116603119Y-75567542D01*
X116555500Y-75615161D01*
X116460261Y-75662780D01*
X116269785Y-75662780D01*
X116174547Y-75615161D01*
X116984071Y-74996114D02*
X117222166Y-75662780D01*
X117460261Y-74996114D02*
X117222166Y-75662780D01*
X117126928Y-75900876D01*
X117079309Y-75948495D01*
X116984071Y-75996114D01*
X118603119Y-75662780D02*
X118603119Y-74662780D01*
X118984071Y-74662780D01*
X119079309Y-74710400D01*
X119126928Y-74758019D01*
X119174547Y-74853257D01*
X119174547Y-74996114D01*
X119126928Y-75091352D01*
X119079309Y-75138971D01*
X118984071Y-75186590D01*
X118603119Y-75186590D01*
X119984071Y-75615161D02*
X119888833Y-75662780D01*
X119698357Y-75662780D01*
X119603119Y-75615161D01*
X119555500Y-75519923D01*
X119555500Y-75138971D01*
X119603119Y-75043733D01*
X119698357Y-74996114D01*
X119888833Y-74996114D01*
X119984071Y-75043733D01*
X120031690Y-75138971D01*
X120031690Y-75234209D01*
X119555500Y-75329447D01*
X120317404Y-74996114D02*
X120698357Y-74996114D01*
X120460261Y-74662780D02*
X120460261Y-75519923D01*
X120507880Y-75615161D01*
X120603119Y-75662780D01*
X120698357Y-75662780D01*
X121412642Y-75615161D02*
X121317404Y-75662780D01*
X121126928Y-75662780D01*
X121031690Y-75615161D01*
X120984071Y-75519923D01*
X120984071Y-75138971D01*
X121031690Y-75043733D01*
X121126928Y-74996114D01*
X121317404Y-74996114D01*
X121412642Y-75043733D01*
X121460261Y-75138971D01*
X121460261Y-75234209D01*
X120984071Y-75329447D01*
X121888833Y-75662780D02*
X121888833Y-74996114D01*
X121888833Y-75186590D02*
X121936452Y-75091352D01*
X121984071Y-75043733D01*
X122079309Y-74996114D01*
X122174547Y-74996114D01*
X123126928Y-74662780D02*
X123698357Y-74662780D01*
X123412642Y-75662780D02*
X123412642Y-74662780D01*
X124174547Y-75662780D02*
X124079309Y-75615161D01*
X124031690Y-75567542D01*
X123984071Y-75472304D01*
X123984071Y-75186590D01*
X124031690Y-75091352D01*
X124079309Y-75043733D01*
X124174547Y-74996114D01*
X124317404Y-74996114D01*
X124412642Y-75043733D01*
X124460261Y-75091352D01*
X124507880Y-75186590D01*
X124507880Y-75472304D01*
X124460261Y-75567542D01*
X124412642Y-75615161D01*
X124317404Y-75662780D01*
X124174547Y-75662780D01*
X108793595Y-77312780D02*
X108793595Y-76646114D01*
X108793595Y-76741352D02*
X108841214Y-76693733D01*
X108936452Y-76646114D01*
X109079309Y-76646114D01*
X109174547Y-76693733D01*
X109222166Y-76788971D01*
X109222166Y-77312780D01*
X109222166Y-76788971D02*
X109269785Y-76693733D01*
X109365023Y-76646114D01*
X109507880Y-76646114D01*
X109603119Y-76693733D01*
X109650738Y-76788971D01*
X109650738Y-77312780D01*
X110126928Y-77312780D02*
X110126928Y-76646114D01*
X110126928Y-76312780D02*
X110079309Y-76360400D01*
X110126928Y-76408019D01*
X110174547Y-76360400D01*
X110126928Y-76312780D01*
X110126928Y-76408019D01*
X110507880Y-77312780D02*
X111031690Y-76646114D01*
X110507880Y-76646114D02*
X111031690Y-77312780D01*
X111412642Y-76646114D02*
X111412642Y-77646114D01*
X111412642Y-76693733D02*
X111507880Y-76646114D01*
X111698357Y-76646114D01*
X111793595Y-76693733D01*
X111841214Y-76741352D01*
X111888833Y-76836590D01*
X111888833Y-77122304D01*
X111841214Y-77217542D01*
X111793595Y-77265161D01*
X111698357Y-77312780D01*
X111507880Y-77312780D01*
X111412642Y-77265161D01*
X112745976Y-77312780D02*
X112745976Y-76788971D01*
X112698357Y-76693733D01*
X112603119Y-76646114D01*
X112412642Y-76646114D01*
X112317404Y-76693733D01*
X112745976Y-77265161D02*
X112650738Y-77312780D01*
X112412642Y-77312780D01*
X112317404Y-77265161D01*
X112269785Y-77169923D01*
X112269785Y-77074685D01*
X112317404Y-76979447D01*
X112412642Y-76931828D01*
X112650738Y-76931828D01*
X112745976Y-76884209D01*
X113650738Y-77312780D02*
X113650738Y-76312780D01*
X113650738Y-77265161D02*
X113555500Y-77312780D01*
X113365023Y-77312780D01*
X113269785Y-77265161D01*
X113222166Y-77217542D01*
X113174547Y-77122304D01*
X113174547Y-76836590D01*
X113222166Y-76741352D01*
X113269785Y-76693733D01*
X113365023Y-76646114D01*
X113555500Y-76646114D01*
X113650738Y-76693733D01*
X115317404Y-77312780D02*
X115317404Y-76312780D01*
X115317404Y-77265161D02*
X115222166Y-77312780D01*
X115031690Y-77312780D01*
X114936452Y-77265161D01*
X114888833Y-77217542D01*
X114841214Y-77122304D01*
X114841214Y-76836590D01*
X114888833Y-76741352D01*
X114936452Y-76693733D01*
X115031690Y-76646114D01*
X115222166Y-76646114D01*
X115317404Y-76693733D01*
X115793595Y-76646114D02*
X115793595Y-77646114D01*
X115793595Y-76693733D02*
X115888833Y-76646114D01*
X116079309Y-76646114D01*
X116174547Y-76693733D01*
X116222166Y-76741352D01*
X116269785Y-76836590D01*
X116269785Y-77122304D01*
X116222166Y-77217542D01*
X116174547Y-77265161D01*
X116079309Y-77312780D01*
X115888833Y-77312780D01*
X115793595Y-77265161D01*
X117126928Y-77312780D02*
X117126928Y-76788971D01*
X117079309Y-76693733D01*
X116984071Y-76646114D01*
X116793595Y-76646114D01*
X116698357Y-76693733D01*
X117126928Y-77265161D02*
X117031690Y-77312780D01*
X116793595Y-77312780D01*
X116698357Y-77265161D01*
X116650738Y-77169923D01*
X116650738Y-77074685D01*
X116698357Y-76979447D01*
X116793595Y-76931828D01*
X117031690Y-76931828D01*
X117126928Y-76884209D01*
X118031690Y-77312780D02*
X118031690Y-76312780D01*
X118031690Y-77265161D02*
X117936452Y-77312780D01*
X117745976Y-77312780D01*
X117650738Y-77265161D01*
X117603119Y-77217542D01*
X117555500Y-77122304D01*
X117555500Y-76836590D01*
X117603119Y-76741352D01*
X117650738Y-76693733D01*
X117745976Y-76646114D01*
X117936452Y-76646114D01*
X118031690Y-76693733D01*
X119269785Y-77312780D02*
X119269785Y-76312780D01*
X119269785Y-76693733D02*
X119365023Y-76646114D01*
X119555500Y-76646114D01*
X119650738Y-76693733D01*
X119698357Y-76741352D01*
X119745976Y-76836590D01*
X119745976Y-77122304D01*
X119698357Y-77217542D01*
X119650738Y-77265161D01*
X119555500Y-77312780D01*
X119365023Y-77312780D01*
X119269785Y-77265161D01*
X120317404Y-77312780D02*
X120222166Y-77265161D01*
X120174547Y-77217542D01*
X120126928Y-77122304D01*
X120126928Y-76836590D01*
X120174547Y-76741352D01*
X120222166Y-76693733D01*
X120317404Y-76646114D01*
X120460261Y-76646114D01*
X120555500Y-76693733D01*
X120603119Y-76741352D01*
X120650738Y-76836590D01*
X120650738Y-77122304D01*
X120603119Y-77217542D01*
X120555500Y-77265161D01*
X120460261Y-77312780D01*
X120317404Y-77312780D01*
X121507880Y-77312780D02*
X121507880Y-76788971D01*
X121460261Y-76693733D01*
X121365023Y-76646114D01*
X121174547Y-76646114D01*
X121079309Y-76693733D01*
X121507880Y-77265161D02*
X121412642Y-77312780D01*
X121174547Y-77312780D01*
X121079309Y-77265161D01*
X121031690Y-77169923D01*
X121031690Y-77074685D01*
X121079309Y-76979447D01*
X121174547Y-76931828D01*
X121412642Y-76931828D01*
X121507880Y-76884209D01*
X121984071Y-77312780D02*
X121984071Y-76646114D01*
X121984071Y-76836590D02*
X122031690Y-76741352D01*
X122079309Y-76693733D01*
X122174547Y-76646114D01*
X122269785Y-76646114D01*
X123031690Y-77312780D02*
X123031690Y-76312780D01*
X123031690Y-77265161D02*
X122936452Y-77312780D01*
X122745976Y-77312780D01*
X122650738Y-77265161D01*
X122603119Y-77217542D01*
X122555500Y-77122304D01*
X122555500Y-76836590D01*
X122603119Y-76741352D01*
X122650738Y-76693733D01*
X122745976Y-76646114D01*
X122936452Y-76646114D01*
X123031690Y-76693733D01*
X108793595Y-78962780D02*
X108793595Y-77962780D01*
X109031690Y-77962780D01*
X109174547Y-78010400D01*
X109269785Y-78105638D01*
X109317404Y-78200876D01*
X109365023Y-78391352D01*
X109365023Y-78534209D01*
X109317404Y-78724685D01*
X109269785Y-78819923D01*
X109174547Y-78915161D01*
X109031690Y-78962780D01*
X108793595Y-78962780D01*
X109793595Y-78962780D02*
X109793595Y-77962780D01*
X110174547Y-77962780D01*
X110269785Y-78010400D01*
X110317404Y-78058019D01*
X110365023Y-78153257D01*
X110365023Y-78296114D01*
X110317404Y-78391352D01*
X110269785Y-78438971D01*
X110174547Y-78486590D01*
X109793595Y-78486590D01*
X111317404Y-78962780D02*
X110745976Y-78962780D01*
X111031690Y-78962780D02*
X111031690Y-77962780D01*
X110936452Y-78105638D01*
X110841214Y-78200876D01*
X110745976Y-78248495D01*
X148607014Y-74301000D02*
X148535585Y-74265285D01*
X148428442Y-74265285D01*
X148321300Y-74301000D01*
X148249871Y-74372428D01*
X148214157Y-74443857D01*
X148178442Y-74586714D01*
X148178442Y-74693857D01*
X148214157Y-74836714D01*
X148249871Y-74908142D01*
X148321300Y-74979571D01*
X148428442Y-75015285D01*
X148499871Y-75015285D01*
X148607014Y-74979571D01*
X148642728Y-74943857D01*
X148642728Y-74693857D01*
X148499871Y-74693857D01*
X148964157Y-75015285D02*
X148964157Y-74265285D01*
X149392728Y-75015285D01*
X149392728Y-74265285D01*
X149749871Y-75015285D02*
X149749871Y-74265285D01*
X149928442Y-74265285D01*
X150035585Y-74301000D01*
X150107014Y-74372428D01*
X150142728Y-74443857D01*
X150178442Y-74586714D01*
X150178442Y-74693857D01*
X150142728Y-74836714D01*
X150107014Y-74908142D01*
X150035585Y-74979571D01*
X149928442Y-75015285D01*
X149749871Y-75015285D01*
X161255200Y-95386085D02*
X161005200Y-95028942D01*
X160826628Y-95386085D02*
X160826628Y-94636085D01*
X161112342Y-94636085D01*
X161183771Y-94671800D01*
X161219485Y-94707514D01*
X161255200Y-94778942D01*
X161255200Y-94886085D01*
X161219485Y-94957514D01*
X161183771Y-94993228D01*
X161112342Y-95028942D01*
X160826628Y-95028942D01*
X161576628Y-95386085D02*
X161576628Y-94636085D01*
X162326628Y-94671800D02*
X162255200Y-94636085D01*
X162148057Y-94636085D01*
X162040914Y-94671800D01*
X161969485Y-94743228D01*
X161933771Y-94814657D01*
X161898057Y-94957514D01*
X161898057Y-95064657D01*
X161933771Y-95207514D01*
X161969485Y-95278942D01*
X162040914Y-95350371D01*
X162148057Y-95386085D01*
X162219485Y-95386085D01*
X162326628Y-95350371D01*
X162362342Y-95314657D01*
X162362342Y-95064657D01*
X162219485Y-95064657D01*
X162683771Y-95386085D02*
X162683771Y-94636085D01*
X162683771Y-94993228D02*
X163112342Y-94993228D01*
X163112342Y-95386085D02*
X163112342Y-94636085D01*
X163362342Y-94636085D02*
X163790914Y-94636085D01*
X163576628Y-95386085D02*
X163576628Y-94636085D01*
X148032500Y-91830085D02*
X148032500Y-91080085D01*
X148211071Y-91080085D01*
X148318214Y-91115800D01*
X148389642Y-91187228D01*
X148425357Y-91258657D01*
X148461071Y-91401514D01*
X148461071Y-91508657D01*
X148425357Y-91651514D01*
X148389642Y-91722942D01*
X148318214Y-91794371D01*
X148211071Y-91830085D01*
X148032500Y-91830085D01*
X148925357Y-91080085D02*
X149068214Y-91080085D01*
X149139642Y-91115800D01*
X149211071Y-91187228D01*
X149246785Y-91330085D01*
X149246785Y-91580085D01*
X149211071Y-91722942D01*
X149139642Y-91794371D01*
X149068214Y-91830085D01*
X148925357Y-91830085D01*
X148853928Y-91794371D01*
X148782500Y-91722942D01*
X148746785Y-91580085D01*
X148746785Y-91330085D01*
X148782500Y-91187228D01*
X148853928Y-91115800D01*
X148925357Y-91080085D01*
X149496785Y-91080085D02*
X149675357Y-91830085D01*
X149818214Y-91294371D01*
X149961071Y-91830085D01*
X150139642Y-91080085D01*
X150425357Y-91830085D02*
X150425357Y-91080085D01*
X150853928Y-91830085D01*
X150853928Y-91080085D01*
X148433214Y-89950485D02*
X148076071Y-89950485D01*
X148076071Y-89200485D01*
X148683214Y-89557628D02*
X148933214Y-89557628D01*
X149040357Y-89950485D02*
X148683214Y-89950485D01*
X148683214Y-89200485D01*
X149040357Y-89200485D01*
X149611785Y-89557628D02*
X149361785Y-89557628D01*
X149361785Y-89950485D02*
X149361785Y-89200485D01*
X149718928Y-89200485D01*
X149897500Y-89200485D02*
X150326071Y-89200485D01*
X150111785Y-89950485D02*
X150111785Y-89200485D01*
X148252957Y-75941685D02*
X148252957Y-76548828D01*
X148288671Y-76620257D01*
X148324385Y-76655971D01*
X148395814Y-76691685D01*
X148538671Y-76691685D01*
X148610100Y-76655971D01*
X148645814Y-76620257D01*
X148681528Y-76548828D01*
X148681528Y-75941685D01*
X149038671Y-76691685D02*
X149038671Y-75941685D01*
X149324385Y-75941685D01*
X149395814Y-75977400D01*
X149431528Y-76013114D01*
X149467242Y-76084542D01*
X149467242Y-76191685D01*
X149431528Y-76263114D01*
X149395814Y-76298828D01*
X149324385Y-76334542D01*
X149038671Y-76334542D01*
%TO.C,SW3*%
X141620000Y-93965000D02*
X141620000Y-94965000D01*
X140620000Y-107965000D02*
X141620000Y-107965000D01*
X141620000Y-93965000D02*
X140620000Y-93965000D01*
X141620000Y-106965000D02*
X141620000Y-107965000D01*
X127620000Y-107965000D02*
X127620000Y-106965000D01*
X128620000Y-93965000D02*
X127620000Y-93965000D01*
X127620000Y-107965000D02*
X128620000Y-107965000D01*
X127620000Y-94965000D02*
X127620000Y-93965000D01*
%TO.C,SW1*%
X127620000Y-76042000D02*
X127620000Y-75042000D01*
X127620000Y-89042000D02*
X128620000Y-89042000D01*
X128620000Y-75042000D02*
X127620000Y-75042000D01*
X127620000Y-89042000D02*
X127620000Y-88042000D01*
X141620000Y-88042000D02*
X141620000Y-89042000D01*
X141620000Y-75042000D02*
X140620000Y-75042000D01*
X140620000Y-89042000D02*
X141620000Y-89042000D01*
X141620000Y-75042000D02*
X141620000Y-76042000D01*
%TO.C,SW2*%
X122570000Y-93965000D02*
X122570000Y-94965000D01*
X121570000Y-107965000D02*
X122570000Y-107965000D01*
X122570000Y-93965000D02*
X121570000Y-93965000D01*
X122570000Y-106965000D02*
X122570000Y-107965000D01*
X108570000Y-107965000D02*
X108570000Y-106965000D01*
X109570000Y-93965000D02*
X108570000Y-93965000D01*
X108570000Y-107965000D02*
X109570000Y-107965000D01*
X108570000Y-94965000D02*
X108570000Y-93965000D01*
%TO.C,SW4*%
X146670000Y-94965000D02*
X146670000Y-93965000D01*
X146670000Y-107965000D02*
X147670000Y-107965000D01*
X147670000Y-93965000D02*
X146670000Y-93965000D01*
X146670000Y-107965000D02*
X146670000Y-106965000D01*
X160670000Y-106965000D02*
X160670000Y-107965000D01*
X160670000Y-93965000D02*
X159670000Y-93965000D01*
X159670000Y-107965000D02*
X160670000Y-107965000D01*
X160670000Y-93965000D02*
X160670000Y-94965000D01*
%TO.C,SW3*%
X133286666Y-93114761D02*
X133429523Y-93162380D01*
X133667619Y-93162380D01*
X133762857Y-93114761D01*
X133810476Y-93067142D01*
X133858095Y-92971904D01*
X133858095Y-92876666D01*
X133810476Y-92781428D01*
X133762857Y-92733809D01*
X133667619Y-92686190D01*
X133477142Y-92638571D01*
X133381904Y-92590952D01*
X133334285Y-92543333D01*
X133286666Y-92448095D01*
X133286666Y-92352857D01*
X133334285Y-92257619D01*
X133381904Y-92210000D01*
X133477142Y-92162380D01*
X133715238Y-92162380D01*
X133858095Y-92210000D01*
X134191428Y-92162380D02*
X134429523Y-93162380D01*
X134620000Y-92448095D01*
X134810476Y-93162380D01*
X135048571Y-92162380D01*
X135334285Y-92162380D02*
X135953333Y-92162380D01*
X135620000Y-92543333D01*
X135762857Y-92543333D01*
X135858095Y-92590952D01*
X135905714Y-92638571D01*
X135953333Y-92733809D01*
X135953333Y-92971904D01*
X135905714Y-93067142D01*
X135858095Y-93114761D01*
X135762857Y-93162380D01*
X135477142Y-93162380D01*
X135381904Y-93114761D01*
X135334285Y-93067142D01*
%TO.C,SW1*%
X133286666Y-74191761D02*
X133429523Y-74239380D01*
X133667619Y-74239380D01*
X133762857Y-74191761D01*
X133810476Y-74144142D01*
X133858095Y-74048904D01*
X133858095Y-73953666D01*
X133810476Y-73858428D01*
X133762857Y-73810809D01*
X133667619Y-73763190D01*
X133477142Y-73715571D01*
X133381904Y-73667952D01*
X133334285Y-73620333D01*
X133286666Y-73525095D01*
X133286666Y-73429857D01*
X133334285Y-73334619D01*
X133381904Y-73287000D01*
X133477142Y-73239380D01*
X133715238Y-73239380D01*
X133858095Y-73287000D01*
X134191428Y-73239380D02*
X134429523Y-74239380D01*
X134620000Y-73525095D01*
X134810476Y-74239380D01*
X135048571Y-73239380D01*
X135953333Y-74239380D02*
X135381904Y-74239380D01*
X135667619Y-74239380D02*
X135667619Y-73239380D01*
X135572380Y-73382238D01*
X135477142Y-73477476D01*
X135381904Y-73525095D01*
%TO.C,SW2*%
X114236666Y-93114761D02*
X114379523Y-93162380D01*
X114617619Y-93162380D01*
X114712857Y-93114761D01*
X114760476Y-93067142D01*
X114808095Y-92971904D01*
X114808095Y-92876666D01*
X114760476Y-92781428D01*
X114712857Y-92733809D01*
X114617619Y-92686190D01*
X114427142Y-92638571D01*
X114331904Y-92590952D01*
X114284285Y-92543333D01*
X114236666Y-92448095D01*
X114236666Y-92352857D01*
X114284285Y-92257619D01*
X114331904Y-92210000D01*
X114427142Y-92162380D01*
X114665238Y-92162380D01*
X114808095Y-92210000D01*
X115141428Y-92162380D02*
X115379523Y-93162380D01*
X115570000Y-92448095D01*
X115760476Y-93162380D01*
X115998571Y-92162380D01*
X116331904Y-92257619D02*
X116379523Y-92210000D01*
X116474761Y-92162380D01*
X116712857Y-92162380D01*
X116808095Y-92210000D01*
X116855714Y-92257619D01*
X116903333Y-92352857D01*
X116903333Y-92448095D01*
X116855714Y-92590952D01*
X116284285Y-93162380D01*
X116903333Y-93162380D01*
%TO.C,SW4*%
X152336666Y-93114761D02*
X152479523Y-93162380D01*
X152717619Y-93162380D01*
X152812857Y-93114761D01*
X152860476Y-93067142D01*
X152908095Y-92971904D01*
X152908095Y-92876666D01*
X152860476Y-92781428D01*
X152812857Y-92733809D01*
X152717619Y-92686190D01*
X152527142Y-92638571D01*
X152431904Y-92590952D01*
X152384285Y-92543333D01*
X152336666Y-92448095D01*
X152336666Y-92352857D01*
X152384285Y-92257619D01*
X152431904Y-92210000D01*
X152527142Y-92162380D01*
X152765238Y-92162380D01*
X152908095Y-92210000D01*
X153241428Y-92162380D02*
X153479523Y-93162380D01*
X153670000Y-92448095D01*
X153860476Y-93162380D01*
X154098571Y-92162380D01*
X154908095Y-92495714D02*
X154908095Y-93162380D01*
X154670000Y-92114761D02*
X154431904Y-92829047D01*
X155050952Y-92829047D01*
%TD*%
M02*
