M48
; DRILL file {KiCad (5.1.12)-1} date 12/31/21 17:27:07
; FORMAT={-:-/ absolute / inch / decimal}
; #@! TF.CreationDate,2021-12-31T17:27:07-05:00
; #@! TF.GenerationSoftware,Kicad,Pcbnew,(5.1.12)-1
; #@! TF.FileFunction,NonPlated,1,2,NPTH
FMAT,2
INCH
T1C0.0670
T2C0.0866
T3C0.1181
T4C0.1570
%
G90
G05
T1
X4.35Y-3.975
X4.75Y-3.975
X5.1Y-3.23
X5.1Y-3.975
X5.5Y-3.23
X5.5Y-3.975
X5.85Y-3.975
X6.25Y-3.975
T2
X3.985Y-3.0325
X3.985Y-4.18
X6.6025Y-3.0325
X6.605Y-4.1775
T3
X4.45Y-4.175
X4.7Y-4.075
X5.2Y-3.43
X5.2Y-4.175
X5.45Y-3.33
X5.45Y-4.075
X5.95Y-4.175
X6.2Y-4.075
T4
X4.55Y-3.975
X5.3Y-3.23
X5.3Y-3.975
X6.05Y-3.975
T0
M30
