%TF.GenerationSoftware,KiCad,Pcbnew,(5.1.12)-1*%
%TF.CreationDate,2021-12-30T22:51:29-05:00*%
%TF.ProjectId,4keymacropad,346b6579-6d61-4637-926f-7061642e6b69,rev?*%
%TF.SameCoordinates,Original*%
%TF.FileFunction,Copper,L1,Top*%
%TF.FilePolarity,Positive*%
%FSLAX46Y46*%
G04 Gerber Fmt 4.6, Leading zero omitted, Abs format (unit mm)*
G04 Created by KiCad (PCBNEW (5.1.12)-1) date 2021-12-30 22:51:29*
%MOMM*%
%LPD*%
G01*
G04 APERTURE LIST*
%TA.AperFunction,ComponentPad*%
%ADD10C,2.286000*%
%TD*%
%TA.AperFunction,ComponentPad*%
%ADD11O,1.750000X1.200000*%
%TD*%
%TA.AperFunction,Conductor*%
%ADD12C,0.250000*%
%TD*%
%TA.AperFunction,Conductor*%
%ADD13C,0.254000*%
%TD*%
%TA.AperFunction,Conductor*%
%ADD14C,0.100000*%
%TD*%
G04 APERTURE END LIST*
D10*
%TO.P,SW3,1*%
%TO.N,Net-(J1-Pad4)*%
X137160000Y-95885000D03*
%TO.P,SW3,2*%
%TO.N,GND*%
X130810000Y-98425000D03*
%TD*%
%TO.P,SW1,2*%
%TO.N,GND*%
X130810000Y-79502000D03*
%TO.P,SW1,1*%
%TO.N,Net-(J1-Pad2)*%
X137160000Y-76962000D03*
%TD*%
%TO.P,J1,1*%
%TO.N,GND*%
%TA.AperFunction,ComponentPad*%
G36*
G01*
X164919499Y-85696500D02*
X166169501Y-85696500D01*
G75*
G02*
X166419500Y-85946499I0J-249999D01*
G01*
X166419500Y-86646501D01*
G75*
G02*
X166169501Y-86896500I-249999J0D01*
G01*
X164919499Y-86896500D01*
G75*
G02*
X164669500Y-86646501I0J249999D01*
G01*
X164669500Y-85946499D01*
G75*
G02*
X164919499Y-85696500I249999J0D01*
G01*
G37*
%TD.AperFunction*%
D11*
%TO.P,J1,2*%
%TO.N,Net-(J1-Pad2)*%
X165544500Y-88296500D03*
%TO.P,J1,3*%
%TO.N,Net-(J1-Pad3)*%
X165544500Y-90296500D03*
%TO.P,J1,4*%
%TO.N,Net-(J1-Pad4)*%
X165544500Y-92296500D03*
%TO.P,J1,5*%
%TO.N,Net-(J1-Pad5)*%
X165544500Y-94296500D03*
%TD*%
D10*
%TO.P,SW2,1*%
%TO.N,Net-(J1-Pad3)*%
X118110000Y-95885000D03*
%TO.P,SW2,2*%
%TO.N,GND*%
X111760000Y-98425000D03*
%TD*%
%TO.P,SW4,2*%
%TO.N,GND*%
X149860000Y-98425000D03*
%TO.P,SW4,1*%
%TO.N,Net-(J1-Pad5)*%
X156210000Y-95885000D03*
%TD*%
D12*
%TO.N,Net-(J1-Pad2)*%
X154210000Y-76962000D02*
X165544500Y-88296500D01*
X137160000Y-76962000D02*
X154210000Y-76962000D01*
%TO.N,Net-(J1-Pad3)*%
X126018002Y-95885000D02*
X118110000Y-95885000D01*
X131606502Y-90296500D02*
X165544500Y-90296500D01*
X126018002Y-95885000D02*
X131606502Y-90296500D01*
%TO.N,Net-(J1-Pad4)*%
X140748500Y-92296500D02*
X137160000Y-95885000D01*
X165544500Y-92296500D02*
X140748500Y-92296500D01*
%TO.N,Net-(J1-Pad5)*%
X163956000Y-95885000D02*
X165544500Y-94296500D01*
X156210000Y-95885000D02*
X163956000Y-95885000D01*
%TO.N,GND*%
X134818001Y-75493999D02*
X130810000Y-79502000D01*
X157408999Y-75493999D02*
X134818001Y-75493999D01*
X111760000Y-96935554D02*
X111760000Y-98425000D01*
X129193554Y-79502000D02*
X111760000Y-96935554D01*
X130810000Y-79502000D02*
X129193554Y-79502000D01*
X111760000Y-98425000D02*
X149860000Y-98425000D01*
X157408999Y-78160999D02*
X165544500Y-86296500D01*
X157408999Y-75493999D02*
X157408999Y-78160999D01*
%TD*%
D13*
%TO.N,GND*%
X170895385Y-71707630D02*
X171400280Y-71860067D01*
X171865951Y-72107669D01*
X172274660Y-72441005D01*
X172610836Y-72847372D01*
X172861683Y-73311303D01*
X173017640Y-73815115D01*
X173076000Y-74370377D01*
X173073692Y-106921519D01*
X172883965Y-107738687D01*
X172557504Y-108535826D01*
X172107794Y-109270515D01*
X171546408Y-109923852D01*
X170887790Y-110479027D01*
X170148875Y-110921764D01*
X169348690Y-111240663D01*
X168504217Y-111428324D01*
X167743514Y-111481044D01*
X134492858Y-111544500D01*
X101245507Y-111544500D01*
X100360382Y-111473285D01*
X99523847Y-111267812D01*
X98730932Y-110931239D01*
X98002025Y-110472222D01*
X97355883Y-109902573D01*
X96809129Y-109236945D01*
X96375827Y-108492456D01*
X96067132Y-107688280D01*
X95889795Y-106839415D01*
X95846500Y-106151253D01*
X95846500Y-106001117D01*
X99484000Y-106001117D01*
X99484000Y-106342883D01*
X99550675Y-106678081D01*
X99681463Y-106993831D01*
X99871337Y-107277998D01*
X100113002Y-107519663D01*
X100397169Y-107709537D01*
X100712919Y-107840325D01*
X101048117Y-107907000D01*
X101389883Y-107907000D01*
X101725081Y-107840325D01*
X102040831Y-107709537D01*
X102324998Y-107519663D01*
X102566663Y-107277998D01*
X102756537Y-106993831D01*
X102887325Y-106678081D01*
X102954000Y-106342883D01*
X102954000Y-106001117D01*
X102920902Y-105834721D01*
X110895000Y-105834721D01*
X110895000Y-106255279D01*
X110977047Y-106667756D01*
X111137988Y-107056302D01*
X111371637Y-107405983D01*
X111669017Y-107703363D01*
X112018698Y-107937012D01*
X112407244Y-108097953D01*
X112819721Y-108180000D01*
X113240279Y-108180000D01*
X113652756Y-108097953D01*
X114041302Y-107937012D01*
X114390983Y-107703363D01*
X114688363Y-107405983D01*
X114922012Y-107056302D01*
X115082953Y-106667756D01*
X115165000Y-106255279D01*
X115165000Y-105834721D01*
X129945000Y-105834721D01*
X129945000Y-106255279D01*
X130027047Y-106667756D01*
X130187988Y-107056302D01*
X130421637Y-107405983D01*
X130719017Y-107703363D01*
X131068698Y-107937012D01*
X131457244Y-108097953D01*
X131869721Y-108180000D01*
X132290279Y-108180000D01*
X132702756Y-108097953D01*
X133091302Y-107937012D01*
X133440983Y-107703363D01*
X133738363Y-107405983D01*
X133972012Y-107056302D01*
X134132953Y-106667756D01*
X134215000Y-106255279D01*
X134215000Y-105834721D01*
X148995000Y-105834721D01*
X148995000Y-106255279D01*
X149077047Y-106667756D01*
X149237988Y-107056302D01*
X149471637Y-107405983D01*
X149769017Y-107703363D01*
X150118698Y-107937012D01*
X150507244Y-108097953D01*
X150919721Y-108180000D01*
X151340279Y-108180000D01*
X151752756Y-108097953D01*
X152141302Y-107937012D01*
X152490983Y-107703363D01*
X152788363Y-107405983D01*
X153022012Y-107056302D01*
X153182953Y-106667756D01*
X153265000Y-106255279D01*
X153265000Y-105937617D01*
X166032000Y-105937617D01*
X166032000Y-106279383D01*
X166098675Y-106614581D01*
X166229463Y-106930331D01*
X166419337Y-107214498D01*
X166661002Y-107456163D01*
X166945169Y-107646037D01*
X167260919Y-107776825D01*
X167596117Y-107843500D01*
X167937883Y-107843500D01*
X168273081Y-107776825D01*
X168588831Y-107646037D01*
X168872998Y-107456163D01*
X169114663Y-107214498D01*
X169304537Y-106930331D01*
X169435325Y-106614581D01*
X169502000Y-106279383D01*
X169502000Y-105937617D01*
X169435325Y-105602419D01*
X169304537Y-105286669D01*
X169114663Y-105002502D01*
X168872998Y-104760837D01*
X168588831Y-104570963D01*
X168273081Y-104440175D01*
X167937883Y-104373500D01*
X167596117Y-104373500D01*
X167260919Y-104440175D01*
X166945169Y-104570963D01*
X166661002Y-104760837D01*
X166419337Y-105002502D01*
X166229463Y-105286669D01*
X166098675Y-105602419D01*
X166032000Y-105937617D01*
X153265000Y-105937617D01*
X153265000Y-105834721D01*
X153182953Y-105422244D01*
X153022012Y-105033698D01*
X152788363Y-104684017D01*
X152490983Y-104386637D01*
X152141302Y-104152988D01*
X151752756Y-103992047D01*
X151340279Y-103910000D01*
X150919721Y-103910000D01*
X150507244Y-103992047D01*
X150118698Y-104152988D01*
X149769017Y-104386637D01*
X149471637Y-104684017D01*
X149237988Y-105033698D01*
X149077047Y-105422244D01*
X148995000Y-105834721D01*
X134215000Y-105834721D01*
X134132953Y-105422244D01*
X133972012Y-105033698D01*
X133738363Y-104684017D01*
X133440983Y-104386637D01*
X133091302Y-104152988D01*
X132702756Y-103992047D01*
X132290279Y-103910000D01*
X131869721Y-103910000D01*
X131457244Y-103992047D01*
X131068698Y-104152988D01*
X130719017Y-104386637D01*
X130421637Y-104684017D01*
X130187988Y-105033698D01*
X130027047Y-105422244D01*
X129945000Y-105834721D01*
X115165000Y-105834721D01*
X115082953Y-105422244D01*
X114922012Y-105033698D01*
X114688363Y-104684017D01*
X114390983Y-104386637D01*
X114041302Y-104152988D01*
X113652756Y-103992047D01*
X113240279Y-103910000D01*
X112819721Y-103910000D01*
X112407244Y-103992047D01*
X112018698Y-104152988D01*
X111669017Y-104386637D01*
X111371637Y-104684017D01*
X111137988Y-105033698D01*
X110977047Y-105422244D01*
X110895000Y-105834721D01*
X102920902Y-105834721D01*
X102887325Y-105665919D01*
X102756537Y-105350169D01*
X102566663Y-105066002D01*
X102324998Y-104824337D01*
X102040831Y-104634463D01*
X101725081Y-104503675D01*
X101389883Y-104437000D01*
X101048117Y-104437000D01*
X100712919Y-104503675D01*
X100397169Y-104634463D01*
X100113002Y-104824337D01*
X99871337Y-105066002D01*
X99681463Y-105350169D01*
X99550675Y-105665919D01*
X99484000Y-106001117D01*
X95846500Y-106001117D01*
X95846500Y-100818652D01*
X109004100Y-100818652D01*
X109004100Y-101111348D01*
X109061202Y-101398421D01*
X109173212Y-101668838D01*
X109335826Y-101912206D01*
X109542794Y-102119174D01*
X109786162Y-102281788D01*
X110056579Y-102393798D01*
X110343652Y-102450900D01*
X110636348Y-102450900D01*
X110923421Y-102393798D01*
X111193838Y-102281788D01*
X111437206Y-102119174D01*
X111644174Y-101912206D01*
X111806788Y-101668838D01*
X111918798Y-101398421D01*
X111975900Y-101111348D01*
X111975900Y-100818652D01*
X111953508Y-100706076D01*
X112941100Y-100706076D01*
X112941100Y-101223924D01*
X113042127Y-101731822D01*
X113240299Y-102210251D01*
X113528000Y-102640826D01*
X113894174Y-103007000D01*
X114324749Y-103294701D01*
X114803178Y-103492873D01*
X115311076Y-103593900D01*
X115828924Y-103593900D01*
X116336822Y-103492873D01*
X116815251Y-103294701D01*
X117245826Y-103007000D01*
X117316237Y-102936589D01*
X117245000Y-103294721D01*
X117245000Y-103715279D01*
X117327047Y-104127756D01*
X117487988Y-104516302D01*
X117721637Y-104865983D01*
X118019017Y-105163363D01*
X118368698Y-105397012D01*
X118757244Y-105557953D01*
X119169721Y-105640000D01*
X119590279Y-105640000D01*
X120002756Y-105557953D01*
X120391302Y-105397012D01*
X120740983Y-105163363D01*
X121038363Y-104865983D01*
X121272012Y-104516302D01*
X121432953Y-104127756D01*
X121515000Y-103715279D01*
X121515000Y-103294721D01*
X121432953Y-102882244D01*
X121272012Y-102493698D01*
X121178850Y-102354270D01*
X121353838Y-102281788D01*
X121597206Y-102119174D01*
X121804174Y-101912206D01*
X121966788Y-101668838D01*
X122078798Y-101398421D01*
X122135900Y-101111348D01*
X122135900Y-100818652D01*
X128054100Y-100818652D01*
X128054100Y-101111348D01*
X128111202Y-101398421D01*
X128223212Y-101668838D01*
X128385826Y-101912206D01*
X128592794Y-102119174D01*
X128836162Y-102281788D01*
X129106579Y-102393798D01*
X129393652Y-102450900D01*
X129686348Y-102450900D01*
X129973421Y-102393798D01*
X130243838Y-102281788D01*
X130487206Y-102119174D01*
X130694174Y-101912206D01*
X130856788Y-101668838D01*
X130968798Y-101398421D01*
X131025900Y-101111348D01*
X131025900Y-100818652D01*
X131003508Y-100706076D01*
X131991100Y-100706076D01*
X131991100Y-101223924D01*
X132092127Y-101731822D01*
X132290299Y-102210251D01*
X132578000Y-102640826D01*
X132944174Y-103007000D01*
X133374749Y-103294701D01*
X133853178Y-103492873D01*
X134361076Y-103593900D01*
X134878924Y-103593900D01*
X135386822Y-103492873D01*
X135865251Y-103294701D01*
X136295826Y-103007000D01*
X136366237Y-102936589D01*
X136295000Y-103294721D01*
X136295000Y-103715279D01*
X136377047Y-104127756D01*
X136537988Y-104516302D01*
X136771637Y-104865983D01*
X137069017Y-105163363D01*
X137418698Y-105397012D01*
X137807244Y-105557953D01*
X138219721Y-105640000D01*
X138640279Y-105640000D01*
X139052756Y-105557953D01*
X139441302Y-105397012D01*
X139790983Y-105163363D01*
X140088363Y-104865983D01*
X140322012Y-104516302D01*
X140482953Y-104127756D01*
X140565000Y-103715279D01*
X140565000Y-103294721D01*
X140482953Y-102882244D01*
X140322012Y-102493698D01*
X140228850Y-102354270D01*
X140403838Y-102281788D01*
X140647206Y-102119174D01*
X140854174Y-101912206D01*
X141016788Y-101668838D01*
X141128798Y-101398421D01*
X141185900Y-101111348D01*
X141185900Y-100818652D01*
X147104100Y-100818652D01*
X147104100Y-101111348D01*
X147161202Y-101398421D01*
X147273212Y-101668838D01*
X147435826Y-101912206D01*
X147642794Y-102119174D01*
X147886162Y-102281788D01*
X148156579Y-102393798D01*
X148443652Y-102450900D01*
X148736348Y-102450900D01*
X149023421Y-102393798D01*
X149293838Y-102281788D01*
X149537206Y-102119174D01*
X149744174Y-101912206D01*
X149906788Y-101668838D01*
X150018798Y-101398421D01*
X150075900Y-101111348D01*
X150075900Y-100818652D01*
X150053508Y-100706076D01*
X151041100Y-100706076D01*
X151041100Y-101223924D01*
X151142127Y-101731822D01*
X151340299Y-102210251D01*
X151628000Y-102640826D01*
X151994174Y-103007000D01*
X152424749Y-103294701D01*
X152903178Y-103492873D01*
X153411076Y-103593900D01*
X153928924Y-103593900D01*
X154436822Y-103492873D01*
X154915251Y-103294701D01*
X155345826Y-103007000D01*
X155416237Y-102936589D01*
X155345000Y-103294721D01*
X155345000Y-103715279D01*
X155427047Y-104127756D01*
X155587988Y-104516302D01*
X155821637Y-104865983D01*
X156119017Y-105163363D01*
X156468698Y-105397012D01*
X156857244Y-105557953D01*
X157269721Y-105640000D01*
X157690279Y-105640000D01*
X158102756Y-105557953D01*
X158491302Y-105397012D01*
X158840983Y-105163363D01*
X159138363Y-104865983D01*
X159372012Y-104516302D01*
X159532953Y-104127756D01*
X159615000Y-103715279D01*
X159615000Y-103294721D01*
X159532953Y-102882244D01*
X159372012Y-102493698D01*
X159278850Y-102354270D01*
X159453838Y-102281788D01*
X159697206Y-102119174D01*
X159904174Y-101912206D01*
X160066788Y-101668838D01*
X160178798Y-101398421D01*
X160235900Y-101111348D01*
X160235900Y-100818652D01*
X160178798Y-100531579D01*
X160066788Y-100261162D01*
X159904174Y-100017794D01*
X159697206Y-99810826D01*
X159453838Y-99648212D01*
X159183421Y-99536202D01*
X158896348Y-99479100D01*
X158603652Y-99479100D01*
X158316579Y-99536202D01*
X158046162Y-99648212D01*
X157802794Y-99810826D01*
X157595826Y-100017794D01*
X157433212Y-100261162D01*
X157321202Y-100531579D01*
X157264100Y-100818652D01*
X157264100Y-101111348D01*
X157315549Y-101370000D01*
X157269721Y-101370000D01*
X156857244Y-101452047D01*
X156468698Y-101612988D01*
X156162292Y-101817721D01*
X156197873Y-101731822D01*
X156298900Y-101223924D01*
X156298900Y-100706076D01*
X156197873Y-100198178D01*
X155999701Y-99719749D01*
X155712000Y-99289174D01*
X155345826Y-98923000D01*
X154915251Y-98635299D01*
X154436822Y-98437127D01*
X153928924Y-98336100D01*
X153411076Y-98336100D01*
X152903178Y-98437127D01*
X152424749Y-98635299D01*
X151994174Y-98923000D01*
X151628000Y-99289174D01*
X151340299Y-99719749D01*
X151142127Y-100198178D01*
X151041100Y-100706076D01*
X150053508Y-100706076D01*
X150018798Y-100531579D01*
X149906788Y-100261162D01*
X149871030Y-100207646D01*
X149916938Y-100210694D01*
X150264216Y-100165275D01*
X150595960Y-100052977D01*
X150804736Y-99941384D01*
X150917755Y-99662360D01*
X149860000Y-98604605D01*
X149845858Y-98618748D01*
X149666253Y-98439143D01*
X149680395Y-98425000D01*
X150039605Y-98425000D01*
X151097360Y-99482755D01*
X151376384Y-99369736D01*
X151531556Y-99055751D01*
X151622491Y-98717527D01*
X151645694Y-98368062D01*
X151600275Y-98020784D01*
X151487977Y-97689040D01*
X151376384Y-97480264D01*
X151097360Y-97367245D01*
X150039605Y-98425000D01*
X149680395Y-98425000D01*
X148622640Y-97367245D01*
X148343616Y-97480264D01*
X148188444Y-97794249D01*
X148097509Y-98132473D01*
X148074306Y-98481938D01*
X148119725Y-98829216D01*
X148232023Y-99160960D01*
X148343616Y-99369736D01*
X148613616Y-99479100D01*
X148443652Y-99479100D01*
X148156579Y-99536202D01*
X147886162Y-99648212D01*
X147642794Y-99810826D01*
X147435826Y-100017794D01*
X147273212Y-100261162D01*
X147161202Y-100531579D01*
X147104100Y-100818652D01*
X141185900Y-100818652D01*
X141128798Y-100531579D01*
X141016788Y-100261162D01*
X140854174Y-100017794D01*
X140647206Y-99810826D01*
X140403838Y-99648212D01*
X140133421Y-99536202D01*
X139846348Y-99479100D01*
X139553652Y-99479100D01*
X139266579Y-99536202D01*
X138996162Y-99648212D01*
X138752794Y-99810826D01*
X138545826Y-100017794D01*
X138383212Y-100261162D01*
X138271202Y-100531579D01*
X138214100Y-100818652D01*
X138214100Y-101111348D01*
X138265549Y-101370000D01*
X138219721Y-101370000D01*
X137807244Y-101452047D01*
X137418698Y-101612988D01*
X137112292Y-101817721D01*
X137147873Y-101731822D01*
X137248900Y-101223924D01*
X137248900Y-100706076D01*
X137147873Y-100198178D01*
X136949701Y-99719749D01*
X136662000Y-99289174D01*
X136295826Y-98923000D01*
X135865251Y-98635299D01*
X135386822Y-98437127D01*
X134878924Y-98336100D01*
X134361076Y-98336100D01*
X133853178Y-98437127D01*
X133374749Y-98635299D01*
X132944174Y-98923000D01*
X132578000Y-99289174D01*
X132290299Y-99719749D01*
X132092127Y-100198178D01*
X131991100Y-100706076D01*
X131003508Y-100706076D01*
X130968798Y-100531579D01*
X130856788Y-100261162D01*
X130821030Y-100207646D01*
X130866938Y-100210694D01*
X131214216Y-100165275D01*
X131545960Y-100052977D01*
X131754736Y-99941384D01*
X131867755Y-99662360D01*
X130810000Y-98604605D01*
X130795858Y-98618748D01*
X130616253Y-98439143D01*
X130630395Y-98425000D01*
X130989605Y-98425000D01*
X132047360Y-99482755D01*
X132326384Y-99369736D01*
X132481556Y-99055751D01*
X132572491Y-98717527D01*
X132595694Y-98368062D01*
X132550275Y-98020784D01*
X132437977Y-97689040D01*
X132326384Y-97480264D01*
X132047360Y-97367245D01*
X130989605Y-98425000D01*
X130630395Y-98425000D01*
X129572640Y-97367245D01*
X129293616Y-97480264D01*
X129138444Y-97794249D01*
X129047509Y-98132473D01*
X129024306Y-98481938D01*
X129069725Y-98829216D01*
X129182023Y-99160960D01*
X129293616Y-99369736D01*
X129563616Y-99479100D01*
X129393652Y-99479100D01*
X129106579Y-99536202D01*
X128836162Y-99648212D01*
X128592794Y-99810826D01*
X128385826Y-100017794D01*
X128223212Y-100261162D01*
X128111202Y-100531579D01*
X128054100Y-100818652D01*
X122135900Y-100818652D01*
X122078798Y-100531579D01*
X121966788Y-100261162D01*
X121804174Y-100017794D01*
X121597206Y-99810826D01*
X121353838Y-99648212D01*
X121083421Y-99536202D01*
X120796348Y-99479100D01*
X120503652Y-99479100D01*
X120216579Y-99536202D01*
X119946162Y-99648212D01*
X119702794Y-99810826D01*
X119495826Y-100017794D01*
X119333212Y-100261162D01*
X119221202Y-100531579D01*
X119164100Y-100818652D01*
X119164100Y-101111348D01*
X119215549Y-101370000D01*
X119169721Y-101370000D01*
X118757244Y-101452047D01*
X118368698Y-101612988D01*
X118062292Y-101817721D01*
X118097873Y-101731822D01*
X118198900Y-101223924D01*
X118198900Y-100706076D01*
X118097873Y-100198178D01*
X117899701Y-99719749D01*
X117612000Y-99289174D01*
X117245826Y-98923000D01*
X116815251Y-98635299D01*
X116336822Y-98437127D01*
X115828924Y-98336100D01*
X115311076Y-98336100D01*
X114803178Y-98437127D01*
X114324749Y-98635299D01*
X113894174Y-98923000D01*
X113528000Y-99289174D01*
X113240299Y-99719749D01*
X113042127Y-100198178D01*
X112941100Y-100706076D01*
X111953508Y-100706076D01*
X111918798Y-100531579D01*
X111806788Y-100261162D01*
X111771030Y-100207646D01*
X111816938Y-100210694D01*
X112164216Y-100165275D01*
X112495960Y-100052977D01*
X112704736Y-99941384D01*
X112817755Y-99662360D01*
X111760000Y-98604605D01*
X111745858Y-98618748D01*
X111566253Y-98439143D01*
X111580395Y-98425000D01*
X111939605Y-98425000D01*
X112997360Y-99482755D01*
X113276384Y-99369736D01*
X113431556Y-99055751D01*
X113522491Y-98717527D01*
X113545694Y-98368062D01*
X113500275Y-98020784D01*
X113387977Y-97689040D01*
X113276384Y-97480264D01*
X112997360Y-97367245D01*
X111939605Y-98425000D01*
X111580395Y-98425000D01*
X110522640Y-97367245D01*
X110243616Y-97480264D01*
X110088444Y-97794249D01*
X109997509Y-98132473D01*
X109974306Y-98481938D01*
X110019725Y-98829216D01*
X110132023Y-99160960D01*
X110243616Y-99369736D01*
X110513616Y-99479100D01*
X110343652Y-99479100D01*
X110056579Y-99536202D01*
X109786162Y-99648212D01*
X109542794Y-99810826D01*
X109335826Y-100017794D01*
X109173212Y-100261162D01*
X109061202Y-100531579D01*
X109004100Y-100818652D01*
X95846500Y-100818652D01*
X95846500Y-97187640D01*
X110702245Y-97187640D01*
X111760000Y-98245395D01*
X112817755Y-97187640D01*
X112704736Y-96908616D01*
X112390751Y-96753444D01*
X112052527Y-96662509D01*
X111703062Y-96639306D01*
X111355784Y-96684725D01*
X111024040Y-96797023D01*
X110815264Y-96908616D01*
X110702245Y-97187640D01*
X95846500Y-97187640D01*
X95846500Y-95709882D01*
X116332000Y-95709882D01*
X116332000Y-96060118D01*
X116400328Y-96403623D01*
X116534357Y-96727199D01*
X116728937Y-97018409D01*
X116976591Y-97266063D01*
X117267801Y-97460643D01*
X117591377Y-97594672D01*
X117934882Y-97663000D01*
X118285118Y-97663000D01*
X118628623Y-97594672D01*
X118952199Y-97460643D01*
X119243409Y-97266063D01*
X119321832Y-97187640D01*
X129752245Y-97187640D01*
X130810000Y-98245395D01*
X131867755Y-97187640D01*
X131754736Y-96908616D01*
X131440751Y-96753444D01*
X131102527Y-96662509D01*
X130753062Y-96639306D01*
X130405784Y-96684725D01*
X130074040Y-96797023D01*
X129865264Y-96908616D01*
X129752245Y-97187640D01*
X119321832Y-97187640D01*
X119491063Y-97018409D01*
X119685643Y-96727199D01*
X119719691Y-96645000D01*
X125980680Y-96645000D01*
X126018002Y-96648676D01*
X126055324Y-96645000D01*
X126055335Y-96645000D01*
X126166988Y-96634003D01*
X126310249Y-96590546D01*
X126442278Y-96519974D01*
X126558003Y-96425001D01*
X126581806Y-96395997D01*
X131921305Y-91056500D01*
X164295567Y-91056500D01*
X164391998Y-91174002D01*
X164541262Y-91296500D01*
X164391998Y-91418998D01*
X164295567Y-91536500D01*
X140785822Y-91536500D01*
X140748499Y-91532824D01*
X140711176Y-91536500D01*
X140711167Y-91536500D01*
X140599514Y-91547497D01*
X140456253Y-91590954D01*
X140324224Y-91661526D01*
X140208499Y-91756499D01*
X140184701Y-91785497D01*
X137760823Y-94209376D01*
X137678623Y-94175328D01*
X137335118Y-94107000D01*
X136984882Y-94107000D01*
X136641377Y-94175328D01*
X136317801Y-94309357D01*
X136026591Y-94503937D01*
X135778937Y-94751591D01*
X135584357Y-95042801D01*
X135450328Y-95366377D01*
X135382000Y-95709882D01*
X135382000Y-96060118D01*
X135450328Y-96403623D01*
X135584357Y-96727199D01*
X135778937Y-97018409D01*
X136026591Y-97266063D01*
X136317801Y-97460643D01*
X136641377Y-97594672D01*
X136984882Y-97663000D01*
X137335118Y-97663000D01*
X137678623Y-97594672D01*
X138002199Y-97460643D01*
X138293409Y-97266063D01*
X138371832Y-97187640D01*
X148802245Y-97187640D01*
X149860000Y-98245395D01*
X150917755Y-97187640D01*
X150804736Y-96908616D01*
X150490751Y-96753444D01*
X150152527Y-96662509D01*
X149803062Y-96639306D01*
X149455784Y-96684725D01*
X149124040Y-96797023D01*
X148915264Y-96908616D01*
X148802245Y-97187640D01*
X138371832Y-97187640D01*
X138541063Y-97018409D01*
X138735643Y-96727199D01*
X138869672Y-96403623D01*
X138938000Y-96060118D01*
X138938000Y-95709882D01*
X138869672Y-95366377D01*
X138835624Y-95284177D01*
X141063302Y-93056500D01*
X164295567Y-93056500D01*
X164391998Y-93174002D01*
X164541262Y-93296500D01*
X164391998Y-93418998D01*
X164237667Y-93607051D01*
X164122989Y-93821599D01*
X164052370Y-94054398D01*
X164028525Y-94296500D01*
X164052370Y-94538602D01*
X164093153Y-94673045D01*
X163641199Y-95125000D01*
X157819691Y-95125000D01*
X157785643Y-95042801D01*
X157591063Y-94751591D01*
X157343409Y-94503937D01*
X157052199Y-94309357D01*
X156728623Y-94175328D01*
X156385118Y-94107000D01*
X156034882Y-94107000D01*
X155691377Y-94175328D01*
X155367801Y-94309357D01*
X155076591Y-94503937D01*
X154828937Y-94751591D01*
X154634357Y-95042801D01*
X154500328Y-95366377D01*
X154432000Y-95709882D01*
X154432000Y-96060118D01*
X154500328Y-96403623D01*
X154634357Y-96727199D01*
X154828937Y-97018409D01*
X155076591Y-97266063D01*
X155367801Y-97460643D01*
X155691377Y-97594672D01*
X156034882Y-97663000D01*
X156385118Y-97663000D01*
X156728623Y-97594672D01*
X157052199Y-97460643D01*
X157343409Y-97266063D01*
X157591063Y-97018409D01*
X157785643Y-96727199D01*
X157819691Y-96645000D01*
X163918678Y-96645000D01*
X163956000Y-96648676D01*
X163993322Y-96645000D01*
X163993333Y-96645000D01*
X164104986Y-96634003D01*
X164248247Y-96590546D01*
X164380276Y-96519974D01*
X164496001Y-96425001D01*
X164519804Y-96395997D01*
X165384302Y-95531500D01*
X165880165Y-95531500D01*
X166061602Y-95513630D01*
X166294401Y-95443011D01*
X166508949Y-95328333D01*
X166697002Y-95174002D01*
X166851333Y-94985949D01*
X166966011Y-94771401D01*
X167036630Y-94538602D01*
X167060475Y-94296500D01*
X167036630Y-94054398D01*
X166966011Y-93821599D01*
X166851333Y-93607051D01*
X166697002Y-93418998D01*
X166547738Y-93296500D01*
X166697002Y-93174002D01*
X166851333Y-92985949D01*
X166966011Y-92771401D01*
X167036630Y-92538602D01*
X167060475Y-92296500D01*
X167036630Y-92054398D01*
X166966011Y-91821599D01*
X166851333Y-91607051D01*
X166697002Y-91418998D01*
X166547738Y-91296500D01*
X166697002Y-91174002D01*
X166851333Y-90985949D01*
X166966011Y-90771401D01*
X167036630Y-90538602D01*
X167060475Y-90296500D01*
X167036630Y-90054398D01*
X166966011Y-89821599D01*
X166851333Y-89607051D01*
X166697002Y-89418998D01*
X166547738Y-89296500D01*
X166697002Y-89174002D01*
X166851333Y-88985949D01*
X166966011Y-88771401D01*
X167036630Y-88538602D01*
X167060475Y-88296500D01*
X167036630Y-88054398D01*
X166966011Y-87821599D01*
X166851333Y-87607051D01*
X166725064Y-87453191D01*
X166773994Y-87427037D01*
X166870685Y-87347685D01*
X166950037Y-87250994D01*
X167009002Y-87140680D01*
X167045312Y-87020982D01*
X167057572Y-86896500D01*
X167054500Y-86582250D01*
X166895750Y-86423500D01*
X165671500Y-86423500D01*
X165671500Y-86443500D01*
X165417500Y-86443500D01*
X165417500Y-86423500D01*
X165397500Y-86423500D01*
X165397500Y-86169500D01*
X165417500Y-86169500D01*
X165417500Y-85220250D01*
X165671500Y-85220250D01*
X165671500Y-86169500D01*
X166895750Y-86169500D01*
X167054500Y-86010750D01*
X167057572Y-85696500D01*
X167045312Y-85572018D01*
X167009002Y-85452320D01*
X166950037Y-85342006D01*
X166870685Y-85245315D01*
X166773994Y-85165963D01*
X166663680Y-85106998D01*
X166543982Y-85070688D01*
X166419500Y-85058428D01*
X165830250Y-85061500D01*
X165671500Y-85220250D01*
X165417500Y-85220250D01*
X165258750Y-85061500D01*
X164669500Y-85058428D01*
X164545018Y-85070688D01*
X164425320Y-85106998D01*
X164315006Y-85165963D01*
X164218315Y-85245315D01*
X164138963Y-85342006D01*
X164079998Y-85452320D01*
X164043688Y-85572018D01*
X164031428Y-85696500D01*
X164031548Y-85708746D01*
X155177419Y-76854617D01*
X165968500Y-76854617D01*
X165968500Y-77196383D01*
X166035175Y-77531581D01*
X166165963Y-77847331D01*
X166355837Y-78131498D01*
X166597502Y-78373163D01*
X166881669Y-78563037D01*
X167197419Y-78693825D01*
X167532617Y-78760500D01*
X167874383Y-78760500D01*
X168209581Y-78693825D01*
X168525331Y-78563037D01*
X168809498Y-78373163D01*
X169051163Y-78131498D01*
X169241037Y-77847331D01*
X169371825Y-77531581D01*
X169438500Y-77196383D01*
X169438500Y-76854617D01*
X169371825Y-76519419D01*
X169241037Y-76203669D01*
X169051163Y-75919502D01*
X168809498Y-75677837D01*
X168525331Y-75487963D01*
X168209581Y-75357175D01*
X167874383Y-75290500D01*
X167532617Y-75290500D01*
X167197419Y-75357175D01*
X166881669Y-75487963D01*
X166597502Y-75677837D01*
X166355837Y-75919502D01*
X166165963Y-76203669D01*
X166035175Y-76519419D01*
X165968500Y-76854617D01*
X155177419Y-76854617D01*
X154773804Y-76451003D01*
X154750001Y-76421999D01*
X154634276Y-76327026D01*
X154502247Y-76256454D01*
X154358986Y-76212997D01*
X154247333Y-76202000D01*
X154247322Y-76202000D01*
X154210000Y-76198324D01*
X154172678Y-76202000D01*
X138769691Y-76202000D01*
X138735643Y-76119801D01*
X138541063Y-75828591D01*
X138293409Y-75580937D01*
X138002199Y-75386357D01*
X137678623Y-75252328D01*
X137335118Y-75184000D01*
X136984882Y-75184000D01*
X136641377Y-75252328D01*
X136317801Y-75386357D01*
X136026591Y-75580937D01*
X135778937Y-75828591D01*
X135584357Y-76119801D01*
X135450328Y-76443377D01*
X135382000Y-76786882D01*
X135382000Y-77137118D01*
X135450328Y-77480623D01*
X135584357Y-77804199D01*
X135778937Y-78095409D01*
X136026591Y-78343063D01*
X136317801Y-78537643D01*
X136641377Y-78671672D01*
X136984882Y-78740000D01*
X137335118Y-78740000D01*
X137678623Y-78671672D01*
X138002199Y-78537643D01*
X138293409Y-78343063D01*
X138541063Y-78095409D01*
X138735643Y-77804199D01*
X138769691Y-77722000D01*
X153895199Y-77722000D01*
X164093153Y-87919955D01*
X164052370Y-88054398D01*
X164028525Y-88296500D01*
X164052370Y-88538602D01*
X164122989Y-88771401D01*
X164237667Y-88985949D01*
X164391998Y-89174002D01*
X164541262Y-89296500D01*
X164391998Y-89418998D01*
X164295567Y-89536500D01*
X131643824Y-89536500D01*
X131606501Y-89532824D01*
X131569178Y-89536500D01*
X131569169Y-89536500D01*
X131457516Y-89547497D01*
X131314255Y-89590954D01*
X131182226Y-89661526D01*
X131182224Y-89661527D01*
X131182225Y-89661527D01*
X131095498Y-89732701D01*
X131095494Y-89732705D01*
X131066501Y-89756499D01*
X131042707Y-89785492D01*
X125703201Y-95125000D01*
X119719691Y-95125000D01*
X119685643Y-95042801D01*
X119491063Y-94751591D01*
X119243409Y-94503937D01*
X118952199Y-94309357D01*
X118628623Y-94175328D01*
X118285118Y-94107000D01*
X117934882Y-94107000D01*
X117591377Y-94175328D01*
X117267801Y-94309357D01*
X116976591Y-94503937D01*
X116728937Y-94751591D01*
X116534357Y-95042801D01*
X116400328Y-95366377D01*
X116332000Y-95709882D01*
X95846500Y-95709882D01*
X95846500Y-86911721D01*
X129945000Y-86911721D01*
X129945000Y-87332279D01*
X130027047Y-87744756D01*
X130187988Y-88133302D01*
X130421637Y-88482983D01*
X130719017Y-88780363D01*
X131068698Y-89014012D01*
X131457244Y-89174953D01*
X131869721Y-89257000D01*
X132290279Y-89257000D01*
X132702756Y-89174953D01*
X133091302Y-89014012D01*
X133440983Y-88780363D01*
X133738363Y-88482983D01*
X133972012Y-88133302D01*
X134132953Y-87744756D01*
X134215000Y-87332279D01*
X134215000Y-86911721D01*
X134132953Y-86499244D01*
X133972012Y-86110698D01*
X133738363Y-85761017D01*
X133440983Y-85463637D01*
X133091302Y-85229988D01*
X132702756Y-85069047D01*
X132290279Y-84987000D01*
X131869721Y-84987000D01*
X131457244Y-85069047D01*
X131068698Y-85229988D01*
X130719017Y-85463637D01*
X130421637Y-85761017D01*
X130187988Y-86110698D01*
X130027047Y-86499244D01*
X129945000Y-86911721D01*
X95846500Y-86911721D01*
X95846500Y-81895652D01*
X128054100Y-81895652D01*
X128054100Y-82188348D01*
X128111202Y-82475421D01*
X128223212Y-82745838D01*
X128385826Y-82989206D01*
X128592794Y-83196174D01*
X128836162Y-83358788D01*
X129106579Y-83470798D01*
X129393652Y-83527900D01*
X129686348Y-83527900D01*
X129973421Y-83470798D01*
X130243838Y-83358788D01*
X130487206Y-83196174D01*
X130694174Y-82989206D01*
X130856788Y-82745838D01*
X130968798Y-82475421D01*
X131025900Y-82188348D01*
X131025900Y-81895652D01*
X131003508Y-81783076D01*
X131991100Y-81783076D01*
X131991100Y-82300924D01*
X132092127Y-82808822D01*
X132290299Y-83287251D01*
X132578000Y-83717826D01*
X132944174Y-84084000D01*
X133374749Y-84371701D01*
X133853178Y-84569873D01*
X134361076Y-84670900D01*
X134878924Y-84670900D01*
X135386822Y-84569873D01*
X135865251Y-84371701D01*
X136295826Y-84084000D01*
X136366237Y-84013589D01*
X136295000Y-84371721D01*
X136295000Y-84792279D01*
X136377047Y-85204756D01*
X136537988Y-85593302D01*
X136771637Y-85942983D01*
X137069017Y-86240363D01*
X137418698Y-86474012D01*
X137807244Y-86634953D01*
X138219721Y-86717000D01*
X138640279Y-86717000D01*
X139052756Y-86634953D01*
X139441302Y-86474012D01*
X139790983Y-86240363D01*
X140088363Y-85942983D01*
X140322012Y-85593302D01*
X140482953Y-85204756D01*
X140565000Y-84792279D01*
X140565000Y-84371721D01*
X140482953Y-83959244D01*
X140322012Y-83570698D01*
X140228850Y-83431270D01*
X140403838Y-83358788D01*
X140647206Y-83196174D01*
X140854174Y-82989206D01*
X141016788Y-82745838D01*
X141128798Y-82475421D01*
X141185900Y-82188348D01*
X141185900Y-81895652D01*
X141128798Y-81608579D01*
X141016788Y-81338162D01*
X140854174Y-81094794D01*
X140647206Y-80887826D01*
X140403838Y-80725212D01*
X140133421Y-80613202D01*
X139846348Y-80556100D01*
X139553652Y-80556100D01*
X139266579Y-80613202D01*
X138996162Y-80725212D01*
X138752794Y-80887826D01*
X138545826Y-81094794D01*
X138383212Y-81338162D01*
X138271202Y-81608579D01*
X138214100Y-81895652D01*
X138214100Y-82188348D01*
X138265549Y-82447000D01*
X138219721Y-82447000D01*
X137807244Y-82529047D01*
X137418698Y-82689988D01*
X137112292Y-82894721D01*
X137147873Y-82808822D01*
X137248900Y-82300924D01*
X137248900Y-81783076D01*
X137147873Y-81275178D01*
X136949701Y-80796749D01*
X136662000Y-80366174D01*
X136295826Y-80000000D01*
X135865251Y-79712299D01*
X135386822Y-79514127D01*
X134878924Y-79413100D01*
X134361076Y-79413100D01*
X133853178Y-79514127D01*
X133374749Y-79712299D01*
X132944174Y-80000000D01*
X132578000Y-80366174D01*
X132290299Y-80796749D01*
X132092127Y-81275178D01*
X131991100Y-81783076D01*
X131003508Y-81783076D01*
X130968798Y-81608579D01*
X130856788Y-81338162D01*
X130821030Y-81284646D01*
X130866938Y-81287694D01*
X131214216Y-81242275D01*
X131545960Y-81129977D01*
X131754736Y-81018384D01*
X131867755Y-80739360D01*
X130810000Y-79681605D01*
X130795858Y-79695748D01*
X130616253Y-79516143D01*
X130630395Y-79502000D01*
X130989605Y-79502000D01*
X132047360Y-80559755D01*
X132326384Y-80446736D01*
X132481556Y-80132751D01*
X132572491Y-79794527D01*
X132595694Y-79445062D01*
X132550275Y-79097784D01*
X132437977Y-78766040D01*
X132326384Y-78557264D01*
X132047360Y-78444245D01*
X130989605Y-79502000D01*
X130630395Y-79502000D01*
X129572640Y-78444245D01*
X129293616Y-78557264D01*
X129138444Y-78871249D01*
X129047509Y-79209473D01*
X129024306Y-79558938D01*
X129069725Y-79906216D01*
X129182023Y-80237960D01*
X129293616Y-80446736D01*
X129563616Y-80556100D01*
X129393652Y-80556100D01*
X129106579Y-80613202D01*
X128836162Y-80725212D01*
X128592794Y-80887826D01*
X128385826Y-81094794D01*
X128223212Y-81338162D01*
X128111202Y-81608579D01*
X128054100Y-81895652D01*
X95846500Y-81895652D01*
X95846500Y-77052007D01*
X95862381Y-76854617D01*
X99484000Y-76854617D01*
X99484000Y-77196383D01*
X99550675Y-77531581D01*
X99681463Y-77847331D01*
X99871337Y-78131498D01*
X100113002Y-78373163D01*
X100397169Y-78563037D01*
X100712919Y-78693825D01*
X101048117Y-78760500D01*
X101389883Y-78760500D01*
X101725081Y-78693825D01*
X102040831Y-78563037D01*
X102324998Y-78373163D01*
X102433521Y-78264640D01*
X129752245Y-78264640D01*
X130810000Y-79322395D01*
X131867755Y-78264640D01*
X131754736Y-77985616D01*
X131440751Y-77830444D01*
X131102527Y-77739509D01*
X130753062Y-77716306D01*
X130405784Y-77761725D01*
X130074040Y-77874023D01*
X129865264Y-77985616D01*
X129752245Y-78264640D01*
X102433521Y-78264640D01*
X102566663Y-78131498D01*
X102756537Y-77847331D01*
X102887325Y-77531581D01*
X102954000Y-77196383D01*
X102954000Y-76854617D01*
X102887325Y-76519419D01*
X102756537Y-76203669D01*
X102566663Y-75919502D01*
X102324998Y-75677837D01*
X102040831Y-75487963D01*
X101725081Y-75357175D01*
X101389883Y-75290500D01*
X101048117Y-75290500D01*
X100712919Y-75357175D01*
X100397169Y-75487963D01*
X100113002Y-75677837D01*
X99871337Y-75919502D01*
X99681463Y-76203669D01*
X99550675Y-76519419D01*
X99484000Y-76854617D01*
X95862381Y-76854617D01*
X95917715Y-76166882D01*
X96123188Y-75330347D01*
X96459761Y-74537432D01*
X96918777Y-73808525D01*
X97488430Y-73162381D01*
X98154055Y-72615629D01*
X98898539Y-72182329D01*
X99702720Y-71873632D01*
X100551579Y-71696296D01*
X101239747Y-71653000D01*
X170338222Y-71653000D01*
X170895385Y-71707630D01*
%TA.AperFunction,Conductor*%
D14*
G36*
X170895385Y-71707630D02*
G01*
X171400280Y-71860067D01*
X171865951Y-72107669D01*
X172274660Y-72441005D01*
X172610836Y-72847372D01*
X172861683Y-73311303D01*
X173017640Y-73815115D01*
X173076000Y-74370377D01*
X173073692Y-106921519D01*
X172883965Y-107738687D01*
X172557504Y-108535826D01*
X172107794Y-109270515D01*
X171546408Y-109923852D01*
X170887790Y-110479027D01*
X170148875Y-110921764D01*
X169348690Y-111240663D01*
X168504217Y-111428324D01*
X167743514Y-111481044D01*
X134492858Y-111544500D01*
X101245507Y-111544500D01*
X100360382Y-111473285D01*
X99523847Y-111267812D01*
X98730932Y-110931239D01*
X98002025Y-110472222D01*
X97355883Y-109902573D01*
X96809129Y-109236945D01*
X96375827Y-108492456D01*
X96067132Y-107688280D01*
X95889795Y-106839415D01*
X95846500Y-106151253D01*
X95846500Y-106001117D01*
X99484000Y-106001117D01*
X99484000Y-106342883D01*
X99550675Y-106678081D01*
X99681463Y-106993831D01*
X99871337Y-107277998D01*
X100113002Y-107519663D01*
X100397169Y-107709537D01*
X100712919Y-107840325D01*
X101048117Y-107907000D01*
X101389883Y-107907000D01*
X101725081Y-107840325D01*
X102040831Y-107709537D01*
X102324998Y-107519663D01*
X102566663Y-107277998D01*
X102756537Y-106993831D01*
X102887325Y-106678081D01*
X102954000Y-106342883D01*
X102954000Y-106001117D01*
X102920902Y-105834721D01*
X110895000Y-105834721D01*
X110895000Y-106255279D01*
X110977047Y-106667756D01*
X111137988Y-107056302D01*
X111371637Y-107405983D01*
X111669017Y-107703363D01*
X112018698Y-107937012D01*
X112407244Y-108097953D01*
X112819721Y-108180000D01*
X113240279Y-108180000D01*
X113652756Y-108097953D01*
X114041302Y-107937012D01*
X114390983Y-107703363D01*
X114688363Y-107405983D01*
X114922012Y-107056302D01*
X115082953Y-106667756D01*
X115165000Y-106255279D01*
X115165000Y-105834721D01*
X129945000Y-105834721D01*
X129945000Y-106255279D01*
X130027047Y-106667756D01*
X130187988Y-107056302D01*
X130421637Y-107405983D01*
X130719017Y-107703363D01*
X131068698Y-107937012D01*
X131457244Y-108097953D01*
X131869721Y-108180000D01*
X132290279Y-108180000D01*
X132702756Y-108097953D01*
X133091302Y-107937012D01*
X133440983Y-107703363D01*
X133738363Y-107405983D01*
X133972012Y-107056302D01*
X134132953Y-106667756D01*
X134215000Y-106255279D01*
X134215000Y-105834721D01*
X148995000Y-105834721D01*
X148995000Y-106255279D01*
X149077047Y-106667756D01*
X149237988Y-107056302D01*
X149471637Y-107405983D01*
X149769017Y-107703363D01*
X150118698Y-107937012D01*
X150507244Y-108097953D01*
X150919721Y-108180000D01*
X151340279Y-108180000D01*
X151752756Y-108097953D01*
X152141302Y-107937012D01*
X152490983Y-107703363D01*
X152788363Y-107405983D01*
X153022012Y-107056302D01*
X153182953Y-106667756D01*
X153265000Y-106255279D01*
X153265000Y-105937617D01*
X166032000Y-105937617D01*
X166032000Y-106279383D01*
X166098675Y-106614581D01*
X166229463Y-106930331D01*
X166419337Y-107214498D01*
X166661002Y-107456163D01*
X166945169Y-107646037D01*
X167260919Y-107776825D01*
X167596117Y-107843500D01*
X167937883Y-107843500D01*
X168273081Y-107776825D01*
X168588831Y-107646037D01*
X168872998Y-107456163D01*
X169114663Y-107214498D01*
X169304537Y-106930331D01*
X169435325Y-106614581D01*
X169502000Y-106279383D01*
X169502000Y-105937617D01*
X169435325Y-105602419D01*
X169304537Y-105286669D01*
X169114663Y-105002502D01*
X168872998Y-104760837D01*
X168588831Y-104570963D01*
X168273081Y-104440175D01*
X167937883Y-104373500D01*
X167596117Y-104373500D01*
X167260919Y-104440175D01*
X166945169Y-104570963D01*
X166661002Y-104760837D01*
X166419337Y-105002502D01*
X166229463Y-105286669D01*
X166098675Y-105602419D01*
X166032000Y-105937617D01*
X153265000Y-105937617D01*
X153265000Y-105834721D01*
X153182953Y-105422244D01*
X153022012Y-105033698D01*
X152788363Y-104684017D01*
X152490983Y-104386637D01*
X152141302Y-104152988D01*
X151752756Y-103992047D01*
X151340279Y-103910000D01*
X150919721Y-103910000D01*
X150507244Y-103992047D01*
X150118698Y-104152988D01*
X149769017Y-104386637D01*
X149471637Y-104684017D01*
X149237988Y-105033698D01*
X149077047Y-105422244D01*
X148995000Y-105834721D01*
X134215000Y-105834721D01*
X134132953Y-105422244D01*
X133972012Y-105033698D01*
X133738363Y-104684017D01*
X133440983Y-104386637D01*
X133091302Y-104152988D01*
X132702756Y-103992047D01*
X132290279Y-103910000D01*
X131869721Y-103910000D01*
X131457244Y-103992047D01*
X131068698Y-104152988D01*
X130719017Y-104386637D01*
X130421637Y-104684017D01*
X130187988Y-105033698D01*
X130027047Y-105422244D01*
X129945000Y-105834721D01*
X115165000Y-105834721D01*
X115082953Y-105422244D01*
X114922012Y-105033698D01*
X114688363Y-104684017D01*
X114390983Y-104386637D01*
X114041302Y-104152988D01*
X113652756Y-103992047D01*
X113240279Y-103910000D01*
X112819721Y-103910000D01*
X112407244Y-103992047D01*
X112018698Y-104152988D01*
X111669017Y-104386637D01*
X111371637Y-104684017D01*
X111137988Y-105033698D01*
X110977047Y-105422244D01*
X110895000Y-105834721D01*
X102920902Y-105834721D01*
X102887325Y-105665919D01*
X102756537Y-105350169D01*
X102566663Y-105066002D01*
X102324998Y-104824337D01*
X102040831Y-104634463D01*
X101725081Y-104503675D01*
X101389883Y-104437000D01*
X101048117Y-104437000D01*
X100712919Y-104503675D01*
X100397169Y-104634463D01*
X100113002Y-104824337D01*
X99871337Y-105066002D01*
X99681463Y-105350169D01*
X99550675Y-105665919D01*
X99484000Y-106001117D01*
X95846500Y-106001117D01*
X95846500Y-100818652D01*
X109004100Y-100818652D01*
X109004100Y-101111348D01*
X109061202Y-101398421D01*
X109173212Y-101668838D01*
X109335826Y-101912206D01*
X109542794Y-102119174D01*
X109786162Y-102281788D01*
X110056579Y-102393798D01*
X110343652Y-102450900D01*
X110636348Y-102450900D01*
X110923421Y-102393798D01*
X111193838Y-102281788D01*
X111437206Y-102119174D01*
X111644174Y-101912206D01*
X111806788Y-101668838D01*
X111918798Y-101398421D01*
X111975900Y-101111348D01*
X111975900Y-100818652D01*
X111953508Y-100706076D01*
X112941100Y-100706076D01*
X112941100Y-101223924D01*
X113042127Y-101731822D01*
X113240299Y-102210251D01*
X113528000Y-102640826D01*
X113894174Y-103007000D01*
X114324749Y-103294701D01*
X114803178Y-103492873D01*
X115311076Y-103593900D01*
X115828924Y-103593900D01*
X116336822Y-103492873D01*
X116815251Y-103294701D01*
X117245826Y-103007000D01*
X117316237Y-102936589D01*
X117245000Y-103294721D01*
X117245000Y-103715279D01*
X117327047Y-104127756D01*
X117487988Y-104516302D01*
X117721637Y-104865983D01*
X118019017Y-105163363D01*
X118368698Y-105397012D01*
X118757244Y-105557953D01*
X119169721Y-105640000D01*
X119590279Y-105640000D01*
X120002756Y-105557953D01*
X120391302Y-105397012D01*
X120740983Y-105163363D01*
X121038363Y-104865983D01*
X121272012Y-104516302D01*
X121432953Y-104127756D01*
X121515000Y-103715279D01*
X121515000Y-103294721D01*
X121432953Y-102882244D01*
X121272012Y-102493698D01*
X121178850Y-102354270D01*
X121353838Y-102281788D01*
X121597206Y-102119174D01*
X121804174Y-101912206D01*
X121966788Y-101668838D01*
X122078798Y-101398421D01*
X122135900Y-101111348D01*
X122135900Y-100818652D01*
X128054100Y-100818652D01*
X128054100Y-101111348D01*
X128111202Y-101398421D01*
X128223212Y-101668838D01*
X128385826Y-101912206D01*
X128592794Y-102119174D01*
X128836162Y-102281788D01*
X129106579Y-102393798D01*
X129393652Y-102450900D01*
X129686348Y-102450900D01*
X129973421Y-102393798D01*
X130243838Y-102281788D01*
X130487206Y-102119174D01*
X130694174Y-101912206D01*
X130856788Y-101668838D01*
X130968798Y-101398421D01*
X131025900Y-101111348D01*
X131025900Y-100818652D01*
X131003508Y-100706076D01*
X131991100Y-100706076D01*
X131991100Y-101223924D01*
X132092127Y-101731822D01*
X132290299Y-102210251D01*
X132578000Y-102640826D01*
X132944174Y-103007000D01*
X133374749Y-103294701D01*
X133853178Y-103492873D01*
X134361076Y-103593900D01*
X134878924Y-103593900D01*
X135386822Y-103492873D01*
X135865251Y-103294701D01*
X136295826Y-103007000D01*
X136366237Y-102936589D01*
X136295000Y-103294721D01*
X136295000Y-103715279D01*
X136377047Y-104127756D01*
X136537988Y-104516302D01*
X136771637Y-104865983D01*
X137069017Y-105163363D01*
X137418698Y-105397012D01*
X137807244Y-105557953D01*
X138219721Y-105640000D01*
X138640279Y-105640000D01*
X139052756Y-105557953D01*
X139441302Y-105397012D01*
X139790983Y-105163363D01*
X140088363Y-104865983D01*
X140322012Y-104516302D01*
X140482953Y-104127756D01*
X140565000Y-103715279D01*
X140565000Y-103294721D01*
X140482953Y-102882244D01*
X140322012Y-102493698D01*
X140228850Y-102354270D01*
X140403838Y-102281788D01*
X140647206Y-102119174D01*
X140854174Y-101912206D01*
X141016788Y-101668838D01*
X141128798Y-101398421D01*
X141185900Y-101111348D01*
X141185900Y-100818652D01*
X147104100Y-100818652D01*
X147104100Y-101111348D01*
X147161202Y-101398421D01*
X147273212Y-101668838D01*
X147435826Y-101912206D01*
X147642794Y-102119174D01*
X147886162Y-102281788D01*
X148156579Y-102393798D01*
X148443652Y-102450900D01*
X148736348Y-102450900D01*
X149023421Y-102393798D01*
X149293838Y-102281788D01*
X149537206Y-102119174D01*
X149744174Y-101912206D01*
X149906788Y-101668838D01*
X150018798Y-101398421D01*
X150075900Y-101111348D01*
X150075900Y-100818652D01*
X150053508Y-100706076D01*
X151041100Y-100706076D01*
X151041100Y-101223924D01*
X151142127Y-101731822D01*
X151340299Y-102210251D01*
X151628000Y-102640826D01*
X151994174Y-103007000D01*
X152424749Y-103294701D01*
X152903178Y-103492873D01*
X153411076Y-103593900D01*
X153928924Y-103593900D01*
X154436822Y-103492873D01*
X154915251Y-103294701D01*
X155345826Y-103007000D01*
X155416237Y-102936589D01*
X155345000Y-103294721D01*
X155345000Y-103715279D01*
X155427047Y-104127756D01*
X155587988Y-104516302D01*
X155821637Y-104865983D01*
X156119017Y-105163363D01*
X156468698Y-105397012D01*
X156857244Y-105557953D01*
X157269721Y-105640000D01*
X157690279Y-105640000D01*
X158102756Y-105557953D01*
X158491302Y-105397012D01*
X158840983Y-105163363D01*
X159138363Y-104865983D01*
X159372012Y-104516302D01*
X159532953Y-104127756D01*
X159615000Y-103715279D01*
X159615000Y-103294721D01*
X159532953Y-102882244D01*
X159372012Y-102493698D01*
X159278850Y-102354270D01*
X159453838Y-102281788D01*
X159697206Y-102119174D01*
X159904174Y-101912206D01*
X160066788Y-101668838D01*
X160178798Y-101398421D01*
X160235900Y-101111348D01*
X160235900Y-100818652D01*
X160178798Y-100531579D01*
X160066788Y-100261162D01*
X159904174Y-100017794D01*
X159697206Y-99810826D01*
X159453838Y-99648212D01*
X159183421Y-99536202D01*
X158896348Y-99479100D01*
X158603652Y-99479100D01*
X158316579Y-99536202D01*
X158046162Y-99648212D01*
X157802794Y-99810826D01*
X157595826Y-100017794D01*
X157433212Y-100261162D01*
X157321202Y-100531579D01*
X157264100Y-100818652D01*
X157264100Y-101111348D01*
X157315549Y-101370000D01*
X157269721Y-101370000D01*
X156857244Y-101452047D01*
X156468698Y-101612988D01*
X156162292Y-101817721D01*
X156197873Y-101731822D01*
X156298900Y-101223924D01*
X156298900Y-100706076D01*
X156197873Y-100198178D01*
X155999701Y-99719749D01*
X155712000Y-99289174D01*
X155345826Y-98923000D01*
X154915251Y-98635299D01*
X154436822Y-98437127D01*
X153928924Y-98336100D01*
X153411076Y-98336100D01*
X152903178Y-98437127D01*
X152424749Y-98635299D01*
X151994174Y-98923000D01*
X151628000Y-99289174D01*
X151340299Y-99719749D01*
X151142127Y-100198178D01*
X151041100Y-100706076D01*
X150053508Y-100706076D01*
X150018798Y-100531579D01*
X149906788Y-100261162D01*
X149871030Y-100207646D01*
X149916938Y-100210694D01*
X150264216Y-100165275D01*
X150595960Y-100052977D01*
X150804736Y-99941384D01*
X150917755Y-99662360D01*
X149860000Y-98604605D01*
X149845858Y-98618748D01*
X149666253Y-98439143D01*
X149680395Y-98425000D01*
X150039605Y-98425000D01*
X151097360Y-99482755D01*
X151376384Y-99369736D01*
X151531556Y-99055751D01*
X151622491Y-98717527D01*
X151645694Y-98368062D01*
X151600275Y-98020784D01*
X151487977Y-97689040D01*
X151376384Y-97480264D01*
X151097360Y-97367245D01*
X150039605Y-98425000D01*
X149680395Y-98425000D01*
X148622640Y-97367245D01*
X148343616Y-97480264D01*
X148188444Y-97794249D01*
X148097509Y-98132473D01*
X148074306Y-98481938D01*
X148119725Y-98829216D01*
X148232023Y-99160960D01*
X148343616Y-99369736D01*
X148613616Y-99479100D01*
X148443652Y-99479100D01*
X148156579Y-99536202D01*
X147886162Y-99648212D01*
X147642794Y-99810826D01*
X147435826Y-100017794D01*
X147273212Y-100261162D01*
X147161202Y-100531579D01*
X147104100Y-100818652D01*
X141185900Y-100818652D01*
X141128798Y-100531579D01*
X141016788Y-100261162D01*
X140854174Y-100017794D01*
X140647206Y-99810826D01*
X140403838Y-99648212D01*
X140133421Y-99536202D01*
X139846348Y-99479100D01*
X139553652Y-99479100D01*
X139266579Y-99536202D01*
X138996162Y-99648212D01*
X138752794Y-99810826D01*
X138545826Y-100017794D01*
X138383212Y-100261162D01*
X138271202Y-100531579D01*
X138214100Y-100818652D01*
X138214100Y-101111348D01*
X138265549Y-101370000D01*
X138219721Y-101370000D01*
X137807244Y-101452047D01*
X137418698Y-101612988D01*
X137112292Y-101817721D01*
X137147873Y-101731822D01*
X137248900Y-101223924D01*
X137248900Y-100706076D01*
X137147873Y-100198178D01*
X136949701Y-99719749D01*
X136662000Y-99289174D01*
X136295826Y-98923000D01*
X135865251Y-98635299D01*
X135386822Y-98437127D01*
X134878924Y-98336100D01*
X134361076Y-98336100D01*
X133853178Y-98437127D01*
X133374749Y-98635299D01*
X132944174Y-98923000D01*
X132578000Y-99289174D01*
X132290299Y-99719749D01*
X132092127Y-100198178D01*
X131991100Y-100706076D01*
X131003508Y-100706076D01*
X130968798Y-100531579D01*
X130856788Y-100261162D01*
X130821030Y-100207646D01*
X130866938Y-100210694D01*
X131214216Y-100165275D01*
X131545960Y-100052977D01*
X131754736Y-99941384D01*
X131867755Y-99662360D01*
X130810000Y-98604605D01*
X130795858Y-98618748D01*
X130616253Y-98439143D01*
X130630395Y-98425000D01*
X130989605Y-98425000D01*
X132047360Y-99482755D01*
X132326384Y-99369736D01*
X132481556Y-99055751D01*
X132572491Y-98717527D01*
X132595694Y-98368062D01*
X132550275Y-98020784D01*
X132437977Y-97689040D01*
X132326384Y-97480264D01*
X132047360Y-97367245D01*
X130989605Y-98425000D01*
X130630395Y-98425000D01*
X129572640Y-97367245D01*
X129293616Y-97480264D01*
X129138444Y-97794249D01*
X129047509Y-98132473D01*
X129024306Y-98481938D01*
X129069725Y-98829216D01*
X129182023Y-99160960D01*
X129293616Y-99369736D01*
X129563616Y-99479100D01*
X129393652Y-99479100D01*
X129106579Y-99536202D01*
X128836162Y-99648212D01*
X128592794Y-99810826D01*
X128385826Y-100017794D01*
X128223212Y-100261162D01*
X128111202Y-100531579D01*
X128054100Y-100818652D01*
X122135900Y-100818652D01*
X122078798Y-100531579D01*
X121966788Y-100261162D01*
X121804174Y-100017794D01*
X121597206Y-99810826D01*
X121353838Y-99648212D01*
X121083421Y-99536202D01*
X120796348Y-99479100D01*
X120503652Y-99479100D01*
X120216579Y-99536202D01*
X119946162Y-99648212D01*
X119702794Y-99810826D01*
X119495826Y-100017794D01*
X119333212Y-100261162D01*
X119221202Y-100531579D01*
X119164100Y-100818652D01*
X119164100Y-101111348D01*
X119215549Y-101370000D01*
X119169721Y-101370000D01*
X118757244Y-101452047D01*
X118368698Y-101612988D01*
X118062292Y-101817721D01*
X118097873Y-101731822D01*
X118198900Y-101223924D01*
X118198900Y-100706076D01*
X118097873Y-100198178D01*
X117899701Y-99719749D01*
X117612000Y-99289174D01*
X117245826Y-98923000D01*
X116815251Y-98635299D01*
X116336822Y-98437127D01*
X115828924Y-98336100D01*
X115311076Y-98336100D01*
X114803178Y-98437127D01*
X114324749Y-98635299D01*
X113894174Y-98923000D01*
X113528000Y-99289174D01*
X113240299Y-99719749D01*
X113042127Y-100198178D01*
X112941100Y-100706076D01*
X111953508Y-100706076D01*
X111918798Y-100531579D01*
X111806788Y-100261162D01*
X111771030Y-100207646D01*
X111816938Y-100210694D01*
X112164216Y-100165275D01*
X112495960Y-100052977D01*
X112704736Y-99941384D01*
X112817755Y-99662360D01*
X111760000Y-98604605D01*
X111745858Y-98618748D01*
X111566253Y-98439143D01*
X111580395Y-98425000D01*
X111939605Y-98425000D01*
X112997360Y-99482755D01*
X113276384Y-99369736D01*
X113431556Y-99055751D01*
X113522491Y-98717527D01*
X113545694Y-98368062D01*
X113500275Y-98020784D01*
X113387977Y-97689040D01*
X113276384Y-97480264D01*
X112997360Y-97367245D01*
X111939605Y-98425000D01*
X111580395Y-98425000D01*
X110522640Y-97367245D01*
X110243616Y-97480264D01*
X110088444Y-97794249D01*
X109997509Y-98132473D01*
X109974306Y-98481938D01*
X110019725Y-98829216D01*
X110132023Y-99160960D01*
X110243616Y-99369736D01*
X110513616Y-99479100D01*
X110343652Y-99479100D01*
X110056579Y-99536202D01*
X109786162Y-99648212D01*
X109542794Y-99810826D01*
X109335826Y-100017794D01*
X109173212Y-100261162D01*
X109061202Y-100531579D01*
X109004100Y-100818652D01*
X95846500Y-100818652D01*
X95846500Y-97187640D01*
X110702245Y-97187640D01*
X111760000Y-98245395D01*
X112817755Y-97187640D01*
X112704736Y-96908616D01*
X112390751Y-96753444D01*
X112052527Y-96662509D01*
X111703062Y-96639306D01*
X111355784Y-96684725D01*
X111024040Y-96797023D01*
X110815264Y-96908616D01*
X110702245Y-97187640D01*
X95846500Y-97187640D01*
X95846500Y-95709882D01*
X116332000Y-95709882D01*
X116332000Y-96060118D01*
X116400328Y-96403623D01*
X116534357Y-96727199D01*
X116728937Y-97018409D01*
X116976591Y-97266063D01*
X117267801Y-97460643D01*
X117591377Y-97594672D01*
X117934882Y-97663000D01*
X118285118Y-97663000D01*
X118628623Y-97594672D01*
X118952199Y-97460643D01*
X119243409Y-97266063D01*
X119321832Y-97187640D01*
X129752245Y-97187640D01*
X130810000Y-98245395D01*
X131867755Y-97187640D01*
X131754736Y-96908616D01*
X131440751Y-96753444D01*
X131102527Y-96662509D01*
X130753062Y-96639306D01*
X130405784Y-96684725D01*
X130074040Y-96797023D01*
X129865264Y-96908616D01*
X129752245Y-97187640D01*
X119321832Y-97187640D01*
X119491063Y-97018409D01*
X119685643Y-96727199D01*
X119719691Y-96645000D01*
X125980680Y-96645000D01*
X126018002Y-96648676D01*
X126055324Y-96645000D01*
X126055335Y-96645000D01*
X126166988Y-96634003D01*
X126310249Y-96590546D01*
X126442278Y-96519974D01*
X126558003Y-96425001D01*
X126581806Y-96395997D01*
X131921305Y-91056500D01*
X164295567Y-91056500D01*
X164391998Y-91174002D01*
X164541262Y-91296500D01*
X164391998Y-91418998D01*
X164295567Y-91536500D01*
X140785822Y-91536500D01*
X140748499Y-91532824D01*
X140711176Y-91536500D01*
X140711167Y-91536500D01*
X140599514Y-91547497D01*
X140456253Y-91590954D01*
X140324224Y-91661526D01*
X140208499Y-91756499D01*
X140184701Y-91785497D01*
X137760823Y-94209376D01*
X137678623Y-94175328D01*
X137335118Y-94107000D01*
X136984882Y-94107000D01*
X136641377Y-94175328D01*
X136317801Y-94309357D01*
X136026591Y-94503937D01*
X135778937Y-94751591D01*
X135584357Y-95042801D01*
X135450328Y-95366377D01*
X135382000Y-95709882D01*
X135382000Y-96060118D01*
X135450328Y-96403623D01*
X135584357Y-96727199D01*
X135778937Y-97018409D01*
X136026591Y-97266063D01*
X136317801Y-97460643D01*
X136641377Y-97594672D01*
X136984882Y-97663000D01*
X137335118Y-97663000D01*
X137678623Y-97594672D01*
X138002199Y-97460643D01*
X138293409Y-97266063D01*
X138371832Y-97187640D01*
X148802245Y-97187640D01*
X149860000Y-98245395D01*
X150917755Y-97187640D01*
X150804736Y-96908616D01*
X150490751Y-96753444D01*
X150152527Y-96662509D01*
X149803062Y-96639306D01*
X149455784Y-96684725D01*
X149124040Y-96797023D01*
X148915264Y-96908616D01*
X148802245Y-97187640D01*
X138371832Y-97187640D01*
X138541063Y-97018409D01*
X138735643Y-96727199D01*
X138869672Y-96403623D01*
X138938000Y-96060118D01*
X138938000Y-95709882D01*
X138869672Y-95366377D01*
X138835624Y-95284177D01*
X141063302Y-93056500D01*
X164295567Y-93056500D01*
X164391998Y-93174002D01*
X164541262Y-93296500D01*
X164391998Y-93418998D01*
X164237667Y-93607051D01*
X164122989Y-93821599D01*
X164052370Y-94054398D01*
X164028525Y-94296500D01*
X164052370Y-94538602D01*
X164093153Y-94673045D01*
X163641199Y-95125000D01*
X157819691Y-95125000D01*
X157785643Y-95042801D01*
X157591063Y-94751591D01*
X157343409Y-94503937D01*
X157052199Y-94309357D01*
X156728623Y-94175328D01*
X156385118Y-94107000D01*
X156034882Y-94107000D01*
X155691377Y-94175328D01*
X155367801Y-94309357D01*
X155076591Y-94503937D01*
X154828937Y-94751591D01*
X154634357Y-95042801D01*
X154500328Y-95366377D01*
X154432000Y-95709882D01*
X154432000Y-96060118D01*
X154500328Y-96403623D01*
X154634357Y-96727199D01*
X154828937Y-97018409D01*
X155076591Y-97266063D01*
X155367801Y-97460643D01*
X155691377Y-97594672D01*
X156034882Y-97663000D01*
X156385118Y-97663000D01*
X156728623Y-97594672D01*
X157052199Y-97460643D01*
X157343409Y-97266063D01*
X157591063Y-97018409D01*
X157785643Y-96727199D01*
X157819691Y-96645000D01*
X163918678Y-96645000D01*
X163956000Y-96648676D01*
X163993322Y-96645000D01*
X163993333Y-96645000D01*
X164104986Y-96634003D01*
X164248247Y-96590546D01*
X164380276Y-96519974D01*
X164496001Y-96425001D01*
X164519804Y-96395997D01*
X165384302Y-95531500D01*
X165880165Y-95531500D01*
X166061602Y-95513630D01*
X166294401Y-95443011D01*
X166508949Y-95328333D01*
X166697002Y-95174002D01*
X166851333Y-94985949D01*
X166966011Y-94771401D01*
X167036630Y-94538602D01*
X167060475Y-94296500D01*
X167036630Y-94054398D01*
X166966011Y-93821599D01*
X166851333Y-93607051D01*
X166697002Y-93418998D01*
X166547738Y-93296500D01*
X166697002Y-93174002D01*
X166851333Y-92985949D01*
X166966011Y-92771401D01*
X167036630Y-92538602D01*
X167060475Y-92296500D01*
X167036630Y-92054398D01*
X166966011Y-91821599D01*
X166851333Y-91607051D01*
X166697002Y-91418998D01*
X166547738Y-91296500D01*
X166697002Y-91174002D01*
X166851333Y-90985949D01*
X166966011Y-90771401D01*
X167036630Y-90538602D01*
X167060475Y-90296500D01*
X167036630Y-90054398D01*
X166966011Y-89821599D01*
X166851333Y-89607051D01*
X166697002Y-89418998D01*
X166547738Y-89296500D01*
X166697002Y-89174002D01*
X166851333Y-88985949D01*
X166966011Y-88771401D01*
X167036630Y-88538602D01*
X167060475Y-88296500D01*
X167036630Y-88054398D01*
X166966011Y-87821599D01*
X166851333Y-87607051D01*
X166725064Y-87453191D01*
X166773994Y-87427037D01*
X166870685Y-87347685D01*
X166950037Y-87250994D01*
X167009002Y-87140680D01*
X167045312Y-87020982D01*
X167057572Y-86896500D01*
X167054500Y-86582250D01*
X166895750Y-86423500D01*
X165671500Y-86423500D01*
X165671500Y-86443500D01*
X165417500Y-86443500D01*
X165417500Y-86423500D01*
X165397500Y-86423500D01*
X165397500Y-86169500D01*
X165417500Y-86169500D01*
X165417500Y-85220250D01*
X165671500Y-85220250D01*
X165671500Y-86169500D01*
X166895750Y-86169500D01*
X167054500Y-86010750D01*
X167057572Y-85696500D01*
X167045312Y-85572018D01*
X167009002Y-85452320D01*
X166950037Y-85342006D01*
X166870685Y-85245315D01*
X166773994Y-85165963D01*
X166663680Y-85106998D01*
X166543982Y-85070688D01*
X166419500Y-85058428D01*
X165830250Y-85061500D01*
X165671500Y-85220250D01*
X165417500Y-85220250D01*
X165258750Y-85061500D01*
X164669500Y-85058428D01*
X164545018Y-85070688D01*
X164425320Y-85106998D01*
X164315006Y-85165963D01*
X164218315Y-85245315D01*
X164138963Y-85342006D01*
X164079998Y-85452320D01*
X164043688Y-85572018D01*
X164031428Y-85696500D01*
X164031548Y-85708746D01*
X155177419Y-76854617D01*
X165968500Y-76854617D01*
X165968500Y-77196383D01*
X166035175Y-77531581D01*
X166165963Y-77847331D01*
X166355837Y-78131498D01*
X166597502Y-78373163D01*
X166881669Y-78563037D01*
X167197419Y-78693825D01*
X167532617Y-78760500D01*
X167874383Y-78760500D01*
X168209581Y-78693825D01*
X168525331Y-78563037D01*
X168809498Y-78373163D01*
X169051163Y-78131498D01*
X169241037Y-77847331D01*
X169371825Y-77531581D01*
X169438500Y-77196383D01*
X169438500Y-76854617D01*
X169371825Y-76519419D01*
X169241037Y-76203669D01*
X169051163Y-75919502D01*
X168809498Y-75677837D01*
X168525331Y-75487963D01*
X168209581Y-75357175D01*
X167874383Y-75290500D01*
X167532617Y-75290500D01*
X167197419Y-75357175D01*
X166881669Y-75487963D01*
X166597502Y-75677837D01*
X166355837Y-75919502D01*
X166165963Y-76203669D01*
X166035175Y-76519419D01*
X165968500Y-76854617D01*
X155177419Y-76854617D01*
X154773804Y-76451003D01*
X154750001Y-76421999D01*
X154634276Y-76327026D01*
X154502247Y-76256454D01*
X154358986Y-76212997D01*
X154247333Y-76202000D01*
X154247322Y-76202000D01*
X154210000Y-76198324D01*
X154172678Y-76202000D01*
X138769691Y-76202000D01*
X138735643Y-76119801D01*
X138541063Y-75828591D01*
X138293409Y-75580937D01*
X138002199Y-75386357D01*
X137678623Y-75252328D01*
X137335118Y-75184000D01*
X136984882Y-75184000D01*
X136641377Y-75252328D01*
X136317801Y-75386357D01*
X136026591Y-75580937D01*
X135778937Y-75828591D01*
X135584357Y-76119801D01*
X135450328Y-76443377D01*
X135382000Y-76786882D01*
X135382000Y-77137118D01*
X135450328Y-77480623D01*
X135584357Y-77804199D01*
X135778937Y-78095409D01*
X136026591Y-78343063D01*
X136317801Y-78537643D01*
X136641377Y-78671672D01*
X136984882Y-78740000D01*
X137335118Y-78740000D01*
X137678623Y-78671672D01*
X138002199Y-78537643D01*
X138293409Y-78343063D01*
X138541063Y-78095409D01*
X138735643Y-77804199D01*
X138769691Y-77722000D01*
X153895199Y-77722000D01*
X164093153Y-87919955D01*
X164052370Y-88054398D01*
X164028525Y-88296500D01*
X164052370Y-88538602D01*
X164122989Y-88771401D01*
X164237667Y-88985949D01*
X164391998Y-89174002D01*
X164541262Y-89296500D01*
X164391998Y-89418998D01*
X164295567Y-89536500D01*
X131643824Y-89536500D01*
X131606501Y-89532824D01*
X131569178Y-89536500D01*
X131569169Y-89536500D01*
X131457516Y-89547497D01*
X131314255Y-89590954D01*
X131182226Y-89661526D01*
X131182224Y-89661527D01*
X131182225Y-89661527D01*
X131095498Y-89732701D01*
X131095494Y-89732705D01*
X131066501Y-89756499D01*
X131042707Y-89785492D01*
X125703201Y-95125000D01*
X119719691Y-95125000D01*
X119685643Y-95042801D01*
X119491063Y-94751591D01*
X119243409Y-94503937D01*
X118952199Y-94309357D01*
X118628623Y-94175328D01*
X118285118Y-94107000D01*
X117934882Y-94107000D01*
X117591377Y-94175328D01*
X117267801Y-94309357D01*
X116976591Y-94503937D01*
X116728937Y-94751591D01*
X116534357Y-95042801D01*
X116400328Y-95366377D01*
X116332000Y-95709882D01*
X95846500Y-95709882D01*
X95846500Y-86911721D01*
X129945000Y-86911721D01*
X129945000Y-87332279D01*
X130027047Y-87744756D01*
X130187988Y-88133302D01*
X130421637Y-88482983D01*
X130719017Y-88780363D01*
X131068698Y-89014012D01*
X131457244Y-89174953D01*
X131869721Y-89257000D01*
X132290279Y-89257000D01*
X132702756Y-89174953D01*
X133091302Y-89014012D01*
X133440983Y-88780363D01*
X133738363Y-88482983D01*
X133972012Y-88133302D01*
X134132953Y-87744756D01*
X134215000Y-87332279D01*
X134215000Y-86911721D01*
X134132953Y-86499244D01*
X133972012Y-86110698D01*
X133738363Y-85761017D01*
X133440983Y-85463637D01*
X133091302Y-85229988D01*
X132702756Y-85069047D01*
X132290279Y-84987000D01*
X131869721Y-84987000D01*
X131457244Y-85069047D01*
X131068698Y-85229988D01*
X130719017Y-85463637D01*
X130421637Y-85761017D01*
X130187988Y-86110698D01*
X130027047Y-86499244D01*
X129945000Y-86911721D01*
X95846500Y-86911721D01*
X95846500Y-81895652D01*
X128054100Y-81895652D01*
X128054100Y-82188348D01*
X128111202Y-82475421D01*
X128223212Y-82745838D01*
X128385826Y-82989206D01*
X128592794Y-83196174D01*
X128836162Y-83358788D01*
X129106579Y-83470798D01*
X129393652Y-83527900D01*
X129686348Y-83527900D01*
X129973421Y-83470798D01*
X130243838Y-83358788D01*
X130487206Y-83196174D01*
X130694174Y-82989206D01*
X130856788Y-82745838D01*
X130968798Y-82475421D01*
X131025900Y-82188348D01*
X131025900Y-81895652D01*
X131003508Y-81783076D01*
X131991100Y-81783076D01*
X131991100Y-82300924D01*
X132092127Y-82808822D01*
X132290299Y-83287251D01*
X132578000Y-83717826D01*
X132944174Y-84084000D01*
X133374749Y-84371701D01*
X133853178Y-84569873D01*
X134361076Y-84670900D01*
X134878924Y-84670900D01*
X135386822Y-84569873D01*
X135865251Y-84371701D01*
X136295826Y-84084000D01*
X136366237Y-84013589D01*
X136295000Y-84371721D01*
X136295000Y-84792279D01*
X136377047Y-85204756D01*
X136537988Y-85593302D01*
X136771637Y-85942983D01*
X137069017Y-86240363D01*
X137418698Y-86474012D01*
X137807244Y-86634953D01*
X138219721Y-86717000D01*
X138640279Y-86717000D01*
X139052756Y-86634953D01*
X139441302Y-86474012D01*
X139790983Y-86240363D01*
X140088363Y-85942983D01*
X140322012Y-85593302D01*
X140482953Y-85204756D01*
X140565000Y-84792279D01*
X140565000Y-84371721D01*
X140482953Y-83959244D01*
X140322012Y-83570698D01*
X140228850Y-83431270D01*
X140403838Y-83358788D01*
X140647206Y-83196174D01*
X140854174Y-82989206D01*
X141016788Y-82745838D01*
X141128798Y-82475421D01*
X141185900Y-82188348D01*
X141185900Y-81895652D01*
X141128798Y-81608579D01*
X141016788Y-81338162D01*
X140854174Y-81094794D01*
X140647206Y-80887826D01*
X140403838Y-80725212D01*
X140133421Y-80613202D01*
X139846348Y-80556100D01*
X139553652Y-80556100D01*
X139266579Y-80613202D01*
X138996162Y-80725212D01*
X138752794Y-80887826D01*
X138545826Y-81094794D01*
X138383212Y-81338162D01*
X138271202Y-81608579D01*
X138214100Y-81895652D01*
X138214100Y-82188348D01*
X138265549Y-82447000D01*
X138219721Y-82447000D01*
X137807244Y-82529047D01*
X137418698Y-82689988D01*
X137112292Y-82894721D01*
X137147873Y-82808822D01*
X137248900Y-82300924D01*
X137248900Y-81783076D01*
X137147873Y-81275178D01*
X136949701Y-80796749D01*
X136662000Y-80366174D01*
X136295826Y-80000000D01*
X135865251Y-79712299D01*
X135386822Y-79514127D01*
X134878924Y-79413100D01*
X134361076Y-79413100D01*
X133853178Y-79514127D01*
X133374749Y-79712299D01*
X132944174Y-80000000D01*
X132578000Y-80366174D01*
X132290299Y-80796749D01*
X132092127Y-81275178D01*
X131991100Y-81783076D01*
X131003508Y-81783076D01*
X130968798Y-81608579D01*
X130856788Y-81338162D01*
X130821030Y-81284646D01*
X130866938Y-81287694D01*
X131214216Y-81242275D01*
X131545960Y-81129977D01*
X131754736Y-81018384D01*
X131867755Y-80739360D01*
X130810000Y-79681605D01*
X130795858Y-79695748D01*
X130616253Y-79516143D01*
X130630395Y-79502000D01*
X130989605Y-79502000D01*
X132047360Y-80559755D01*
X132326384Y-80446736D01*
X132481556Y-80132751D01*
X132572491Y-79794527D01*
X132595694Y-79445062D01*
X132550275Y-79097784D01*
X132437977Y-78766040D01*
X132326384Y-78557264D01*
X132047360Y-78444245D01*
X130989605Y-79502000D01*
X130630395Y-79502000D01*
X129572640Y-78444245D01*
X129293616Y-78557264D01*
X129138444Y-78871249D01*
X129047509Y-79209473D01*
X129024306Y-79558938D01*
X129069725Y-79906216D01*
X129182023Y-80237960D01*
X129293616Y-80446736D01*
X129563616Y-80556100D01*
X129393652Y-80556100D01*
X129106579Y-80613202D01*
X128836162Y-80725212D01*
X128592794Y-80887826D01*
X128385826Y-81094794D01*
X128223212Y-81338162D01*
X128111202Y-81608579D01*
X128054100Y-81895652D01*
X95846500Y-81895652D01*
X95846500Y-77052007D01*
X95862381Y-76854617D01*
X99484000Y-76854617D01*
X99484000Y-77196383D01*
X99550675Y-77531581D01*
X99681463Y-77847331D01*
X99871337Y-78131498D01*
X100113002Y-78373163D01*
X100397169Y-78563037D01*
X100712919Y-78693825D01*
X101048117Y-78760500D01*
X101389883Y-78760500D01*
X101725081Y-78693825D01*
X102040831Y-78563037D01*
X102324998Y-78373163D01*
X102433521Y-78264640D01*
X129752245Y-78264640D01*
X130810000Y-79322395D01*
X131867755Y-78264640D01*
X131754736Y-77985616D01*
X131440751Y-77830444D01*
X131102527Y-77739509D01*
X130753062Y-77716306D01*
X130405784Y-77761725D01*
X130074040Y-77874023D01*
X129865264Y-77985616D01*
X129752245Y-78264640D01*
X102433521Y-78264640D01*
X102566663Y-78131498D01*
X102756537Y-77847331D01*
X102887325Y-77531581D01*
X102954000Y-77196383D01*
X102954000Y-76854617D01*
X102887325Y-76519419D01*
X102756537Y-76203669D01*
X102566663Y-75919502D01*
X102324998Y-75677837D01*
X102040831Y-75487963D01*
X101725081Y-75357175D01*
X101389883Y-75290500D01*
X101048117Y-75290500D01*
X100712919Y-75357175D01*
X100397169Y-75487963D01*
X100113002Y-75677837D01*
X99871337Y-75919502D01*
X99681463Y-76203669D01*
X99550675Y-76519419D01*
X99484000Y-76854617D01*
X95862381Y-76854617D01*
X95917715Y-76166882D01*
X96123188Y-75330347D01*
X96459761Y-74537432D01*
X96918777Y-73808525D01*
X97488430Y-73162381D01*
X98154055Y-72615629D01*
X98898539Y-72182329D01*
X99702720Y-71873632D01*
X100551579Y-71696296D01*
X101239747Y-71653000D01*
X170338222Y-71653000D01*
X170895385Y-71707630D01*
G37*
%TD.AperFunction*%
%TD*%
M02*
