%TF.GenerationSoftware,KiCad,Pcbnew,(5.1.12)-1*%
%TF.CreationDate,2021-12-31T17:27:04-05:00*%
%TF.ProjectId,4keymacropad,346b6579-6d61-4637-926f-7061642e6b69,rev?*%
%TF.SameCoordinates,Original*%
%TF.FileFunction,Copper,L1,Top*%
%TF.FilePolarity,Positive*%
%FSLAX46Y46*%
G04 Gerber Fmt 4.6, Leading zero omitted, Abs format (unit mm)*
G04 Created by KiCad (PCBNEW (5.1.12)-1) date 2021-12-31 17:27:04*
%MOMM*%
%LPD*%
G01*
G04 APERTURE LIST*
%TA.AperFunction,ComponentPad*%
%ADD10C,2.286000*%
%TD*%
%TA.AperFunction,ComponentPad*%
%ADD11O,1.750000X1.200000*%
%TD*%
%TA.AperFunction,Conductor*%
%ADD12C,0.250000*%
%TD*%
G04 APERTURE END LIST*
D10*
%TO.P,SW3,1*%
%TO.N,Net-(J1-Pad4)*%
X137160000Y-95885000D03*
%TO.P,SW3,2*%
%TO.N,GND*%
X130810000Y-98425000D03*
%TD*%
%TO.P,SW1,2*%
%TO.N,GND*%
X130810000Y-79502000D03*
%TO.P,SW1,1*%
%TO.N,Net-(J1-Pad2)*%
X137160000Y-76962000D03*
%TD*%
%TO.P,J1,1*%
%TO.N,GND*%
%TA.AperFunction,ComponentPad*%
G36*
G01*
X164919499Y-85696500D02*
X166169501Y-85696500D01*
G75*
G02*
X166419500Y-85946499I0J-249999D01*
G01*
X166419500Y-86646501D01*
G75*
G02*
X166169501Y-86896500I-249999J0D01*
G01*
X164919499Y-86896500D01*
G75*
G02*
X164669500Y-86646501I0J249999D01*
G01*
X164669500Y-85946499D01*
G75*
G02*
X164919499Y-85696500I249999J0D01*
G01*
G37*
%TD.AperFunction*%
D11*
%TO.P,J1,2*%
%TO.N,Net-(J1-Pad2)*%
X165544500Y-88296500D03*
%TO.P,J1,3*%
%TO.N,Net-(J1-Pad3)*%
X165544500Y-90296500D03*
%TO.P,J1,4*%
%TO.N,Net-(J1-Pad4)*%
X165544500Y-92296500D03*
%TO.P,J1,5*%
%TO.N,Net-(J1-Pad5)*%
X165544500Y-94296500D03*
%TD*%
D10*
%TO.P,SW2,1*%
%TO.N,Net-(J1-Pad3)*%
X118110000Y-95885000D03*
%TO.P,SW2,2*%
%TO.N,GND*%
X111760000Y-98425000D03*
%TD*%
%TO.P,SW4,2*%
%TO.N,GND*%
X149860000Y-98425000D03*
%TO.P,SW4,1*%
%TO.N,Net-(J1-Pad5)*%
X156210000Y-95885000D03*
%TD*%
D12*
%TO.N,Net-(J1-Pad2)*%
X154210000Y-76962000D02*
X165544500Y-88296500D01*
X137160000Y-76962000D02*
X154210000Y-76962000D01*
%TO.N,Net-(J1-Pad3)*%
X126018002Y-95885000D02*
X118110000Y-95885000D01*
X131606502Y-90296500D02*
X165544500Y-90296500D01*
X126018002Y-95885000D02*
X131606502Y-90296500D01*
%TO.N,Net-(J1-Pad4)*%
X140748500Y-92296500D02*
X137160000Y-95885000D01*
X165544500Y-92296500D02*
X140748500Y-92296500D01*
%TO.N,Net-(J1-Pad5)*%
X163956000Y-95885000D02*
X165544500Y-94296500D01*
X156210000Y-95885000D02*
X163956000Y-95885000D01*
%TO.N,GND*%
X134818001Y-75493999D02*
X130810000Y-79502000D01*
X157408999Y-75493999D02*
X134818001Y-75493999D01*
X111760000Y-96935554D02*
X111760000Y-98425000D01*
X129193554Y-79502000D02*
X111760000Y-96935554D01*
X130810000Y-79502000D02*
X129193554Y-79502000D01*
X111760000Y-98425000D02*
X149860000Y-98425000D01*
X157408999Y-78160999D02*
X165544500Y-86296500D01*
X157408999Y-75493999D02*
X157408999Y-78160999D01*
%TD*%
M02*
