%TF.GenerationSoftware,KiCad,Pcbnew,(5.1.12)-1*%
%TF.CreationDate,2021-12-29T02:26:32-05:00*%
%TF.ProjectId,4keymacropad,346b6579-6d61-4637-926f-7061642e6b69,rev?*%
%TF.SameCoordinates,Original*%
%TF.FileFunction,Legend,Top*%
%TF.FilePolarity,Positive*%
%FSLAX46Y46*%
G04 Gerber Fmt 4.6, Leading zero omitted, Abs format (unit mm)*
G04 Created by KiCad (PCBNEW (5.1.12)-1) date 2021-12-29 02:26:32*
%MOMM*%
%LPD*%
G01*
G04 APERTURE LIST*
%ADD10C,0.150000*%
%ADD11C,0.120000*%
G04 APERTURE END LIST*
D10*
X148683214Y-72650000D02*
X148611785Y-72614285D01*
X148504642Y-72614285D01*
X148397500Y-72650000D01*
X148326071Y-72721428D01*
X148290357Y-72792857D01*
X148254642Y-72935714D01*
X148254642Y-73042857D01*
X148290357Y-73185714D01*
X148326071Y-73257142D01*
X148397500Y-73328571D01*
X148504642Y-73364285D01*
X148576071Y-73364285D01*
X148683214Y-73328571D01*
X148718928Y-73292857D01*
X148718928Y-73042857D01*
X148576071Y-73042857D01*
X149040357Y-73364285D02*
X149040357Y-72614285D01*
X149468928Y-73364285D01*
X149468928Y-72614285D01*
X149826071Y-73364285D02*
X149826071Y-72614285D01*
X150004642Y-72614285D01*
X150111785Y-72650000D01*
X150183214Y-72721428D01*
X150218928Y-72792857D01*
X150254642Y-72935714D01*
X150254642Y-73042857D01*
X150218928Y-73185714D01*
X150183214Y-73257142D01*
X150111785Y-73328571D01*
X150004642Y-73364285D01*
X149826071Y-73364285D01*
X159020000Y-89239285D02*
X158770000Y-88882142D01*
X158591428Y-89239285D02*
X158591428Y-88489285D01*
X158877142Y-88489285D01*
X158948571Y-88525000D01*
X158984285Y-88560714D01*
X159020000Y-88632142D01*
X159020000Y-88739285D01*
X158984285Y-88810714D01*
X158948571Y-88846428D01*
X158877142Y-88882142D01*
X158591428Y-88882142D01*
X159341428Y-89239285D02*
X159341428Y-88489285D01*
X160091428Y-88525000D02*
X160020000Y-88489285D01*
X159912857Y-88489285D01*
X159805714Y-88525000D01*
X159734285Y-88596428D01*
X159698571Y-88667857D01*
X159662857Y-88810714D01*
X159662857Y-88917857D01*
X159698571Y-89060714D01*
X159734285Y-89132142D01*
X159805714Y-89203571D01*
X159912857Y-89239285D01*
X159984285Y-89239285D01*
X160091428Y-89203571D01*
X160127142Y-89167857D01*
X160127142Y-88917857D01*
X159984285Y-88917857D01*
X160448571Y-89239285D02*
X160448571Y-88489285D01*
X160448571Y-88846428D02*
X160877142Y-88846428D01*
X160877142Y-89239285D02*
X160877142Y-88489285D01*
X161127142Y-88489285D02*
X161555714Y-88489285D01*
X161341428Y-89239285D02*
X161341428Y-88489285D01*
X151207500Y-81619285D02*
X151207500Y-80869285D01*
X151386071Y-80869285D01*
X151493214Y-80905000D01*
X151564642Y-80976428D01*
X151600357Y-81047857D01*
X151636071Y-81190714D01*
X151636071Y-81297857D01*
X151600357Y-81440714D01*
X151564642Y-81512142D01*
X151493214Y-81583571D01*
X151386071Y-81619285D01*
X151207500Y-81619285D01*
X152100357Y-80869285D02*
X152243214Y-80869285D01*
X152314642Y-80905000D01*
X152386071Y-80976428D01*
X152421785Y-81119285D01*
X152421785Y-81369285D01*
X152386071Y-81512142D01*
X152314642Y-81583571D01*
X152243214Y-81619285D01*
X152100357Y-81619285D01*
X152028928Y-81583571D01*
X151957500Y-81512142D01*
X151921785Y-81369285D01*
X151921785Y-81119285D01*
X151957500Y-80976428D01*
X152028928Y-80905000D01*
X152100357Y-80869285D01*
X152671785Y-80869285D02*
X152850357Y-81619285D01*
X152993214Y-81083571D01*
X153136071Y-81619285D01*
X153314642Y-80869285D01*
X153600357Y-81619285D02*
X153600357Y-80869285D01*
X154028928Y-81619285D01*
X154028928Y-80869285D01*
X148433214Y-79714285D02*
X148076071Y-79714285D01*
X148076071Y-78964285D01*
X148683214Y-79321428D02*
X148933214Y-79321428D01*
X149040357Y-79714285D02*
X148683214Y-79714285D01*
X148683214Y-78964285D01*
X149040357Y-78964285D01*
X149611785Y-79321428D02*
X149361785Y-79321428D01*
X149361785Y-79714285D02*
X149361785Y-78964285D01*
X149718928Y-78964285D01*
X149897500Y-78964285D02*
X150326071Y-78964285D01*
X150111785Y-79714285D02*
X150111785Y-78964285D01*
X148405357Y-77059285D02*
X148405357Y-77666428D01*
X148441071Y-77737857D01*
X148476785Y-77773571D01*
X148548214Y-77809285D01*
X148691071Y-77809285D01*
X148762500Y-77773571D01*
X148798214Y-77737857D01*
X148833928Y-77666428D01*
X148833928Y-77059285D01*
X149191071Y-77809285D02*
X149191071Y-77059285D01*
X149476785Y-77059285D01*
X149548214Y-77095000D01*
X149583928Y-77130714D01*
X149619642Y-77202142D01*
X149619642Y-77309285D01*
X149583928Y-77380714D01*
X149548214Y-77416428D01*
X149476785Y-77452142D01*
X149191071Y-77452142D01*
D11*
%TO.C,SW2*%
X107315000Y-93980000D02*
X121285000Y-93980000D01*
X121285000Y-93980000D02*
X121285000Y-107950000D01*
X121285000Y-107950000D02*
X107315000Y-107950000D01*
X107315000Y-107950000D02*
X107315000Y-93980000D01*
%TO.C,SW1*%
X127710001Y-73735001D02*
X141680001Y-73735001D01*
X141680001Y-73735001D02*
X141680001Y-87705001D01*
X141680001Y-87705001D02*
X127710001Y-87705001D01*
X127710001Y-87705001D02*
X127710001Y-73735001D01*
%TO.C,SW3*%
X127635000Y-107950000D02*
X127635000Y-93980000D01*
X141605000Y-107950000D02*
X127635000Y-107950000D01*
X141605000Y-93980000D02*
X141605000Y-107950000D01*
X127635000Y-93980000D02*
X141605000Y-93980000D01*
%TO.C,SW4*%
X147910001Y-107905001D02*
X147910001Y-93935001D01*
X161880001Y-107905001D02*
X147910001Y-107905001D01*
X161880001Y-93935001D02*
X161880001Y-107905001D01*
X147910001Y-93935001D02*
X161880001Y-93935001D01*
%TO.C,REF\u002A\u002A*%
D10*
X160591666Y-66102380D02*
X160258333Y-65626190D01*
X160020238Y-66102380D02*
X160020238Y-65102380D01*
X160401190Y-65102380D01*
X160496428Y-65150000D01*
X160544047Y-65197619D01*
X160591666Y-65292857D01*
X160591666Y-65435714D01*
X160544047Y-65530952D01*
X160496428Y-65578571D01*
X160401190Y-65626190D01*
X160020238Y-65626190D01*
X161020238Y-65578571D02*
X161353571Y-65578571D01*
X161496428Y-66102380D02*
X161020238Y-66102380D01*
X161020238Y-65102380D01*
X161496428Y-65102380D01*
X162258333Y-65578571D02*
X161925000Y-65578571D01*
X161925000Y-66102380D02*
X161925000Y-65102380D01*
X162401190Y-65102380D01*
X162925000Y-65102380D02*
X162925000Y-65340476D01*
X162686904Y-65245238D02*
X162925000Y-65340476D01*
X163163095Y-65245238D01*
X162782142Y-65530952D02*
X162925000Y-65340476D01*
X163067857Y-65530952D01*
X163686904Y-65102380D02*
X163686904Y-65340476D01*
X163448809Y-65245238D02*
X163686904Y-65340476D01*
X163925000Y-65245238D01*
X163544047Y-65530952D02*
X163686904Y-65340476D01*
X163829761Y-65530952D01*
X105981666Y-66102380D02*
X105648333Y-65626190D01*
X105410238Y-66102380D02*
X105410238Y-65102380D01*
X105791190Y-65102380D01*
X105886428Y-65150000D01*
X105934047Y-65197619D01*
X105981666Y-65292857D01*
X105981666Y-65435714D01*
X105934047Y-65530952D01*
X105886428Y-65578571D01*
X105791190Y-65626190D01*
X105410238Y-65626190D01*
X106410238Y-65578571D02*
X106743571Y-65578571D01*
X106886428Y-66102380D02*
X106410238Y-66102380D01*
X106410238Y-65102380D01*
X106886428Y-65102380D01*
X107648333Y-65578571D02*
X107315000Y-65578571D01*
X107315000Y-66102380D02*
X107315000Y-65102380D01*
X107791190Y-65102380D01*
X108315000Y-65102380D02*
X108315000Y-65340476D01*
X108076904Y-65245238D02*
X108315000Y-65340476D01*
X108553095Y-65245238D01*
X108172142Y-65530952D02*
X108315000Y-65340476D01*
X108457857Y-65530952D01*
X109076904Y-65102380D02*
X109076904Y-65340476D01*
X108838809Y-65245238D02*
X109076904Y-65340476D01*
X109315000Y-65245238D01*
X108934047Y-65530952D02*
X109076904Y-65340476D01*
X109219761Y-65530952D01*
X105981666Y-108012380D02*
X105648333Y-107536190D01*
X105410238Y-108012380D02*
X105410238Y-107012380D01*
X105791190Y-107012380D01*
X105886428Y-107060000D01*
X105934047Y-107107619D01*
X105981666Y-107202857D01*
X105981666Y-107345714D01*
X105934047Y-107440952D01*
X105886428Y-107488571D01*
X105791190Y-107536190D01*
X105410238Y-107536190D01*
X106410238Y-107488571D02*
X106743571Y-107488571D01*
X106886428Y-108012380D02*
X106410238Y-108012380D01*
X106410238Y-107012380D01*
X106886428Y-107012380D01*
X107648333Y-107488571D02*
X107315000Y-107488571D01*
X107315000Y-108012380D02*
X107315000Y-107012380D01*
X107791190Y-107012380D01*
X108315000Y-107012380D02*
X108315000Y-107250476D01*
X108076904Y-107155238D02*
X108315000Y-107250476D01*
X108553095Y-107155238D01*
X108172142Y-107440952D02*
X108315000Y-107250476D01*
X108457857Y-107440952D01*
X109076904Y-107012380D02*
X109076904Y-107250476D01*
X108838809Y-107155238D02*
X109076904Y-107250476D01*
X109315000Y-107155238D01*
X108934047Y-107440952D02*
X109076904Y-107250476D01*
X109219761Y-107440952D01*
X160591666Y-108012380D02*
X160258333Y-107536190D01*
X160020238Y-108012380D02*
X160020238Y-107012380D01*
X160401190Y-107012380D01*
X160496428Y-107060000D01*
X160544047Y-107107619D01*
X160591666Y-107202857D01*
X160591666Y-107345714D01*
X160544047Y-107440952D01*
X160496428Y-107488571D01*
X160401190Y-107536190D01*
X160020238Y-107536190D01*
X161020238Y-107488571D02*
X161353571Y-107488571D01*
X161496428Y-108012380D02*
X161020238Y-108012380D01*
X161020238Y-107012380D01*
X161496428Y-107012380D01*
X162258333Y-107488571D02*
X161925000Y-107488571D01*
X161925000Y-108012380D02*
X161925000Y-107012380D01*
X162401190Y-107012380D01*
X162925000Y-107012380D02*
X162925000Y-107250476D01*
X162686904Y-107155238D02*
X162925000Y-107250476D01*
X163163095Y-107155238D01*
X162782142Y-107440952D02*
X162925000Y-107250476D01*
X163067857Y-107440952D01*
X163686904Y-107012380D02*
X163686904Y-107250476D01*
X163448809Y-107155238D02*
X163686904Y-107250476D01*
X163925000Y-107155238D01*
X163544047Y-107440952D02*
X163686904Y-107250476D01*
X163829761Y-107440952D01*
%TO.C,SW2*%
X112966666Y-93495761D02*
X113109523Y-93543380D01*
X113347619Y-93543380D01*
X113442857Y-93495761D01*
X113490476Y-93448142D01*
X113538095Y-93352904D01*
X113538095Y-93257666D01*
X113490476Y-93162428D01*
X113442857Y-93114809D01*
X113347619Y-93067190D01*
X113157142Y-93019571D01*
X113061904Y-92971952D01*
X113014285Y-92924333D01*
X112966666Y-92829095D01*
X112966666Y-92733857D01*
X113014285Y-92638619D01*
X113061904Y-92591000D01*
X113157142Y-92543380D01*
X113395238Y-92543380D01*
X113538095Y-92591000D01*
X113871428Y-92543380D02*
X114109523Y-93543380D01*
X114300000Y-92829095D01*
X114490476Y-93543380D01*
X114728571Y-92543380D01*
X115061904Y-92638619D02*
X115109523Y-92591000D01*
X115204761Y-92543380D01*
X115442857Y-92543380D01*
X115538095Y-92591000D01*
X115585714Y-92638619D01*
X115633333Y-92733857D01*
X115633333Y-92829095D01*
X115585714Y-92971952D01*
X115014285Y-93543380D01*
X115633333Y-93543380D01*
%TO.C,SW1*%
X133361667Y-73250762D02*
X133504524Y-73298381D01*
X133742620Y-73298381D01*
X133837858Y-73250762D01*
X133885477Y-73203143D01*
X133933096Y-73107905D01*
X133933096Y-73012667D01*
X133885477Y-72917429D01*
X133837858Y-72869810D01*
X133742620Y-72822191D01*
X133552143Y-72774572D01*
X133456905Y-72726953D01*
X133409286Y-72679334D01*
X133361667Y-72584096D01*
X133361667Y-72488858D01*
X133409286Y-72393620D01*
X133456905Y-72346001D01*
X133552143Y-72298381D01*
X133790239Y-72298381D01*
X133933096Y-72346001D01*
X134266429Y-72298381D02*
X134504524Y-73298381D01*
X134695001Y-72584096D01*
X134885477Y-73298381D01*
X135123572Y-72298381D01*
X136028334Y-73298381D02*
X135456905Y-73298381D01*
X135742620Y-73298381D02*
X135742620Y-72298381D01*
X135647381Y-72441239D01*
X135552143Y-72536477D01*
X135456905Y-72584096D01*
%TO.C,SW3*%
X133286666Y-93495761D02*
X133429523Y-93543380D01*
X133667619Y-93543380D01*
X133762857Y-93495761D01*
X133810476Y-93448142D01*
X133858095Y-93352904D01*
X133858095Y-93257666D01*
X133810476Y-93162428D01*
X133762857Y-93114809D01*
X133667619Y-93067190D01*
X133477142Y-93019571D01*
X133381904Y-92971952D01*
X133334285Y-92924333D01*
X133286666Y-92829095D01*
X133286666Y-92733857D01*
X133334285Y-92638619D01*
X133381904Y-92591000D01*
X133477142Y-92543380D01*
X133715238Y-92543380D01*
X133858095Y-92591000D01*
X134191428Y-92543380D02*
X134429523Y-93543380D01*
X134620000Y-92829095D01*
X134810476Y-93543380D01*
X135048571Y-92543380D01*
X135334285Y-92543380D02*
X135953333Y-92543380D01*
X135620000Y-92924333D01*
X135762857Y-92924333D01*
X135858095Y-92971952D01*
X135905714Y-93019571D01*
X135953333Y-93114809D01*
X135953333Y-93352904D01*
X135905714Y-93448142D01*
X135858095Y-93495761D01*
X135762857Y-93543380D01*
X135477142Y-93543380D01*
X135381904Y-93495761D01*
X135334285Y-93448142D01*
%TO.C,SW4*%
X153561667Y-93450762D02*
X153704524Y-93498381D01*
X153942620Y-93498381D01*
X154037858Y-93450762D01*
X154085477Y-93403143D01*
X154133096Y-93307905D01*
X154133096Y-93212667D01*
X154085477Y-93117429D01*
X154037858Y-93069810D01*
X153942620Y-93022191D01*
X153752143Y-92974572D01*
X153656905Y-92926953D01*
X153609286Y-92879334D01*
X153561667Y-92784096D01*
X153561667Y-92688858D01*
X153609286Y-92593620D01*
X153656905Y-92546001D01*
X153752143Y-92498381D01*
X153990239Y-92498381D01*
X154133096Y-92546001D01*
X154466429Y-92498381D02*
X154704524Y-93498381D01*
X154895001Y-92784096D01*
X155085477Y-93498381D01*
X155323572Y-92498381D01*
X156133096Y-92831715D02*
X156133096Y-93498381D01*
X155895001Y-92450762D02*
X155656905Y-93165048D01*
X156275953Y-93165048D01*
%TD*%
M02*
