%TF.GenerationSoftware,KiCad,Pcbnew,(5.1.12)-1*%
%TF.CreationDate,2021-12-29T02:26:32-05:00*%
%TF.ProjectId,4keymacropad,346b6579-6d61-4637-926f-7061642e6b69,rev?*%
%TF.SameCoordinates,Original*%
%TF.FileFunction,Legend,Bot*%
%TF.FilePolarity,Positive*%
%FSLAX46Y46*%
G04 Gerber Fmt 4.6, Leading zero omitted, Abs format (unit mm)*
G04 Created by KiCad (PCBNEW (5.1.12)-1) date 2021-12-29 02:26:32*
%MOMM*%
%LPD*%
G01*
G04 APERTURE LIST*
%ADD10C,0.120000*%
%ADD11C,0.150000*%
G04 APERTURE END LIST*
D10*
%TO.C,J1*%
X158255000Y-75340000D02*
X158255000Y-75060000D01*
X158255000Y-75060000D02*
X156655000Y-75060000D01*
X156655000Y-75060000D02*
X156655000Y-74140000D01*
X156655000Y-74140000D02*
X164475000Y-74140000D01*
X164475000Y-74140000D02*
X164475000Y-86260000D01*
X164475000Y-86260000D02*
X156655000Y-86260000D01*
X156655000Y-86260000D02*
X156655000Y-85340000D01*
X156655000Y-85340000D02*
X158255000Y-85340000D01*
X158255000Y-85340000D02*
X158255000Y-85060000D01*
X164475000Y-76700000D02*
X160115000Y-76700000D01*
X160115000Y-76700000D02*
X160115000Y-83700000D01*
X160115000Y-83700000D02*
X164475000Y-83700000D01*
X158255000Y-74140000D02*
X158255000Y-75060000D01*
X158255000Y-86260000D02*
X158255000Y-85340000D01*
X160615000Y-74900000D02*
X162215000Y-74900000D01*
X162215000Y-74900000D02*
X162215000Y-75900000D01*
X162215000Y-75900000D02*
X160615000Y-75900000D01*
X160615000Y-75900000D02*
X160615000Y-74900000D01*
X160615000Y-85500000D02*
X162215000Y-85500000D01*
X162215000Y-85500000D02*
X162215000Y-84500000D01*
X162215000Y-84500000D02*
X160615000Y-84500000D01*
X160615000Y-84500000D02*
X160615000Y-85500000D01*
X162215000Y-75900000D02*
X164475000Y-75900000D01*
X162215000Y-75400000D02*
X164475000Y-75400000D01*
X158255000Y-75340000D02*
X157040000Y-75340000D01*
D11*
X155017380Y-79866666D02*
X155731666Y-79866666D01*
X155874523Y-79819047D01*
X155969761Y-79723809D01*
X156017380Y-79580952D01*
X156017380Y-79485714D01*
X156017380Y-80866666D02*
X156017380Y-80295238D01*
X156017380Y-80580952D02*
X155017380Y-80580952D01*
X155160238Y-80485714D01*
X155255476Y-80390476D01*
X155303095Y-80295238D01*
%TD*%
M02*
