%TF.GenerationSoftware,KiCad,Pcbnew,(5.1.12)-1*%
%TF.CreationDate,2021-12-29T02:26:32-05:00*%
%TF.ProjectId,4keymacropad,346b6579-6d61-4637-926f-7061642e6b69,rev?*%
%TF.SameCoordinates,Original*%
%TF.FileFunction,Copper,L1,Top*%
%TF.FilePolarity,Positive*%
%FSLAX46Y46*%
G04 Gerber Fmt 4.6, Leading zero omitted, Abs format (unit mm)*
G04 Created by KiCad (PCBNEW (5.1.12)-1) date 2021-12-29 02:26:32*
%MOMM*%
%LPD*%
G01*
G04 APERTURE LIST*
%TA.AperFunction,ComponentPad*%
%ADD10C,2.200000*%
%TD*%
%TA.AperFunction,ComponentPad*%
%ADD11O,1.750000X1.200000*%
%TD*%
%TA.AperFunction,Conductor*%
%ADD12C,0.250000*%
%TD*%
G04 APERTURE END LIST*
D10*
%TO.P,SW2,1*%
%TO.N,Net-(J1-Pad3)*%
X116840000Y-95885000D03*
%TO.P,SW2,2*%
%TO.N,Net-(J1-Pad1)*%
X110490000Y-98425000D03*
%TD*%
%TO.P,J1,1*%
%TO.N,Net-(J1-Pad1)*%
%TA.AperFunction,ComponentPad*%
G36*
G01*
X157489999Y-75600000D02*
X158740001Y-75600000D01*
G75*
G02*
X158990000Y-75849999I0J-249999D01*
G01*
X158990000Y-76550001D01*
G75*
G02*
X158740001Y-76800000I-249999J0D01*
G01*
X157489999Y-76800000D01*
G75*
G02*
X157240000Y-76550001I0J249999D01*
G01*
X157240000Y-75849999D01*
G75*
G02*
X157489999Y-75600000I249999J0D01*
G01*
G37*
%TD.AperFunction*%
D11*
%TO.P,J1,2*%
%TO.N,Net-(J1-Pad2)*%
X158115000Y-78200000D03*
%TO.P,J1,3*%
%TO.N,Net-(J1-Pad3)*%
X158115000Y-80200000D03*
%TO.P,J1,4*%
%TO.N,Net-(J1-Pad4)*%
X158115000Y-82200000D03*
%TO.P,J1,5*%
%TO.N,Net-(J1-Pad5)*%
X158115000Y-84200000D03*
%TD*%
D10*
%TO.P,SW1,1*%
%TO.N,Net-(J1-Pad2)*%
X137235001Y-75640001D03*
%TO.P,SW1,2*%
%TO.N,Net-(J1-Pad1)*%
X130885001Y-78180001D03*
%TD*%
%TO.P,SW3,2*%
%TO.N,Net-(J1-Pad1)*%
X130810000Y-98425000D03*
%TO.P,SW3,1*%
%TO.N,Net-(J1-Pad4)*%
X137160000Y-95885000D03*
%TD*%
%TO.P,SW4,2*%
%TO.N,Net-(J1-Pad1)*%
X151085001Y-98380001D03*
%TO.P,SW4,1*%
%TO.N,Net-(J1-Pad5)*%
X157435001Y-95840001D03*
%TD*%
D12*
%TO.N,Net-(J1-Pad1)*%
X135405002Y-73660000D02*
X130885001Y-78180001D01*
X110490000Y-97019368D02*
X110490000Y-98425000D01*
X129329367Y-78180001D02*
X110490000Y-97019368D01*
X130885001Y-78180001D02*
X129329367Y-78180001D01*
X110490000Y-98425000D02*
X130810000Y-98425000D01*
X151040002Y-98425000D02*
X151085001Y-98380001D01*
X130810000Y-98425000D02*
X151040002Y-98425000D01*
X158211410Y-76200000D02*
X158115000Y-76200000D01*
X158565010Y-75846400D02*
X158211410Y-76200000D01*
X155575000Y-73660000D02*
X135405002Y-73660000D01*
X158115000Y-76200000D02*
X155575000Y-73660000D01*
%TO.N,Net-(J1-Pad2)*%
X136430000Y-74835000D02*
X137235001Y-75640001D01*
X137255000Y-75660000D02*
X137235001Y-75640001D01*
X139795000Y-78200000D02*
X137235001Y-75640001D01*
X158115000Y-78200000D02*
X139795000Y-78200000D01*
%TO.N,Net-(J1-Pad3)*%
X143510000Y-83820000D02*
X143510000Y-83820000D01*
X147130000Y-80200000D02*
X143510000Y-83820000D01*
X158115000Y-80200000D02*
X147130000Y-80200000D01*
X128905000Y-83820000D02*
X116840000Y-95885000D01*
X143510000Y-83820000D02*
X128905000Y-83820000D01*
%TO.N,Net-(J1-Pad5)*%
X157480000Y-95795002D02*
X157435001Y-95840001D01*
%TO.N,Net-(J1-Pad4)*%
X157480000Y-82550000D02*
X157480000Y-82295000D01*
X150845000Y-82200000D02*
X137160000Y-95885000D01*
X158115000Y-82200000D02*
X150845000Y-82200000D01*
%TO.N,Net-(J1-Pad5)*%
X158115000Y-95160002D02*
X157435001Y-95840001D01*
X158115000Y-84200000D02*
X158115000Y-95160002D01*
%TD*%
M02*
